<svg width="38" height="38" viewBox="0 0 38 38" fill="none" xmlns="http://www.w3.org/2000/svg">
<path d="M18.9746 37.0179C8.89778 37.0179 0.728931 28.849 0.728931 18.7723C0.728931 8.69546 8.89778 0.526611 18.9746 0.526611C29.0514 0.526611 37.2202 8.69546 37.2202 18.7723C37.2202 28.849 29.0514 37.0179 18.9746 37.0179Z" fill="#F0B90B"/>
<path d="M25.7788 18.7726L28.5704 21.5836L31.3813 18.7726L28.5704 15.9616L25.7788 18.7726ZM18.9743 11.9681L14.1666 16.7759L11.3556 13.9649L16.1633 9.17654L18.9743 6.36557L21.7853 9.17654L26.5736 13.9649L23.7627 16.7759L18.9743 11.9681ZM9.37824 15.9616L12.1698 18.7726L9.35885 21.5836L6.56727 18.7726L9.37824 15.9616ZM18.9743 25.5771L23.782 20.7694L26.5736 23.5803L21.7659 28.3881L18.9743 31.1796L16.1633 28.3687L11.3556 23.561L14.1666 20.7694L18.9743 25.5771ZM18.9743 21.5836L16.1633 18.7726L18.9743 15.9616L21.7853 18.7726L18.9743 21.5836Z" fill="white"/>
</svg>
