<svg width="20" height="26" viewBox="0 0 20 26" fill="none" xmlns="http://www.w3.org/2000/svg">
<path d="M0.00405718 1.82557V11.4099C0.0035492 11.4869 0.0167045 11.5633 0.0427718 11.6347C0.068839 11.706 0.107307 11.771 0.155981 11.8258C0.204655 11.8807 0.262578 11.9244 0.326447 11.9544C0.390317 11.9843 0.458877 12.0001 0.528218 12.0006H4.38239C4.47493 11.9988 4.56543 11.9701 4.64495 11.9175C4.72447 11.8649 4.79025 11.7902 4.83579 11.7007C4.88133 11.6112 4.90506 11.51 4.90463 11.4072C4.9042 11.3044 4.87962 11.2036 4.83333 11.1145L4.33614 10.1386C4.28647 10.0374 4.21894 9.94849 4.13759 9.87705C4.05625 9.8056 3.96276 9.75311 3.86272 9.72274C3.76268 9.69236 3.65815 9.68472 3.55539 9.70027C3.45263 9.71582 3.35376 9.75424 3.26468 9.81323L3.21072 9.84748C3.12066 9.90258 3.02159 9.93712 2.91933 9.94905C2.81707 9.96099 2.7137 9.95008 2.61529 9.91697C2.51689 9.88387 2.42544 9.82923 2.34634 9.75627C2.26723 9.68332 2.20206 9.59353 2.15468 9.49218C2.0984 9.38509 2.06374 9.26571 2.05309 9.14228C2.04245 9.01885 2.05607 8.89433 2.09301 8.77732L2.89468 6.05912C2.95118 5.85431 3.07474 5.68047 3.24099 5.57191C3.40724 5.46334 3.60409 5.42793 3.7927 5.47267L6.27864 6.06768C6.38744 6.09342 6.48993 6.145 6.57908 6.21889C6.66823 6.29278 6.74192 6.38723 6.7951 6.49574C6.89927 6.69584 6.92816 6.93351 6.87548 7.15713C6.8228 7.38074 6.69281 7.57225 6.51374 7.69004L6.45979 7.72428C6.27835 7.84392 6.14641 8.03785 6.09236 8.26438C6.03831 8.49092 6.06645 8.73196 6.17072 8.9357L6.66406 9.90312C6.70941 9.99216 6.77523 10.0662 6.85479 10.1178C6.93436 10.1693 7.02481 10.1965 7.11692 10.1965C7.20902 10.1965 7.29948 10.1693 7.37904 10.1178C7.45861 10.0662 7.52443 9.99216 7.56978 9.90312L9.49687 6.16613C9.56765 6.03013 9.58751 5.86869 9.55219 5.71658C9.51687 5.56446 9.42919 5.43384 9.30802 5.35281L1.96197 0.545665C1.76186 0.417812 1.53482 0.351129 1.30396 0.352404C1.07311 0.35368 0.846675 0.422869 0.64772 0.552928C0.448765 0.682987 0.284389 0.869273 0.171324 1.09282C0.0582599 1.31637 0.000548803 1.5692 0.00405718 1.82557Z" fill="#34C88A"/>
<path d="M18.9587 11.6323L11.6358 6.85515C11.5764 6.81591 11.5106 6.7904 11.4421 6.78015C11.3736 6.76991 11.304 6.77514 11.2374 6.79553C11.1708 6.81592 11.1086 6.85105 11.0545 6.89881C11.0005 6.94658 10.9557 7.00598 10.9228 7.07346L8.9957 10.8618C8.94914 10.9505 8.92436 11.0512 8.92384 11.1539C8.92331 11.2565 8.94706 11.3576 8.99271 11.4468C9.03837 11.5361 9.10432 11.6105 9.18398 11.6626C9.26363 11.7147 9.35421 11.7426 9.44665 11.7436H10.7108C10.7814 11.7454 10.8517 11.7313 10.9173 11.7023C10.983 11.6734 11.0427 11.6301 11.0931 11.575C11.1434 11.5199 11.1832 11.4542 11.2102 11.3817C11.2373 11.3092 11.2509 11.2314 11.2504 11.1529V10.5022C11.2503 10.3522 11.3023 10.2079 11.3957 10.0994C11.489 9.99095 11.6165 9.9267 11.7514 9.92008H12.1176C12.191 9.92153 12.2632 9.9402 12.3297 9.97488C12.3961 10.0096 12.4552 10.0594 12.503 10.1213L14.4108 12.557C14.4947 12.6662 14.5408 12.8051 14.5408 12.9486C14.5408 13.0922 14.4947 13.2311 14.4108 13.3403L12.503 15.776C12.4552 15.8378 12.3961 15.8877 12.3297 15.9224C12.2632 15.9571 12.191 15.9757 12.1176 15.9772H11.7514C11.6138 15.9705 11.484 15.9039 11.3902 15.7917C11.2964 15.6795 11.2462 15.5309 11.2504 15.3779V14.7272C11.2509 14.6502 11.2377 14.5738 11.2117 14.5025C11.1856 14.4311 11.1471 14.3661 11.0985 14.3113C11.0498 14.2564 10.9919 14.2128 10.928 14.1828C10.8641 14.1528 10.7956 14.1371 10.7262 14.1365H9.47747C9.38493 14.1384 9.29443 14.167 9.21492 14.2196C9.1354 14.2722 9.06962 14.347 9.02407 14.4365C8.97853 14.526 8.9548 14.6271 8.95524 14.7299C8.95567 14.8327 8.98024 14.9336 9.02654 15.0226L10.9266 18.781C10.9599 18.848 11.0049 18.907 11.059 18.9544C11.1131 19.0019 11.1753 19.0368 11.2417 19.0571C11.3082 19.0775 11.3776 19.0828 11.4459 19.0729C11.5143 19.063 11.5802 19.0379 11.6397 18.9993L18.9587 14.2007C19.1601 14.0692 19.3271 13.8815 19.4432 13.6563C19.5592 13.431 19.6202 13.176 19.6202 12.9165C19.6202 12.657 19.5592 12.402 19.4432 12.1768C19.3271 11.9515 19.1601 11.7638 18.9587 11.6323Z" fill="#34C88A"/>
<path d="M1.95807 25.2878L9.32338 20.4978C9.44456 20.4168 9.53224 20.2861 9.56756 20.134C9.60288 19.9819 9.58302 19.8205 9.51224 19.6845L7.58515 15.9175C7.5398 15.8285 7.47398 15.7544 7.39442 15.7029C7.31485 15.6513 7.22439 15.6242 7.13229 15.6242C7.04018 15.6242 6.94972 15.6513 6.87016 15.7029C6.7906 15.7544 6.72478 15.8285 6.67942 15.9175L6.04734 17.1503C5.97809 17.2865 5.95948 17.4473 5.99549 17.5984C6.03149 17.7496 6.11925 17.8791 6.24005 17.9594L6.73723 18.2847C6.85776 18.3642 6.94544 18.493 6.98147 18.6434C7.0175 18.7939 6.99899 18.954 6.92994 19.0895L6.7488 19.449C6.71128 19.5207 6.66069 19.5828 6.60029 19.6314C6.5399 19.6801 6.47102 19.7142 6.39807 19.7316L3.54213 20.3865C3.4168 20.4153 3.28629 20.3914 3.17591 20.3195C3.06553 20.2475 2.98315 20.1326 2.94473 19.997L2.02745 16.9063C2.00428 16.8266 1.99643 16.7424 2.00439 16.659C2.01236 16.5757 2.03597 16.4952 2.07369 16.4226L2.25484 16.0673C2.28811 16.0003 2.33312 15.9413 2.38723 15.8939C2.44134 15.8465 2.50345 15.8116 2.5699 15.7912C2.63635 15.7709 2.7058 15.7655 2.77414 15.7754C2.84249 15.7854 2.90836 15.8104 2.96786 15.849L3.4689 16.1744C3.52817 16.2132 3.59383 16.2384 3.66202 16.2487C3.7302 16.2589 3.79954 16.2539 3.86596 16.234C3.93238 16.214 3.99456 16.1796 4.04881 16.1326C4.10307 16.0856 4.14833 16.027 4.18192 15.9603L4.8063 14.7403C4.85234 14.651 4.87672 14.5499 4.87706 14.447C4.87741 14.3441 4.85371 14.2428 4.80827 14.1531C4.76283 14.0634 4.69721 13.9883 4.61783 13.9351C4.53844 13.882 4.44801 13.8527 4.35536 13.85H0.524318C0.454977 13.8505 0.386416 13.8663 0.322547 13.8962C0.258677 13.9262 0.200748 13.9699 0.152075 14.0248C0.103401 14.0796 0.0649327 14.1446 0.0388655 14.216C0.0127982 14.2873 -0.000357069 14.3637 0.000150918 14.4407V24.0079C-0.00335746 24.2643 0.0543595 24.5171 0.167424 24.7407C0.280488 24.9642 0.444864 25.1505 0.64382 25.2806C0.842775 25.4106 1.06921 25.4798 1.30006 25.4811C1.53092 25.4824 1.75796 25.4157 1.95807 25.2878Z" fill="#163F59"/>
</svg>
