<svg width="38" height="38" viewBox="0 0 38 38" fill="none" xmlns="http://www.w3.org/2000/svg">
<path d="M23.1141 25.4879C22.2727 26.3294 20.4701 26.63 19.1851 26.63C17.9001 26.63 16.0976 26.3294 15.2561 25.4879C15.161 25.3928 15.032 25.3394 14.8974 25.3394C14.7629 25.3394 14.6338 25.3928 14.5387 25.4879C14.4436 25.5831 14.3901 25.7121 14.3901 25.8466C14.3901 25.9812 14.4436 26.1102 14.5387 26.2054C15.8719 27.5386 18.4341 27.6445 19.1894 27.6445C19.9447 27.6445 22.4992 27.5394 23.8401 26.2054C23.933 26.109 23.9849 25.9805 23.9849 25.8466C23.9849 25.7128 23.933 25.5843 23.8401 25.4879C23.793 25.4393 23.7366 25.4007 23.6742 25.3743C23.6119 25.3479 23.5448 25.3343 23.4771 25.3343C23.4094 25.3343 23.3424 25.3479 23.28 25.3743C23.2176 25.4007 23.1612 25.4393 23.1141 25.4879V25.4879Z" fill="white"/>
<path d="M16.8332 21.0374C16.8332 20.6502 16.7184 20.2717 16.5033 19.9498C16.2882 19.6279 15.9824 19.377 15.6247 19.2288C15.267 19.0807 14.8734 19.0419 14.4937 19.1174C14.1139 19.1929 13.7651 19.3794 13.4913 19.6532C13.2176 19.9269 13.0311 20.2758 12.9556 20.6555C12.88 21.0352 12.9188 21.4289 13.067 21.7866C13.2152 22.1443 13.4661 22.45 13.788 22.6651C14.1099 22.8802 14.4884 22.995 14.8756 22.995C15.3945 22.9941 15.8919 22.7876 16.2588 22.4206C16.6257 22.0537 16.8323 21.5563 16.8332 21.0374V21.0374Z" fill="white"/>
<path d="M19.1816 0.297852C15.4667 0.297681 11.8352 1.39913 8.74622 3.46291C5.65729 5.52669 3.24972 8.4601 1.82796 11.8922C0.406203 15.3243 0.0341175 19.1009 0.758759 22.7445C1.4834 26.388 3.27222 29.7349 5.89901 32.3618C8.5258 34.9887 11.8726 36.7777 15.5161 37.5025C19.1596 38.2273 22.9363 37.8554 26.3684 36.4338C29.8006 35.0122 32.7341 32.6048 34.798 29.5159C36.862 26.4271 37.9636 22.7956 37.9636 19.0807C37.9631 14.0994 35.9842 9.32236 32.462 5.80002C28.9398 2.27768 24.1628 0.298537 19.1816 0.297852V0.297852ZM30.0789 21.586C30.1209 21.8582 30.1422 22.1331 30.1426 22.4085C30.1426 26.6234 25.2336 30.0382 19.1851 30.0382C13.1366 30.0382 8.2275 26.6234 8.2275 22.4085C8.22778 22.1305 8.24909 21.853 8.29123 21.5783C7.9276 21.4148 7.60408 21.1738 7.3433 20.8722C7.08251 20.5706 6.89077 20.2157 6.78147 19.8323C6.67218 19.4488 6.64797 19.0462 6.71054 18.6524C6.77311 18.2587 6.92095 17.8833 7.14373 17.5527C7.3665 17.222 7.65882 16.944 8.00024 16.7381C8.34167 16.5322 8.72395 16.4034 9.12036 16.3607C9.51676 16.318 9.91771 16.3624 10.2952 16.4908C10.6726 16.6192 11.0175 16.8285 11.3056 17.1041C13.506 15.6077 16.1012 14.7983 18.7622 14.7788C18.7622 14.7409 20.1299 8.2273 20.1299 8.2273C20.1428 8.16468 20.168 8.10525 20.2041 8.05247C20.2401 7.99968 20.2863 7.9546 20.34 7.91984C20.3939 7.88478 20.4543 7.86072 20.5175 7.84904C20.5808 7.83737 20.6457 7.8383 20.7086 7.8518L25.2594 8.82414C25.4698 8.39684 25.8287 8.06093 26.269 7.87936C26.7093 7.6978 27.2007 7.68306 27.6511 7.8379C28.1015 7.99274 28.48 8.30654 28.7156 8.72046C28.9511 9.13438 29.0277 9.62002 28.9308 10.0863C28.8339 10.5526 28.5703 10.9676 28.1894 11.2535C27.8084 11.5393 27.3363 11.6764 26.8615 11.6391C26.3867 11.6017 25.9418 11.3925 25.6103 11.0506C25.2787 10.7087 25.0832 10.2576 25.0605 9.78184L20.9825 8.91543L19.7354 14.7874C22.3517 14.8307 24.898 15.6391 27.0603 17.1127C27.4465 16.7388 27.9343 16.4868 28.4628 16.3885C28.9913 16.2901 29.5371 16.3495 30.0321 16.5595C30.527 16.7694 30.9491 17.1205 31.2457 17.5689C31.5423 18.0172 31.7002 18.5431 31.6998 19.0807C31.6991 19.6101 31.5457 20.1282 31.2578 20.5726C30.97 21.017 30.5601 21.3689 30.0772 21.586H30.0789Z" fill="white"/>
<path d="M23.4869 19.0809C23.0997 19.0809 22.7212 19.1957 22.3993 19.4108C22.0774 19.6259 21.8265 19.9317 21.6783 20.2894C21.5302 20.6471 21.4914 21.0407 21.5669 21.4204C21.6424 21.8002 21.8289 22.149 22.1027 22.4228C22.3764 22.6965 22.7253 22.883 23.105 22.9585C23.4847 23.0341 23.8783 22.9953 24.2361 22.8471C24.5938 22.699 24.8995 22.448 25.1146 22.1261C25.3297 21.8042 25.4445 21.4257 25.4445 21.0385C25.4436 20.5196 25.2371 20.0222 24.8701 19.6553C24.5032 19.2884 24.0058 19.0818 23.4869 19.0809V19.0809Z" fill="white"/>
</svg>
