<svg width="38" height="38" viewBox="0 0 38 38" fill="none" xmlns="http://www.w3.org/2000/svg">
<path d="M37.9653 19.0815C37.9653 15.3665 36.8637 11.7348 34.7997 8.64588C32.7357 5.55692 29.8021 3.14937 26.3698 1.72768C22.9376 0.30599 19.1608 -0.0659891 15.5171 0.658783C11.8734 1.38356 8.52651 3.17253 5.89957 5.79947C3.27262 8.42641 1.48365 11.7733 0.758881 15.417C0.0341086 19.0607 0.406088 22.8375 1.82778 26.2697C3.24947 29.702 5.65702 32.6356 8.74598 34.6996C11.8349 36.7636 15.4666 37.8652 19.1816 37.8652C19.2919 37.8652 19.4021 37.8652 19.5115 37.8574V23.2422H15.4766V18.5389H19.5123V15.075C19.5123 11.0617 21.9634 8.8741 25.541 8.8741C26.7492 8.86854 27.9568 8.92978 29.1582 9.05754V13.2544H26.6951C24.7504 13.2544 24.3697 14.1785 24.3697 15.5367V18.5303H29.0291L28.4202 23.2336H24.3723V37.1392C28.2904 36.0115 31.7355 33.6401 34.1875 30.3827C36.6395 27.1253 37.9655 23.1587 37.9653 19.0815V19.0815Z" fill="white"/>
</svg>
