<svg width="33" height="38" viewBox="0 0 33 38" fill="none" xmlns="http://www.w3.org/2000/svg">
<path d="M0.66431 2.84642V16.9977C0.663477 17.1114 0.68505 17.2241 0.727797 17.3295C0.770544 17.4349 0.833627 17.5308 0.913446 17.6118C0.993264 17.6928 1.08825 17.7573 1.19299 17.8016C1.29773 17.8458 1.41016 17.8691 1.52387 17.8699H7.84421C7.99597 17.8671 8.14438 17.8248 8.27478 17.7472C8.40518 17.6695 8.51306 17.5591 8.58774 17.427C8.66243 17.2949 8.70134 17.1455 8.70063 16.9937C8.69992 16.842 8.65962 16.693 8.5837 16.5616L7.76837 15.1205C7.68692 14.9712 7.57619 14.8399 7.44279 14.7344C7.30939 14.6289 7.15608 14.5514 6.99203 14.5066C6.82798 14.4617 6.65657 14.4504 6.48805 14.4734C6.31954 14.4964 6.15739 14.5531 6.01132 14.6402L5.92283 14.6908C5.77515 14.7721 5.61268 14.8231 5.44499 14.8407C5.2773 14.8584 5.10778 14.8422 4.94641 14.7934C4.78504 14.7445 4.63508 14.6638 4.50535 14.5561C4.37563 14.4484 4.26876 14.3158 4.19105 14.1662C4.09877 14.008 4.04193 13.8318 4.02447 13.6495C4.00701 13.4673 4.02935 13.2834 4.08994 13.1107L5.40457 9.09724C5.49722 8.79486 5.69984 8.53818 5.97247 8.37788C6.2451 8.21758 6.56791 8.1653 6.8772 8.23136L10.9538 9.10989C11.1322 9.14789 11.3003 9.22405 11.4465 9.33315C11.5927 9.44225 11.7136 9.5817 11.8008 9.74192C11.9716 10.0374 12.019 10.3883 11.9326 10.7185C11.8462 11.0486 11.633 11.3314 11.3394 11.5053L11.2509 11.5559C10.9534 11.7325 10.737 12.0188 10.6484 12.3533C10.5597 12.6878 10.6059 13.0437 10.7769 13.3445L11.5859 14.7729C11.6602 14.9044 11.7682 15.0137 11.8987 15.0898C12.0291 15.1659 12.1775 15.206 12.3285 15.206C12.4795 15.206 12.6279 15.1659 12.7584 15.0898C12.8888 15.0137 12.9968 14.9044 13.0711 14.7729L16.2313 9.25525C16.3474 9.05444 16.38 8.81608 16.322 8.59149C16.2641 8.36689 16.1203 8.17402 15.9216 8.05439L3.87504 0.95664C3.54688 0.767865 3.17457 0.669407 2.79599 0.671291C2.41741 0.673175 2.0461 0.775333 1.71984 0.967364C1.39357 1.1594 1.12402 1.43445 0.938607 1.76452C0.753196 2.09458 0.658557 2.46789 0.66431 2.84642Z" fill="#34C88A"/>
<path d="M31.7484 17.3259L19.7398 10.2724C19.6424 10.2145 19.5344 10.1768 19.4221 10.1617C19.3098 10.1465 19.1957 10.1543 19.0865 10.1844C18.9772 10.2145 18.8752 10.2664 18.7866 10.3369C18.6979 10.4074 18.6244 10.4951 18.5705 10.5947L15.4103 16.1883C15.334 16.3192 15.2934 16.4679 15.2925 16.6195C15.2916 16.7711 15.3306 16.9202 15.4054 17.052C15.4803 17.1838 15.5885 17.2937 15.7191 17.3706C15.8497 17.4475 15.9983 17.4887 16.1498 17.4902H18.2229C18.3387 17.4928 18.4539 17.4721 18.5616 17.4293C18.6692 17.3865 18.7672 17.3226 18.8497 17.2412C18.9323 17.1599 18.9976 17.0628 19.0419 16.9558C19.0862 16.8487 19.1086 16.7339 19.1078 16.618V15.6573C19.1075 15.4358 19.1929 15.2227 19.346 15.0626C19.499 14.9024 19.7081 14.8075 19.9294 14.7978H20.5298C20.6502 14.7999 20.7687 14.8275 20.8776 14.8787C20.9866 14.9299 21.0834 15.0035 21.1619 15.0948L24.2904 18.6911C24.428 18.8524 24.5036 19.0574 24.5036 19.2694C24.5036 19.4814 24.428 19.6864 24.2904 19.8477L21.1619 23.444C21.0834 23.5353 20.9866 23.609 20.8776 23.6602C20.7687 23.7114 20.6502 23.7389 20.5298 23.7411H19.9294C19.7036 23.7312 19.4908 23.6328 19.337 23.4672C19.1833 23.3016 19.1009 23.0821 19.1078 22.8562V21.8955C19.1086 21.7818 19.087 21.6691 19.0443 21.5637C19.0015 21.4583 18.9384 21.3624 18.8586 21.2814C18.7788 21.2004 18.6838 21.1359 18.5791 21.0916C18.4743 21.0474 18.3619 21.0241 18.2482 21.0233H16.2004C16.0486 21.0261 15.9002 21.0684 15.7698 21.146C15.6394 21.2237 15.5316 21.3341 15.4569 21.4662C15.3822 21.5983 15.3433 21.7477 15.344 21.8995C15.3447 22.0512 15.385 22.2002 15.4609 22.3316L18.5768 27.8809C18.6314 27.9799 18.7052 28.067 18.794 28.137C18.8827 28.207 18.9845 28.2586 19.0935 28.2886C19.2025 28.3186 19.3164 28.3266 19.4284 28.3119C19.5405 28.2972 19.6485 28.2603 19.7461 28.2032L31.7484 21.1181C32.0788 20.9239 32.3526 20.6468 32.5429 20.3143C32.7331 19.9817 32.8332 19.6052 32.8332 19.222C32.8332 18.8389 32.7331 18.4623 32.5429 18.1298C32.3526 17.7972 32.0788 17.5201 31.7484 17.3259Z" fill="#34C88A"/>
<path d="M3.86968 37.4884L15.9479 30.4159C16.1466 30.2963 16.2904 30.1034 16.3483 29.8788C16.4062 29.6542 16.3736 29.4159 16.2576 29.2151L13.0974 23.6532C13.023 23.5217 12.9151 23.4123 12.7846 23.3362C12.6541 23.2601 12.5058 23.2201 12.3547 23.2201C12.2037 23.2201 12.0554 23.2601 11.9249 23.3362C11.7944 23.4123 11.6865 23.5217 11.6121 23.6532L10.5756 25.4734C10.462 25.6744 10.4315 25.9118 10.4905 26.135C10.5496 26.3582 10.6935 26.5494 10.8916 26.668L11.7069 27.1483C11.9045 27.2657 12.0483 27.4558 12.1074 27.6779C12.1665 27.9001 12.1362 28.1365 12.0229 28.3365L11.7259 28.8674C11.6643 28.9732 11.5814 29.0649 11.4823 29.1368C11.3833 29.2086 11.2703 29.2589 11.1507 29.2846L6.46734 30.2516C6.2618 30.2942 6.04779 30.2589 5.86678 30.1526C5.68578 30.0464 5.55067 29.8767 5.48768 29.6764L3.98345 25.1132C3.94546 24.9954 3.93258 24.871 3.94564 24.748C3.95871 24.625 3.99742 24.5061 4.05929 24.399L4.35634 23.8744C4.4109 23.7754 4.48472 23.6883 4.57345 23.6183C4.66219 23.5483 4.76404 23.4967 4.87301 23.4667C4.98198 23.4366 5.09586 23.4287 5.20794 23.4434C5.32002 23.458 5.42803 23.495 5.5256 23.552L6.34725 24.0324C6.44445 24.0897 6.55212 24.127 6.66393 24.1421C6.77575 24.1572 6.88945 24.1499 6.99838 24.1204C7.1073 24.091 7.20926 24.0401 7.29823 23.9707C7.38721 23.9013 7.46142 23.8148 7.51652 23.7164L8.54041 21.9151C8.61591 21.7832 8.65589 21.6339 8.65646 21.4819C8.65702 21.33 8.61815 21.1804 8.54364 21.048C8.46913 20.9155 8.36153 20.8046 8.23135 20.7262C8.10117 20.6477 7.95286 20.6044 7.80093 20.6004H1.51851C1.4048 20.6013 1.29237 20.6245 1.18763 20.6688C1.08289 20.713 0.987893 20.7775 0.908074 20.8585C0.828256 20.9395 0.765173 21.0354 0.722426 21.1408C0.679679 21.2462 0.658106 21.3589 0.658939 21.4726V35.5986C0.653186 35.9771 0.747834 36.3505 0.933245 36.6805C1.11866 37.0106 1.38821 37.2856 1.71447 37.4777C2.04074 37.6697 2.41205 37.7719 2.79063 37.7737C3.1692 37.7756 3.54152 37.6772 3.86968 37.4884Z" fill="#163F59"/>
</svg>
