<svg width="31" height="30" viewBox="0 0 31 30" fill="none" xmlns="http://www.w3.org/2000/svg">
<path d="M14.9459 30.0006C6.55127 29.945 -0.0547805 23.1905 0.00479431 14.7051C0.0616612 6.55306 6.89382 -0.0699287 15.1815 0.000557451C23.4164 0.0669771 30.0752 6.87161 30.0034 15.1456C29.9276 23.3627 23.1456 30.0534 14.9459 30.0006ZM21.2879 10.5491C21.2785 8.02378 20.1276 6.22096 18.0262 5.54727C15.589 4.7665 13.2358 5.04574 11.1507 6.56797C10.4756 7.0876 9.92741 7.75415 9.5476 8.51719C8.96268 9.66259 9.68301 10.747 10.9449 10.8093C11.6855 10.8459 12.2312 10.4569 12.6347 9.86049C13.4606 8.64053 14.6589 8.36943 16.0196 8.51176C16.7115 8.58224 17.2991 8.84522 17.5428 9.55279C17.8055 10.3146 17.7175 11.0438 17.1014 11.6091C16.5598 12.112 15.9763 12.581 15.3914 13.0405C14.7222 13.5441 14.1722 14.1893 13.7809 14.9302C13.3896 15.6711 13.1665 16.4894 13.1275 17.3266C13.0544 18.411 13.6962 19.1714 14.7523 19.2433C15.8084 19.3151 16.6722 18.5411 16.6479 17.4933C16.6208 16.4916 17.0378 15.7515 17.7798 15.1592C18.2916 14.7525 18.8372 14.3906 19.3612 13.9988C20.5514 13.1042 21.3583 11.9954 21.2839 10.5491H21.2879ZM16.8821 22.9411C16.8929 21.6547 16.1212 20.8604 14.8593 20.8563C13.573 20.8563 12.7525 21.6235 12.7321 22.8557C12.7105 24.1489 13.5039 24.9554 14.8078 24.9662C16.1117 24.9771 16.8672 24.2288 16.878 22.9411H16.8821Z" fill="#ADCA46"/>
</svg>
