<svg width="134" height="46" viewBox="0 0 134 46" fill="none" xmlns="http://www.w3.org/2000/svg">
<path d="M10.3635 33.0497C10.3584 32.7879 10.4249 32.5298 10.5558 32.3032C10.5971 32.2497 10.6195 32.1841 10.6195 32.1165C10.6195 32.049 10.5971 31.9834 10.5558 31.9299C10.2714 31.4707 10.0578 30.9711 9.9224 30.4482C9.81773 30.0126 9.74216 29.5705 9.69619 29.1249C9.64776 28.4654 9.65912 27.8029 9.73012 27.1455C9.55009 27.8454 9.29606 28.5241 8.97231 29.1701C8.7454 29.6246 8.46437 30.0499 8.13532 30.4369C7.9799 30.6488 7.793 30.8357 7.5811 30.9911C7.53378 31.021 7.49525 31.063 7.46942 31.1127C7.44359 31.1623 7.43139 31.218 7.43406 31.2739C7.39095 32.1881 7.18806 33.0877 6.8346 33.9319C6.51758 34.7145 6.13939 35.4708 5.70354 36.194C5.51126 36.5107 5.2398 36.7822 5.04752 37.0875C4.74213 37.5965 4.2784 37.9585 3.91646 38.4335C3.55452 38.9086 3.44141 38.7954 3.16996 38.4335C2.8985 38.0716 2.62705 37.7096 2.38952 37.3024C2.152 36.8953 2.00496 36.6125 1.81268 36.2732C1.45727 35.6336 1.16919 34.9589 0.953075 34.2599C0.757346 33.6453 0.624705 33.0124 0.557203 32.371C0.478118 31.638 0.478118 30.8985 0.557203 30.1654C0.557203 29.8148 0.376233 29.5434 0.297059 29.238C0.176389 28.7512 0.0932006 28.2558 0.0482251 27.7563C-0.0469801 27.0003 -0.000957214 26.2333 0.183953 25.4942C0.389672 24.5164 0.900583 23.6292 1.64302 22.9606C1.88055 22.7457 2.17462 22.6665 2.38952 22.4516C2.60443 22.2367 2.51394 22.3385 2.48001 22.248C2.32249 21.8294 2.21984 21.3922 2.17462 20.9473C2.14054 20.5521 2.14054 20.1548 2.17462 19.7597C2.166 19.2024 2.21145 18.6455 2.31035 18.097C2.44083 17.5868 2.61101 17.0876 2.81933 16.604C3.11205 15.9485 3.49256 15.3359 3.95039 14.783C4.3088 14.3483 4.72781 13.9674 5.19456 13.6519C5.64683 13.353 6.1377 13.1171 6.65363 12.9507C7.02064 12.8375 7.40089 12.7728 7.78469 12.7584C8.40269 12.7176 9.02304 12.7865 9.61701 12.962C10.1362 13.0817 10.6352 13.276 11.0987 13.5388C11.3938 13.6827 11.6774 13.8491 11.947 14.0365C12.0714 14.1383 12.1619 14.0365 12.2637 13.9799C12.5198 13.6824 12.7997 13.4063 13.1007 13.1543C13.6919 12.7066 14.376 12.3974 15.1027 12.2494C15.6574 12.1647 16.2219 12.1647 16.7766 12.2494C17.2622 12.3295 17.7367 12.4661 18.1905 12.6566C19.0363 12.9937 19.8056 13.4976 20.4526 14.1383C20.7826 14.4438 21.0682 14.794 21.3009 15.1789C21.6155 15.6479 21.8808 16.1483 22.0926 16.6719C22.2673 17.1479 22.3923 17.6406 22.4659 18.1423C22.579 18.8314 22.579 19.5343 22.4659 20.2234C22.3699 20.7593 22.2144 21.2829 22.0021 21.7843C21.8207 22.2548 21.5854 22.7026 21.3009 23.1189C21.2217 23.2207 21.3009 23.2773 21.3009 23.3451C21.5158 23.7297 21.7872 24.0803 21.9795 24.4762C22.2022 24.9356 22.3875 25.4122 22.5337 25.9013C22.7244 26.5357 22.816 27.1957 22.8052 27.8581C22.8091 28.5587 22.7101 29.2561 22.5111 29.9279C22.3688 30.5431 22.1282 31.1312 21.7986 31.6698C21.414 32.19 21.6515 32.6538 21.742 33.1401C21.817 33.566 21.8586 33.9972 21.8664 34.4296C21.8745 35.0247 21.8022 35.6182 21.6515 36.194C21.5288 36.7147 21.3662 37.2252 21.1652 37.7209C20.8461 38.4699 20.4679 39.1923 20.0341 39.8813C19.8012 40.1775 19.548 40.4572 19.2763 40.7183C18.899 41.1898 18.4787 41.6252 18.0208 42.019C17.7041 42.2904 17.3987 42.5506 17.0707 42.7994C16.4034 43.2858 15.6569 43.6703 14.9896 44.1567C14.4495 44.5004 13.932 44.8782 13.44 45.2877C13.3212 45.375 13.192 45.4471 13.0554 45.5026C12.9763 45.5026 12.8632 45.4235 12.7953 45.333C12.7274 45.2425 12.6369 45.0389 12.5691 44.8919C12.5012 44.7448 12.5691 44.8127 12.6369 44.8014C12.6869 44.8053 12.7353 44.8205 12.7784 44.846C12.8216 44.8715 12.8583 44.9065 12.8858 44.9484C12.9876 45.1633 13.112 45.186 13.3043 45.0389C13.8811 44.6091 14.4353 44.2019 15.0687 43.7947C15.7021 43.3876 16.098 43.1614 16.5957 42.822C17.2692 42.3535 17.8978 41.8234 18.4732 41.2385C19.0428 40.6341 19.5611 39.9834 20.0228 39.2931C20.5707 38.4473 20.99 37.5249 21.267 36.5559C21.6029 35.5086 21.6957 34.3984 21.5384 33.3098C21.5384 33.1062 21.4479 32.9026 21.414 32.699C21.3801 32.4954 21.3122 32.5294 21.1991 32.699C21.086 32.8687 20.905 33.061 20.7354 33.2306C20.6808 33.2965 20.6202 33.3571 20.5544 33.4116C20.4752 33.4681 20.3847 33.5699 20.2829 33.4116C20.1811 33.2532 20.2829 33.2419 20.2829 33.1514C20.2829 33.061 20.6109 32.8234 20.758 32.6312C21.6037 31.5581 22.1675 30.2906 22.398 28.9439C22.5934 27.6408 22.4533 26.3095 21.9908 25.0757C21.8102 24.5749 21.5588 24.1026 21.2443 23.6731C21.1425 23.5374 21.0747 23.5261 20.9729 23.6731C20.7969 23.9167 20.6081 24.1508 20.4073 24.3744C20.3282 24.4649 20.2377 24.5893 20.102 24.4762C19.9662 24.3631 20.0341 24.25 20.102 24.1482C20.5291 23.5977 20.9075 23.0111 21.233 22.395C21.7017 21.521 21.9974 20.5647 22.1039 19.5787C22.221 18.5975 22.0927 17.6026 21.7307 16.6832C21.1766 15.2294 20.1162 14.0245 18.7447 13.29C18.1429 12.9275 17.473 12.6927 16.7766 12.6C16.0162 12.4921 15.241 12.5657 14.5145 12.8149C13.2978 13.3214 12.3193 14.2716 11.7773 15.4729C11.5856 15.884 11.4451 16.317 11.3588 16.7624C11.1569 17.254 11.0531 17.7804 11.0535 18.3119C11.0654 19.1334 11.2263 19.9458 11.5285 20.7098C11.8319 21.4407 12.2354 22.1259 12.7274 22.7457C12.8066 22.8362 12.8745 22.938 12.7274 23.0511C12.5804 23.1642 12.5012 23.1076 12.3994 23.0511C12.3117 22.9631 12.2357 22.8643 12.1732 22.757C11.9922 22.5082 11.9018 22.5195 11.7434 22.757C10.985 24.0072 10.4421 25.376 10.1373 26.8062C9.90555 27.8987 9.90555 29.0277 10.1373 30.1202C10.2948 30.8816 10.6236 31.5972 11.0987 32.2127C11.2231 32.3823 11.4041 32.4954 11.5285 32.6651C11.6529 32.8348 11.6642 32.8574 11.5285 32.9592C11.3928 33.061 11.3249 32.9592 11.2457 32.9026L10.9743 32.6085C10.7707 32.4163 10.7481 32.4163 10.6576 32.699C10.6621 32.7366 10.6621 32.7746 10.6576 32.8121C10.5332 32.8913 10.5445 33.0723 10.3635 33.0497Z" fill="#244B0B"/>
<path d="M14.5253 12.2494C14.099 11.511 13.7935 10.7091 13.6205 9.87417C13.2294 8.2804 13.2294 6.61569 13.6205 5.02192C13.8358 4.23098 14.1513 3.47078 14.5593 2.75979C14.7487 2.45559 14.9685 2.17138 15.2153 1.9115C15.529 1.5671 15.8778 1.25627 16.2559 0.984024C16.5027 0.805053 16.7681 0.653359 17.0476 0.531599C17.3869 0.373251 17.7376 0.248834 18.0769 0.113106C18.2838 0.0546661 18.4959 0.0167805 18.7103 0C18.8347 0 18.846 0.0791744 18.7894 0.169659C18.4717 0.776417 18.225 1.41783 18.0543 2.08115C17.9595 2.45231 17.8952 2.83059 17.862 3.21222C17.7828 3.72119 17.7036 4.23017 17.6358 4.75046C17.5679 5.27075 17.4435 5.88152 17.3417 6.51492C17.2371 7.19601 17.0705 7.86613 16.844 8.5169C16.5682 9.30736 16.2079 10.0658 15.7695 10.779C15.5887 11.0698 15.3804 11.3425 15.1474 11.5934C14.9617 11.8316 14.7534 12.0513 14.5253 12.2494Z" fill="#020302"/>
<path d="M25.4181 7.8269C25.497 8.58096 25.4703 9.34233 25.3389 10.089C25.3065 10.5414 25.1836 10.9827 24.9777 11.3867C24.7718 11.7908 24.4869 12.1495 24.14 12.4416C23.6358 12.7965 23.0464 13.0112 22.4321 13.0637C21.8741 13.1185 21.3112 13.0995 20.7581 13.0072C20.2296 12.9204 19.7079 12.7956 19.1973 12.6339C18.5526 12.4643 17.9192 12.2494 17.2858 12.0684C16.9917 11.9779 16.7202 11.8422 16.4148 11.7743C16.3357 11.7743 16.3357 11.7064 16.4148 11.6273C16.5485 11.3618 16.7332 11.1253 16.9583 10.9312C17.1834 10.7371 17.4446 10.5893 17.7269 10.4962C18.2784 10.3106 18.8534 10.2039 19.4348 10.1795C19.9438 10.1795 20.4527 10.1003 20.9504 10.0325C21.5156 9.99359 22.0647 9.82732 22.5565 9.54612C22.8788 9.311 23.1815 9.04999 23.4614 8.76569C23.9748 8.2211 24.6721 7.88655 25.4181 7.8269Z" fill="#040503"/>
<path d="M6.68742 5.34991C6.93111 5.74327 7.22799 6.10105 7.56965 6.41311C8.06797 6.80625 8.59756 7.15805 9.15313 7.465L10.4652 8.13233C10.9445 8.41327 11.4089 8.71907 11.8564 9.04849C12.2309 9.32149 12.5659 9.64503 12.8517 10.0099C13.0091 10.2062 13.1315 10.4281 13.2136 10.6659C13.4122 11.0866 13.5127 11.5468 13.5077 12.0119C13.5077 12.0684 13.5077 12.1589 13.4399 12.1702C13.372 12.1815 13.3381 12.1702 13.2928 12.1137C12.7911 11.7298 12.1709 11.5337 11.5397 11.5594C10.943 11.5566 10.3494 11.4729 9.77522 11.3106C9.42995 11.1799 9.10886 10.9926 8.82513 10.7564C8.30291 10.3381 7.85215 9.83764 7.49047 9.2747C7.19094 8.80743 6.94795 8.30626 6.76659 7.7817C6.57171 7.18362 6.48739 6.55505 6.51776 5.92676C6.50519 5.82412 6.51375 5.71999 6.54293 5.62079C6.57211 5.52159 6.62128 5.4294 6.68742 5.34991Z" fill="#030402"/>
<path d="M12.6826 44.7675L12.6034 44.8353C12.3531 44.4816 12.1408 44.1025 11.97 43.7043C11.6662 43.0495 11.4018 42.3773 11.1783 41.691C11.0427 41.2598 10.9294 40.8218 10.839 40.3789C10.7372 39.9039 10.6127 39.4402 10.5562 38.9651C10.4996 38.4901 10.4205 37.834 10.4091 37.3364C10.3978 36.8387 10.3074 36.1035 10.296 35.4814C10.2847 34.8593 10.296 34.5879 10.296 34.1355C10.2942 33.7574 10.3169 33.3796 10.3639 33.0044C10.5109 33.0044 10.4544 32.8121 10.5562 32.7443C10.6467 32.8574 10.5562 32.9818 10.5562 33.0949C10.5562 34.1015 10.5562 35.1195 10.5562 36.1261C10.5562 36.8726 10.6354 37.6191 10.7258 38.3883C10.8743 39.5675 11.1473 40.7276 11.5402 41.8493C11.7777 42.5506 12.0718 43.2405 12.3772 43.9192C12.3772 44.0323 12.5129 44.1227 12.5695 44.2359C12.626 44.349 12.7618 44.5639 12.6826 44.7675Z" fill="#486914"/>
<path d="M43.4698 13.7877C42.1245 13.6447 40.7709 13.9682 39.6355 14.7038C39.2449 14.9557 38.891 15.2602 38.5836 15.6087C38.0672 16.251 37.6828 16.989 37.4525 17.7803C37.2739 18.3062 37.1452 18.8477 37.068 19.3977C36.9664 19.9577 36.9895 20.5331 37.1358 21.083C37.215 21.3092 37.2829 21.5241 37.3507 21.7503C37.6078 22.4293 38.0003 23.0489 38.5044 23.5714C38.8438 23.9333 39.2208 24.2839 39.6355 24.6232C40.0653 25.0078 40.563 25.3132 41.0154 25.6525C41.4678 25.9918 42.2143 26.4556 42.8138 26.8401C43.3968 27.2036 43.956 27.604 44.4878 28.0391C44.9605 28.4064 45.403 28.8111 45.8111 29.2493C46.2424 29.7239 46.6215 30.2434 46.9422 30.7988C47.0706 31.0295 47.1767 31.2719 47.2589 31.5227C47.5541 32.5085 47.6313 33.5467 47.4851 34.5653C47.3617 35.3887 46.9954 36.1567 46.4332 36.7709C45.8979 37.3695 45.2269 37.8311 44.4764 38.1168C43.6736 38.405 42.8295 38.5616 41.9768 38.5806C40.798 38.6108 39.6307 38.3423 38.5836 37.8001C38.1175 37.5613 37.6934 37.248 37.3281 36.8727C37.2694 36.8103 37.2051 36.7535 37.1358 36.703C37.0303 36.6267 36.9531 36.5176 36.9163 36.3928C36.8794 36.2679 36.8851 36.1344 36.9323 36.013C37.0366 35.7544 37.1124 35.4851 37.1585 35.21C37.1384 35.1636 37.1344 35.1119 37.1472 35.063C37.2037 35.063 37.2376 35.063 37.2716 35.1421C37.9253 35.8182 38.6905 36.3768 39.5337 36.7935C40.0046 37.0461 40.5065 37.2363 41.0267 37.359C41.5743 37.5114 42.1531 37.5114 42.7007 37.359C42.893 37.2911 43.0965 37.2572 43.2888 37.2007C43.9274 37.0095 44.4844 36.6116 44.8723 36.0696C45.2782 35.5413 45.5147 34.9025 45.5509 34.2373C45.5961 33.8313 45.5961 33.4217 45.5509 33.0157C45.4453 32.3584 45.1322 31.752 44.6574 31.2852C43.9936 30.5931 43.2666 29.9645 42.4858 29.4076C41.8071 28.91 41.1059 28.4575 40.4272 27.9712C39.7486 27.4848 39.2962 27.1455 38.6967 26.7044C38.1369 26.2822 37.6042 25.8251 37.1019 25.3358C36.7735 25.03 36.4673 24.7012 36.1858 24.3518C35.9369 24.0238 35.6994 23.6732 35.4393 23.3451C35.291 23.1235 35.1801 22.8789 35.1112 22.6213C34.8797 22.0059 34.7277 21.3636 34.6588 20.7098C34.598 19.8379 34.6628 18.9618 34.8511 18.1083C34.9883 17.4295 35.2408 16.7791 35.5976 16.1855C36.0132 15.4435 36.5659 14.7872 37.2263 14.2514C37.7385 13.8472 38.292 13.4983 38.8777 13.2108C39.6403 12.8516 40.4463 12.5931 41.2755 12.4417C41.8378 12.3623 42.4044 12.317 42.9721 12.306C43.5505 12.2793 44.1302 12.3097 44.7027 12.3965C45.2061 12.4728 45.6993 12.6056 46.173 12.7923C46.705 12.9642 47.2111 13.2077 47.6773 13.5162C48.1645 13.8621 48.6054 14.2688 48.9894 14.7265C49.4673 15.3407 49.8173 16.0445 50.0186 16.7963C50.1469 17.2263 50.2192 17.6711 50.2335 18.1196C50.2335 18.5268 50.2335 18.9227 50.2335 19.3299C50.238 19.4232 50.2198 19.5162 50.1804 19.6009C50.141 19.6857 50.0816 19.7595 50.0073 19.8162C49.561 20.1416 49.053 20.3726 48.5143 20.4949C48.3673 20.4949 48.2542 20.608 48.1072 20.5967C47.9601 20.5854 47.7565 20.4949 47.8244 20.246C47.9767 19.7577 48.0679 19.2525 48.0958 18.7417C48.101 18.2924 48.0323 17.8453 47.8922 17.4184C47.7104 16.8401 47.4185 16.3024 47.0326 15.8349C46.7183 15.4 46.3365 15.0181 45.9016 14.7038C45.4417 14.3843 44.9339 14.14 44.3973 13.9799C44.0957 13.8836 43.7848 13.8191 43.4698 13.7877Z" fill="black"/>
<path d="M67.4259 37.2572C66.6115 37.1328 66.2948 36.4541 66.4079 35.4814C66.4177 35.301 66.4706 35.1256 66.5622 34.9698C66.6537 34.8141 66.7813 34.6825 66.9341 34.5861C67.0869 34.4898 67.2606 34.4314 67.4407 34.416C67.6207 34.4006 67.8018 34.4285 67.9688 34.4974C68.7718 34.6444 69.0998 35.1873 68.9415 36.2392C68.9165 36.4094 68.8563 36.5724 68.7646 36.7178C68.6729 36.8633 68.5518 36.9879 68.4091 37.0838C68.2663 37.1797 68.1051 37.2446 67.9358 37.2745C67.7665 37.3043 67.5928 37.2984 67.4259 37.2572Z" fill="black"/>
<path d="M79.9573 31.8847C79.9573 32.3032 79.8782 32.7103 79.8782 33.1288C79.8724 33.5074 79.8422 33.8852 79.7877 34.2599C79.7877 34.6784 79.7877 35.1082 79.7085 35.538C79.6293 35.9678 79.6293 36.3071 79.6067 36.6691C79.6067 37.2459 79.4823 37.8001 79.5049 38.377C79.5049 38.7502 79.2787 38.8973 78.8376 38.7955C78.694 38.7639 78.5538 38.7185 78.4191 38.6597C78.3013 38.6158 78.201 38.5345 78.1337 38.4284C78.0663 38.3222 78.0354 38.1969 78.0458 38.0716C78.0458 37.3138 78.125 36.5446 78.1137 35.8095C78.1137 35.4475 78.1137 35.0856 78.1137 34.6784C78.1137 34.0789 78.1137 33.4795 78.1703 32.88C78.2268 32.2805 78.1703 31.7489 78.2381 31.2287C78.2381 30.4708 78.306 29.713 78.306 28.9665C78.306 28.22 78.3738 27.5188 78.4078 26.7949C78.4078 26.6139 78.4078 26.4216 78.4078 26.2407C78.4078 26.0597 78.4078 26.0145 78.1816 26.0484C77.2654 26.2407 76.3379 26.3877 75.4331 26.6026C75.1358 26.6378 74.852 26.7467 74.6074 26.9193C74.5395 26.9193 74.4943 26.9193 74.4604 26.9193C74.2572 26.569 74.1157 26.1864 74.0419 25.7882C73.974 25.5168 74.2455 25.3698 74.4491 25.2906C74.9314 25.089 75.4264 24.919 75.9308 24.7816C76.6773 24.5893 77.4238 24.397 78.1929 24.25C78.3625 24.25 78.5096 24.1369 78.4983 23.922C78.4983 23.5148 78.4983 23.1189 78.4983 22.7118C78.4983 22.3046 78.4983 21.9087 78.4983 21.5128C78.4983 21.117 78.4983 20.7324 78.4983 20.3818C78.4983 20.0311 78.4983 19.5674 78.4983 19.1602C78.4983 18.753 78.4983 18.2893 78.4983 17.8595C78.4983 17.4297 78.4983 17.1017 78.4983 16.7284C78.4958 16.6807 78.5041 16.633 78.5227 16.589C78.5413 16.5449 78.5696 16.5056 78.6055 16.4741C78.6414 16.4425 78.684 16.4195 78.7301 16.4067C78.7761 16.394 78.8245 16.3918 78.8715 16.4004C79.4191 16.3681 79.9663 16.469 80.4663 16.6945C80.5804 16.7264 80.6784 16.7998 80.7412 16.9002C80.8039 17.0006 80.8269 17.1209 80.8056 17.2374C80.7491 18.097 80.6473 18.9566 80.6134 19.8275C80.6134 20.2008 80.6134 20.574 80.5229 20.9586C80.5229 21.5354 80.4098 22.0897 80.3985 22.7004C80.3985 22.9606 80.3419 23.2207 80.3193 23.4809C80.2967 23.741 80.3193 23.8315 80.6473 23.7523C81.1313 23.6288 81.6223 23.5344 82.1177 23.4696C82.5362 23.4017 82.9546 23.2773 83.3731 23.2207L84.8775 22.9832C85.3186 22.904 85.7823 22.8588 86.2234 22.757C86.4383 22.757 86.4836 22.8362 86.4496 22.9493C86.3077 23.648 86.0394 24.3149 85.6579 24.9173C85.6282 24.9622 85.5879 24.9991 85.5405 25.0248C85.4932 25.0504 85.4403 25.064 85.3864 25.0644C84.5608 25.1322 83.7464 25.2114 82.9207 25.3245C82.095 25.4376 81.3712 25.562 80.5907 25.6751C80.4324 25.6751 80.4098 25.7769 80.3985 25.9127C80.3985 26.4669 80.3193 27.0437 80.2853 27.5753C80.2514 28.1069 80.1949 28.7064 80.1609 29.3398C80.1609 29.7243 80.1609 30.0976 80.0704 30.4708C80.0191 30.8459 79.9889 31.2235 79.98 31.6019C79.9804 31.6966 79.9728 31.7912 79.9573 31.8847Z" fill="black"/>
<path d="M93.2247 13.2786C93.3671 13.3014 93.5122 13.3014 93.6545 13.2786C93.9486 13.2786 93.9825 13.5048 93.9938 13.7084C93.9938 14.3418 93.9938 14.9752 93.9938 15.6086C93.9938 15.7443 93.9033 15.7443 93.8015 15.7217C93.1251 15.5219 92.4255 15.4117 91.7204 15.3937C90.8608 15.3145 90.0012 15.2919 89.1416 15.2806H87.4563C86.8794 15.2806 86.3252 15.3371 85.7031 15.3371C85.3299 15.3371 84.9566 15.3371 84.5721 15.3371C84.1875 15.3371 83.6785 15.3937 83.2261 15.4276L81.9706 15.5181L80.1836 15.6991L78.8489 15.8461L77.5595 16.0271L76.2927 16.2194C75.829 16.2985 75.3652 16.3777 74.9015 16.4795C74.4378 16.5813 74.155 16.6492 73.7704 16.717C73.0791 16.8758 72.399 17.0798 71.7345 17.3278C71.5732 17.4177 71.4025 17.4897 71.2255 17.5427C71.1124 17.5427 71.0559 17.7689 70.8975 17.6445C70.7392 17.5201 70.4338 17.3957 70.3546 17.1129C70.3364 17.077 70.3264 17.0376 70.3253 16.9974C70.3242 16.9572 70.3321 16.9172 70.3483 16.8804C70.3645 16.8436 70.3887 16.8109 70.4192 16.7846C70.4496 16.7583 70.4855 16.7391 70.5243 16.7283C71.3908 16.3214 72.2824 15.97 73.1936 15.6764C73.9288 15.4502 74.6753 15.258 75.4557 15.0657C76.2361 14.8734 76.9035 14.7603 77.6274 14.5906C78.3512 14.421 79.1769 14.3079 79.946 14.1608C80.7152 14.0138 81.473 13.9799 82.2082 13.8667C83.3392 13.6971 84.4703 13.6179 85.6013 13.5048C86.5288 13.4143 87.4563 13.3917 88.3838 13.3238C89.3112 13.256 90.4988 13.222 91.5507 13.1881C92.105 13.2334 92.6592 13.2673 93.2247 13.2786Z" fill="black"/>
<path d="M87.1399 21.9879C87.1592 21.7197 87.2323 21.4581 87.3548 21.2187C87.4086 21.0478 87.5022 20.8921 87.628 20.7645C87.7538 20.6369 87.908 20.5409 88.0781 20.4846C88.2482 20.4283 88.4293 20.4132 88.6064 20.4405C88.7834 20.4678 88.9515 20.5369 89.0967 20.6419C89.3231 20.7998 89.4934 21.0255 89.583 21.2866C89.7487 21.6396 89.8101 22.0326 89.76 22.4193C89.7099 22.806 89.5504 23.1704 89.3003 23.4696C89.1945 23.5826 89.0666 23.6726 88.9246 23.7342C88.7825 23.7958 88.6294 23.8276 88.4746 23.8276C88.3198 23.8276 88.1666 23.7958 88.0246 23.7342C87.8826 23.6726 87.7547 23.5826 87.6489 23.4696C87.4704 23.2684 87.3335 23.0339 87.2462 22.7796C87.1588 22.5253 87.1227 22.2562 87.1399 21.9879Z" fill="black"/>
<path d="M133.118 31.1721C132.96 31.1721 132.7 31.059 132.643 31.3304C132.522 31.9156 132.356 32.4904 132.145 33.0497C131.828 33.9523 131.341 34.7855 130.709 35.5041C130.387 35.8723 129.954 36.1263 129.476 36.2279C129.281 36.2903 129.072 36.2903 128.877 36.2279C128.488 36.0329 128.189 35.6972 128.04 35.2892C127.927 35.0177 127.96 34.9612 128.277 34.9612C128.569 34.9682 128.859 34.9103 129.125 34.7915C129.556 34.6005 129.944 34.3263 130.269 33.9847C130.593 33.643 130.846 33.2407 131.014 32.8008C131.398 31.885 131.583 30.898 131.557 29.9053C131.589 29.0081 131.447 28.1132 131.139 27.2699C130.965 26.8611 130.733 26.48 130.449 26.1389C130.215 25.8558 129.898 25.6533 129.543 25.5599C129.188 25.4666 128.812 25.4871 128.469 25.6186C128.106 25.7457 127.774 25.9486 127.495 26.2138C127.216 26.479 126.997 26.8004 126.852 27.1568C126.531 27.7642 126.302 28.4161 126.173 29.0909C126.072 29.6678 125.958 30.222 125.902 30.8215C125.877 31.3367 125.802 31.8482 125.676 32.3484C125.518 32.8567 125.321 33.3521 125.088 33.8301C124.754 34.7588 124.127 35.5532 123.3 36.0922C122.622 36.4768 122.169 36.4994 121.706 36.013C121.245 35.4817 120.971 34.8144 120.925 34.1129C120.801 33.1328 120.801 32.1409 120.925 31.1608C120.993 30.4595 121.084 29.7583 121.208 29.057C121.332 28.2544 121.549 27.4688 121.853 26.7157C121.878 26.6498 121.919 26.5908 121.971 26.5434C122.024 26.496 122.087 26.4616 122.155 26.4429C122.223 26.4242 122.295 26.4218 122.364 26.4358C122.433 26.4497 122.498 26.4798 122.554 26.5234C122.844 26.7534 123.044 27.0775 123.119 27.4396C123.258 27.8676 123.334 28.3133 123.346 28.7629C123.393 29.5264 123.305 30.2922 123.086 31.0251C123.045 31.0976 123.024 31.1794 123.024 31.2626C123.024 31.3457 123.045 31.4275 123.086 31.5001C123.125 31.5493 123.18 31.5838 123.242 31.5982C123.303 31.6125 123.368 31.6059 123.425 31.5793C123.713 31.4645 123.96 31.2679 124.137 31.0137C124.385 30.4825 124.512 29.9032 124.511 29.3172C124.549 28.4814 124.39 27.6484 124.047 26.8854C123.893 26.5136 123.653 26.1839 123.346 25.924C123.015 25.6449 122.596 25.4918 122.164 25.4918C121.731 25.4918 121.312 25.6449 120.982 25.924C120.665 26.1837 120.397 26.4977 120.19 26.8514C119.917 27.2927 119.705 27.7681 119.557 28.2653C119.403 28.7772 119.282 29.2986 119.195 29.8261C119.117 30.218 119.068 30.6149 119.048 31.0137C119.048 31.3757 119.048 31.7376 118.968 32.0883C118.856 32.5339 118.717 32.9721 118.55 33.4003C118.312 34.0892 118.005 34.7524 117.634 35.3797C117.433 35.7509 117.115 36.0452 116.729 36.2166C116.668 36.2484 116.601 36.2649 116.533 36.2646C116.464 36.2642 116.397 36.2471 116.337 36.2148C116.276 36.1824 116.225 36.1357 116.187 36.0789C116.149 36.022 116.125 35.9567 116.118 35.8886C116.045 35.299 116.045 34.7025 116.118 34.1129C116.118 33.5586 116.209 32.9818 116.265 32.4502C116.322 31.9186 116.378 31.0251 116.39 30.3125C116.418 29.4656 116.373 28.6179 116.254 27.7789C116.159 27.1418 115.897 26.541 115.496 26.0371C115.281 25.7646 114.976 25.5764 114.637 25.5055C114.334 25.4405 114.021 25.436 113.716 25.4923C113.411 25.5486 113.121 25.6645 112.861 25.8335C112.387 26.1738 111.98 26.5996 111.662 27.089C111.455 27.4352 111.27 27.7941 111.108 28.1635C111.108 27.5979 111.108 27.0324 111.108 26.4895C111.108 26.2294 111.108 25.9353 110.802 25.7656C110.324 25.5486 109.791 25.4853 109.275 25.5846C109.117 25.5846 109.117 25.7204 109.117 25.8448C109.117 26.2633 109.207 26.6705 109.23 27.089C109.23 27.8468 109.23 28.6159 109.23 29.3511C109.23 29.7696 109.23 30.1994 109.23 30.6179C109.23 31.0364 109.23 31.3644 109.23 31.7489C109.139 32.2247 109.003 32.6906 108.823 33.1401C108.713 33.501 108.585 33.8559 108.438 34.2033C108.247 34.7072 107.976 35.177 107.635 35.5946C107.556 35.685 107.466 35.7981 107.319 35.7416C107.172 35.685 107.228 35.5493 107.217 35.4475C107.217 34.8933 107.217 34.3165 107.217 33.7849C107.217 33.0497 107.273 32.3258 107.273 31.5906C107.273 30.8554 107.5 30.075 107.5 29.4076L107.635 27.089C107.635 26.7496 107.771 26.4103 107.5 26.0936C107.324 25.9227 107.114 25.791 106.884 25.7072C106.654 25.6234 106.409 25.5893 106.165 25.6073C106.007 25.6073 105.927 25.6073 105.939 25.8222C105.97 26.1098 105.907 26.3998 105.758 26.6478C105.665 26.396 105.522 26.1658 105.337 25.9713C105.153 25.7768 104.93 25.6221 104.683 25.5168C104.384 25.4316 104.066 25.4316 103.767 25.5168C102.985 25.6219 102.275 26.0276 101.788 26.6478C101.427 27.0804 101.147 27.5747 100.962 28.1069C100.834 28.4765 100.732 28.8544 100.657 29.238C100.577 29.5999 100.532 29.9619 100.487 30.369C100.442 30.7762 100.396 31.1269 100.385 31.5001C100.428 31.9788 100.386 32.4613 100.261 32.9252C100.068 33.4568 99.8875 33.9998 99.6613 34.52C99.4473 35.0011 99.1737 35.4533 98.8469 35.866C98.6595 36.0895 98.4061 36.2479 98.123 36.3184C97.8968 36.3976 97.7271 36.2393 97.6593 35.9904C97.597 35.7584 97.574 35.5175 97.5914 35.2779C97.5914 34.4635 97.6819 33.6378 97.7611 32.8121C97.8402 31.9865 97.9194 30.9572 97.9194 30.0184C97.9684 29.0545 97.8885 28.0883 97.6819 27.1455C97.5375 26.6238 97.2786 26.1408 96.9241 25.7317C96.7067 25.4932 96.4084 25.344 96.0871 25.3132C95.4684 25.2155 94.836 25.3615 94.3226 25.7204C93.9813 25.9713 93.68 26.2726 93.4291 26.6139C93.114 27.0305 92.8554 27.4869 92.66 27.9712C92.66 27.3491 92.66 26.7496 92.66 26.1389C92.6677 26.0427 92.6485 25.9463 92.6045 25.8604C92.5606 25.7745 92.4936 25.7025 92.4111 25.6525C92.1732 25.5067 91.9074 25.4123 91.6308 25.3753C91.3542 25.3383 91.0729 25.3595 90.805 25.4376C90.6693 25.4376 90.6693 25.5394 90.6806 25.6412C90.6806 26.0258 90.7824 26.399 90.7937 26.7723C90.805 27.1455 90.7937 27.5866 90.7937 27.9938C90.7937 28.6046 90.7937 29.2154 90.7937 29.8261C90.7937 30.222 90.7937 30.6066 90.7937 30.9572C90.8111 31.4665 90.7422 31.9751 90.5901 32.4615C90.3187 33.1288 90.149 33.8414 89.821 34.4974C89.6767 34.8714 89.4392 35.2024 89.1311 35.4588C88.8709 35.6285 88.8144 35.5946 88.8144 35.2779C88.8144 34.7349 88.8144 34.1468 88.8144 33.6378C88.8144 32.7556 88.8144 31.8734 88.8822 30.9911L88.984 29.2945C88.984 28.3671 89.0858 27.4396 89.165 26.5008C89.1881 26.3761 89.1794 26.2475 89.1399 26.127C89.1004 26.0064 89.0312 25.8977 88.9388 25.8109C88.5667 25.5571 88.1329 25.4086 87.6833 25.3811C87.5702 25.3811 87.4232 25.3811 87.4345 25.5507C87.42 25.7183 87.3936 25.8846 87.3553 26.0484L87.2535 27.7563C87.1969 28.4689 87.1291 29.1927 87.0951 29.9166C87.0612 30.6405 87.0273 31.4322 87.0273 32.1787C87.0273 32.5859 87.0273 32.9931 87.0273 33.4003C87.0273 33.8075 87.0273 34.1129 87.0273 34.4522C86.9595 35.0659 87.0694 35.6862 87.344 36.2393C87.4084 36.4043 87.5139 36.5501 87.6505 36.6629C87.7871 36.7757 87.9502 36.8518 88.1244 36.884C88.3554 36.9228 88.5924 36.905 88.815 36.8321C89.0376 36.7592 89.2392 36.6334 89.4025 36.4655C89.9632 35.8237 90.4141 35.0938 90.7372 34.3051C90.7489 34.3839 90.7489 34.4639 90.7372 34.5427C90.658 35.0969 90.7372 35.6737 90.6354 36.2393C90.6424 36.3653 90.6827 36.4872 90.7522 36.5925C90.8218 36.6979 90.9181 36.7828 91.0312 36.8387C91.3583 36.995 91.7235 37.0539 92.0831 37.0084C92.2428 37.004 92.4001 36.9694 92.5469 36.9066C92.8183 36.8048 92.6147 36.6125 92.6147 36.4768C92.6147 36.047 92.6147 35.6285 92.5469 35.1987C92.5469 34.5879 92.5469 33.9884 92.5469 33.3777C92.5469 32.9705 92.5469 32.5633 92.5469 32.1561C92.5128 31.7988 92.5128 31.439 92.5469 31.0816C92.66 30.5613 92.7505 30.041 92.8862 29.5321C93.0571 28.7407 93.3429 27.9786 93.7345 27.2699C93.846 27.029 94.0437 26.8385 94.2886 26.736C94.5335 26.6334 94.8079 26.6262 95.0578 26.7157C95.2478 26.8048 95.412 26.9408 95.5347 27.1111C95.6574 27.2813 95.7346 27.48 95.7591 27.6884C95.9326 28.544 95.9821 29.4202 95.9061 30.2899L95.8043 31.9299C95.7477 32.8603 95.7477 33.7933 95.8043 34.7236C95.8124 35.3426 95.9431 35.9539 96.1889 36.522C96.3022 36.7627 96.5052 36.9494 96.7544 37.0423C97.1231 37.1715 97.5205 37.1955 97.9021 37.1116C98.2836 37.0277 98.6343 36.8392 98.9148 36.5673C99.3478 36.2268 99.7091 35.8039 99.9779 35.3231C100.159 34.9725 100.351 34.6331 100.543 34.2712L100.645 34.4522C100.652 34.5161 100.652 34.5805 100.645 34.6445C100.819 35.3146 101.166 35.9271 101.652 36.4202C101.898 36.6566 102.192 36.8375 102.514 36.9507C102.836 37.0639 103.178 37.1067 103.518 37.0762C103.914 37.039 104.294 36.9064 104.627 36.6897C104.96 36.473 105.236 36.1787 105.43 35.8321C105.43 35.8321 105.543 35.9226 105.543 35.9904C105.585 36.2692 105.716 36.527 105.916 36.7256C106.052 36.8849 106.233 36.9985 106.435 37.0511C106.638 37.1037 106.851 37.0928 107.047 37.0197C107.787 36.5922 108.37 35.9379 108.71 35.1534C108.868 34.8367 109.015 34.5087 109.173 34.1694V34.5766C109.173 35.1308 109.106 35.7077 109.094 36.2393C109.078 36.3717 109.101 36.506 109.162 36.625C109.222 36.7439 109.317 36.842 109.434 36.9066C109.886 37.1036 110.391 37.1473 110.87 37.031C110.914 37.0287 110.957 37.0154 110.994 36.9921C111.031 36.9689 111.062 36.9365 111.084 36.8981C111.105 36.8597 111.117 36.8164 111.117 36.7724C111.117 36.7284 111.106 36.6851 111.085 36.6464C111.069 36.5453 111.069 36.4422 111.085 36.3411C111.085 35.9339 111.085 35.5267 111.085 35.1195C111.085 34.5427 111.085 33.9884 111.085 33.4003C111.085 32.8121 111.085 32.5407 111.085 32.1222C111.04 31.773 111.04 31.4195 111.085 31.0703C111.187 30.6744 111.266 30.2786 111.356 29.9392C111.511 29.0035 111.833 28.1032 112.307 27.2812C112.426 27.0975 112.597 26.9527 112.798 26.8643C112.999 26.7759 113.221 26.7479 113.438 26.7836C113.981 26.8854 114.116 27.3265 114.241 27.7224C114.389 28.2365 114.454 28.7711 114.433 29.3058C114.433 30.0976 114.433 30.8893 114.354 31.6811C114.267 32.6815 114.237 33.6859 114.263 34.6897C114.28 35.296 114.395 35.8956 114.603 36.4655C114.659 36.6358 114.755 36.7903 114.883 36.9161C115.011 37.042 115.167 37.1356 115.338 37.1894C115.694 37.2888 116.07 37.2942 116.429 37.205C116.787 37.1158 117.117 36.935 117.385 36.6804C118.015 36.1609 118.512 35.4976 118.833 34.7463C118.895 34.5334 119.004 34.3366 119.149 34.1694C119.291 35.0982 119.718 35.96 120.371 36.6351C120.708 36.9678 121.154 37.1685 121.626 37.2007C122.316 37.2491 123.001 37.0528 123.561 36.6464C124.347 36.0531 124.976 35.2765 125.393 34.3843C125.489 34.1021 125.639 33.841 125.834 33.6152C125.846 33.8487 125.884 34.0801 125.947 34.3051C126.078 34.9114 126.316 35.4897 126.648 36.013C126.832 36.3179 127.082 36.5777 127.38 36.7734C127.677 36.9691 128.015 37.0958 128.368 37.1441C128.788 37.2041 129.217 37.1534 129.612 36.9971C130.221 36.7668 130.756 36.376 131.161 35.866C131.516 35.4691 131.823 35.0326 132.077 34.5653C132.381 33.9645 132.645 33.3449 132.869 32.7103C133.027 32.3004 133.144 31.8762 133.22 31.4436C133.322 31.2965 133.231 31.1608 133.118 31.1721ZM105.237 34.7689C105.117 35.1477 104.903 35.49 104.615 35.7642C104.503 35.8768 104.365 35.9612 104.214 36.0103C104.062 36.0595 103.902 36.0721 103.744 36.047C103.576 36.0474 103.411 35.9982 103.27 35.9057C103.13 35.8133 103.019 35.6814 102.953 35.5267C102.61 34.8186 102.41 34.0499 102.364 33.2646C102.28 32.4373 102.28 31.6035 102.364 30.7762C102.455 29.9323 102.61 29.0967 102.828 28.2766C102.949 27.6746 103.208 27.109 103.586 26.6252C103.696 26.471 103.842 26.3468 104.012 26.2638C104.182 26.1808 104.37 26.1417 104.559 26.1502C104.725 26.1841 104.876 26.2715 104.989 26.399C105.218 26.6203 105.405 26.8807 105.543 27.1681C105.721 27.7071 105.772 28.2803 105.69 28.8421C105.633 29.5434 105.633 30.2446 105.565 30.9459C105.498 31.6471 105.565 32.0769 105.486 32.5859C105.452 33.0113 105.452 33.4387 105.486 33.864C105.467 34.1797 105.383 34.488 105.237 34.7689ZM127.666 34.0337C127.616 33.3787 127.616 32.7207 127.666 32.0656C127.692 31.3304 127.764 30.5976 127.881 29.8714C127.951 29.1635 128.083 28.4633 128.277 27.7789C128.364 27.328 128.529 26.8956 128.763 26.5008C128.811 26.4186 128.88 26.3505 128.962 26.3031C129.044 26.2557 129.138 26.2307 129.233 26.2307C129.328 26.2307 129.421 26.2557 129.504 26.3031C129.586 26.3505 129.655 26.4186 129.702 26.5008C130.015 27.0261 130.194 27.6205 130.223 28.2313C130.268 28.8111 130.268 29.3934 130.223 29.9732C130.218 30.3518 130.188 30.7297 130.132 31.1042C130.132 31.4549 130.042 31.8281 129.951 32.2353C129.825 33.0067 129.423 33.7062 128.82 34.2033C128.616 34.3214 128.388 34.3911 128.153 34.4069C127.746 34.4861 127.723 34.4182 127.678 34.0337H127.666Z" fill="black"/>
<path d="M63.5348 38.524C63.5348 37.9924 63.6026 37.3929 63.6592 36.9179C63.7157 36.4428 63.6592 35.8773 63.7497 35.357C63.8175 34.6331 63.7497 33.8979 63.8515 33.1741C63.9532 32.4502 63.8515 31.7376 63.8515 31.0137C63.8515 30.2898 63.8515 29.5433 63.8515 28.7516C63.8515 27.7789 63.8515 26.7949 63.8515 25.8221C63.871 25.6968 63.851 25.5684 63.7943 25.4549C63.7375 25.3414 63.6468 25.2483 63.5348 25.1888C63.2369 25.0174 62.9116 24.8988 62.5734 24.8381C62.2001 24.7589 62.1209 24.8381 62.0757 25.1774C61.9739 25.9013 62.0757 26.6365 62.0078 27.3604C61.94 28.0843 62.0078 28.5932 62.0078 29.204C62.0078 29.5999 62.0078 30.0071 62.0078 30.4029C62.0362 30.8021 62.0362 31.2027 62.0078 31.6019C61.923 32.1167 61.8097 32.6265 61.6685 33.1288C61.4996 33.9084 61.1849 34.649 60.741 35.3118C60.64 35.4482 60.5061 35.5568 60.3518 35.6276C60.1975 35.6984 60.0278 35.729 59.8585 35.7166C59.6892 35.7041 59.5258 35.6491 59.3834 35.5566C59.2411 35.4641 59.1245 35.337 59.0444 35.1873C58.8488 34.7926 58.7189 34.3685 58.6599 33.9319C58.6145 33.2464 58.6145 32.5588 58.6599 31.8733C58.6599 30.9911 58.8295 30.1202 58.8748 29.2493C58.9271 28.2922 58.9233 27.333 58.8635 26.3764C58.8635 26.1502 58.92 25.8448 58.6712 25.6864C58.4418 25.5406 58.185 25.4432 57.9165 25.4004C57.6481 25.3577 57.3737 25.3703 57.1103 25.4376C56.8276 25.4941 56.7936 25.6638 56.8276 25.89C56.9441 26.6076 56.982 27.3358 56.9407 28.0617C56.8841 29.0117 56.7371 29.9505 56.7144 30.9119C56.7276 31.0779 56.6793 31.243 56.5787 31.3757C56.2382 31.7834 55.8285 32.128 55.3685 32.3936C55.3516 32.213 55.3516 32.0313 55.3685 31.8507C55.3685 31.1155 55.3685 30.3803 55.3685 29.5886C55.3106 28.9474 55.2009 28.3119 55.0405 27.6884C54.8561 26.8525 54.4675 26.0753 53.9094 25.4263C53.7312 25.2118 53.5083 25.0389 53.2563 24.9198C53.0042 24.8006 52.7292 24.738 52.4503 24.7363C52.066 24.7456 51.6851 24.8104 51.3193 24.9286C50.9612 25.0581 50.6385 25.2699 50.3772 25.5469C50.1159 25.8239 49.9233 26.1584 49.815 26.5234C49.7033 26.8755 49.5434 27.2105 49.3399 27.5187C49.0291 27.9675 48.8418 28.4903 48.797 29.0344C48.6141 30.0339 48.5383 31.05 48.5708 32.0656C48.5874 32.9805 48.7556 33.8863 49.0685 34.7462C49.2901 35.4371 49.716 36.0444 50.29 36.4881C50.718 36.863 51.2567 37.088 51.8242 37.1288C52.3918 37.1697 52.9571 37.0241 53.4344 36.7143C53.9179 36.3483 54.3059 35.8711 54.5654 35.3231C54.8097 34.8468 54.9921 34.3413 55.1083 33.8188C55.1083 33.6265 55.2328 33.4681 55.459 33.4229C55.459 33.4229 55.5495 33.355 55.5947 33.3324C55.9697 33.127 56.3126 32.8679 56.6127 32.5633C56.6939 32.8305 56.7208 33.1112 56.6918 33.389C56.6804 34.3157 56.8816 35.2327 57.28 36.0696C57.4188 36.3849 57.6497 36.6508 57.9424 36.8325C58.2351 37.0141 58.5759 37.103 58.92 37.0875C59.4308 37.0622 59.9263 36.9052 60.3583 36.6316C60.7904 36.3581 61.1443 35.9775 61.3857 35.5267C61.5893 35.21 61.7477 34.8706 61.9286 34.5426C61.9286 35.0969 61.8721 35.6737 61.8495 36.194C61.8495 36.948 61.8042 37.6719 61.7137 38.3656C61.649 39.2266 61.5395 40.0836 61.3857 40.9331C61.2561 41.7309 61.0399 42.5122 60.741 43.2631C60.6321 43.4818 60.4512 43.6563 60.2287 43.7572C60.0062 43.8581 59.7558 43.8794 59.5195 43.8174C59.2596 43.7455 59.0257 43.6008 58.8454 43.4004C58.665 43.2 58.5457 42.9523 58.5015 42.6863C58.3639 42.182 58.3217 41.6565 58.3771 41.1367C58.3771 40.492 58.5241 39.8586 58.592 39.2252C58.592 38.9877 58.592 38.8972 58.3092 38.9198C57.9815 38.9473 57.6586 39.0157 57.3478 39.1234C57.099 39.2139 56.7484 39.3044 56.7031 39.5646C56.646 39.9121 56.6233 40.2644 56.6353 40.6164C56.6583 40.9964 56.7075 41.3743 56.7823 41.7475C56.8735 42.3315 57.0853 42.89 57.4044 43.3875C57.5724 43.6532 57.794 43.881 58.055 44.0562C58.3159 44.2315 58.6105 44.3504 58.92 44.4055C59.6853 44.5428 60.4742 44.4442 61.1821 44.1227C61.8669 43.7855 62.4143 43.2221 62.7317 42.5279C63.0851 41.6611 63.3063 40.746 63.3877 39.8134C63.4782 39.4288 63.5008 38.9764 63.5348 38.524ZM53.457 34.9159C53.3438 35.3399 53.126 35.7288 52.8236 36.047C52.7165 36.1489 52.5882 36.226 52.448 36.2727C52.3077 36.3195 52.1588 36.3348 52.012 36.3175C51.8652 36.3002 51.7239 36.2508 51.5983 36.1728C51.4727 36.0947 51.3659 35.99 51.2854 35.866C50.9687 35.4236 50.7631 34.9115 50.6859 34.373C50.5388 33.5864 50.4781 32.7862 50.5049 31.9864L51.0931 32.6198C51.4869 33.0524 51.9914 33.3692 52.5521 33.536C52.8588 33.6704 53.19 33.7397 53.5249 33.7396C53.6832 33.7396 53.7398 33.8074 53.7058 33.9658C53.6674 34.2925 53.5837 34.6123 53.457 34.9159ZM53.6719 32.8008C53.1698 32.7312 52.6907 32.5458 52.2726 32.2592C51.8545 31.9726 51.5088 31.5927 51.2627 31.1495C51.1044 30.8893 51.0139 30.6065 50.8555 30.3464C50.8024 30.259 50.7697 30.1606 50.7599 30.0588C50.7501 29.9569 50.7635 29.8542 50.799 29.7582C50.9022 29.2408 51.0813 28.7415 51.3306 28.2766C51.5229 27.9825 51.4437 27.8467 51.0139 27.6092C50.5841 27.3717 50.4597 27.3265 50.6406 26.8288C50.7048 26.5894 50.8171 26.3656 50.9707 26.1711C51.1244 25.9766 51.3161 25.8155 51.5342 25.6977C51.7477 25.5993 51.9894 25.5805 52.2155 25.6448C52.4417 25.7091 52.6373 25.8523 52.767 26.0484C53.1711 26.6093 53.4525 27.249 53.5927 27.9259C53.7636 28.6697 53.8733 29.4263 53.9207 30.188C53.9491 30.7381 53.9491 31.2893 53.9207 31.8394C53.9207 32.0882 53.9207 32.3371 53.9207 32.5859C53.9207 32.8347 53.8302 32.8574 53.6719 32.8008Z" fill="black"/>
<path d="M11.2685 16.7397C11.2006 16.5248 11.359 16.3439 11.4155 16.1629C11.7075 15.2865 12.186 14.4839 12.818 13.8103C13.119 13.4879 13.4704 13.2166 13.8586 13.0072C14.4162 12.6862 15.0382 12.493 15.6796 12.4417C16.2525 12.402 16.8281 12.4478 17.3875 12.5774C18.2079 12.8039 18.9763 13.1881 19.6497 13.7085C20.1595 14.0675 20.6002 14.5159 20.9504 15.0318C21.12 15.3146 21.3236 15.5747 21.482 15.8575C21.8501 16.5095 22.0991 17.2219 22.2172 17.9613C22.2835 18.3801 22.31 18.8043 22.2963 19.2281C22.2641 19.7515 22.1808 20.2705 22.0475 20.7776C21.8663 21.4264 21.5961 22.0468 21.2445 22.6213C20.9213 23.1559 20.5702 23.6732 20.1926 24.1708C20.1926 24.25 20.0568 24.3179 20.1926 24.4083C20.3283 24.4988 20.3509 24.4083 20.3848 24.3179C20.6333 24.0388 20.8638 23.7441 21.0748 23.4356C21.1313 23.3451 21.1766 23.2999 21.2558 23.4356C21.5217 23.8374 21.7597 24.2568 21.9683 24.6911C22.2401 25.2967 22.4303 25.9357 22.5339 26.5913C22.6622 27.3399 22.6622 28.1048 22.5339 28.8534C22.4613 29.3568 22.344 29.8526 22.1832 30.3351C22.0034 30.8512 21.7643 31.3446 21.4707 31.8055C21.153 32.3213 20.7731 32.7961 20.3396 33.2193C20.3396 33.2193 20.2265 33.3098 20.283 33.389C20.3396 33.4682 20.4301 33.389 20.4753 33.389C20.7242 33.1062 20.9843 32.8234 21.2331 32.5294C21.3236 32.4163 21.3349 32.3823 21.4141 32.5294C21.5387 32.9225 21.6184 33.3285 21.6516 33.7396C21.7084 34.3826 21.6703 35.0305 21.5385 35.6624C21.3787 36.4459 21.1203 37.206 20.7694 37.9245C20.4936 38.5566 20.1484 39.1559 19.7401 39.7116C19.3946 40.1929 19.0167 40.6502 18.6091 41.0802C18.231 41.4835 17.8267 41.8613 17.3988 42.2113C16.9018 42.6245 16.3765 43.0025 15.8267 43.3423C15.2724 43.659 14.7635 44.0662 14.2319 44.4734C13.7003 44.8806 13.5306 44.9824 13.1008 45.1973C12.671 45.4122 12.8633 45.0729 12.7954 44.9484C12.8539 44.9004 12.897 44.8361 12.9191 44.7636C12.9413 44.6912 12.9415 44.6138 12.9198 44.5413C12.7222 43.3207 12.5975 42.0894 12.5466 40.854C12.4801 39.7239 12.4801 38.5909 12.5466 37.4608C12.5501 36.5731 12.6564 35.6887 12.8633 34.8254C12.8897 34.6747 12.9517 34.5324 13.0441 34.4104C13.1366 34.2884 13.2568 34.1903 13.3949 34.1242C13.5419 34.0676 13.4854 33.9658 13.3949 33.8753C13.1121 33.4908 12.8633 33.0723 12.6031 32.6651C12.0304 31.7953 11.5092 30.8927 11.0423 29.9619C10.8415 29.4241 10.7604 28.8489 10.8047 28.2766C10.773 27.3585 10.9389 26.4444 11.2911 25.596C11.4911 24.974 11.8881 24.4341 12.4222 24.0577C12.6999 23.8889 13.0316 23.8323 13.3496 23.8994C13.6933 23.9566 14.0305 24.0475 14.3563 24.1708C14.4193 24.1876 14.4856 24.1876 14.5486 24.1708C14.7295 24.1708 14.7974 24.1708 14.7408 23.9333C14.7039 23.7861 14.6253 23.6526 14.5146 23.5487C13.8356 22.823 13.2259 22.0354 12.6936 21.1961C12.2935 20.577 11.9599 19.9173 11.6983 19.2281C11.4657 18.587 11.3211 17.9173 11.2685 17.2374C11.2572 17.0451 11.2685 16.8868 11.2685 16.7397Z" fill="#A1C327"/>
<path d="M2.79683 37.4156C2.56052 37.0926 2.34879 36.7523 2.16343 36.3977C1.7641 35.732 1.43436 35.027 1.17941 34.2939C0.96124 33.6545 0.805927 32.9954 0.715672 32.3258C0.647808 31.7716 0.715672 31.1948 0.659119 30.6519C0.659915 30.5419 0.695553 30.4349 0.760914 30.3465C0.756656 30.3803 0.756656 30.4145 0.760914 30.4483C0.760914 30.5161 0.760914 30.6519 0.919263 30.584C1.07761 30.5161 0.919263 30.437 0.919263 30.3691C0.350427 29.2033 0.100657 27.9076 0.195383 26.614C0.226063 25.8838 0.394936 25.1661 0.69305 24.4989C0.914562 24.0366 1.20858 23.6128 1.56397 23.2434C1.85912 22.9655 2.20995 22.7534 2.59324 22.6213C2.7742 22.5421 2.78552 22.4517 2.72896 22.2933C2.58173 21.8022 2.47952 21.2987 2.42358 20.789C2.36129 20.2327 2.36129 19.6713 2.42358 19.115C2.46557 18.7321 2.54126 18.3536 2.64979 17.984C2.79581 17.4764 2.98111 16.981 3.20401 16.5023C3.49263 15.8688 3.87382 15.2818 4.33507 14.7604C4.62289 14.4285 4.94946 14.1324 5.30778 13.8782C5.73253 13.5726 6.20707 13.343 6.7103 13.1996C7.31781 13.0144 7.95478 12.9453 8.58787 12.996C9.22877 13.0547 9.85554 13.219 10.4428 13.4823C10.8387 13.652 11.2232 13.8443 11.5739 14.0366C11.9245 14.2288 11.9924 14.3646 11.7661 14.7039C11.1896 15.6323 10.805 16.6669 10.6351 17.7464C10.5729 18.2005 10.5729 18.6609 10.6351 19.115C10.4637 20.3297 9.95864 21.4731 9.17602 22.4177C8.90575 22.747 8.56059 23.0069 8.16937 23.1755C8.09963 23.2139 8.0317 23.2554 7.96578 23.3C7.80743 23.3678 7.79612 23.4696 7.86399 23.6166C8.33198 24.5367 8.56144 25.5595 8.53131 26.5913C8.49442 27.5533 8.08952 28.4643 7.40025 29.1362C7.07224 29.4756 6.76686 29.8375 6.41623 30.1542C5.99211 30.5771 5.47218 30.8914 4.9006 31.0703C4.69795 31.098 4.49248 31.098 4.28983 31.0703C4.89359 31.1377 5.46408 31.3816 5.92987 31.7716C6.11632 31.9499 6.24907 32.1768 6.31305 32.4268C6.37702 32.6767 6.36966 32.9395 6.29181 33.1854C6.17166 33.5908 5.98432 33.9731 5.73759 34.3165C5.30789 35.0742 4.80803 35.7899 4.24459 36.4542C3.95315 36.8551 3.56371 37.1744 3.11352 37.3817C3.01656 37.4343 2.90274 37.4465 2.79683 37.4156Z" fill="#A1C327"/>
<path d="M11.2685 16.7397C11.3509 17.112 11.4038 17.4902 11.4269 17.8708C11.5753 18.6574 11.8342 19.419 12.196 20.1329C12.3544 20.4609 12.558 20.7663 12.7163 21.1056C12.8576 21.392 13.0363 21.6582 13.2479 21.8974C13.6736 22.4931 14.1383 23.0599 14.6391 23.594C14.7657 23.7342 14.8517 23.9062 14.8879 24.0916C14.8879 24.2726 14.7861 24.3179 14.6278 24.3179C14.36 24.2718 14.0983 24.1959 13.8474 24.0916C13.511 23.9874 13.1577 23.949 12.8068 23.9785C12.6194 24.0421 12.4465 24.1421 12.2978 24.2726C11.8682 24.6087 11.5427 25.0597 11.359 25.5733C11.1103 26.1088 10.9535 26.6824 10.8953 27.2699C10.809 27.9848 10.8551 28.7094 11.031 29.4076C11.2682 30.0686 11.5834 30.6989 11.9698 31.2852C12.3996 32.0317 12.852 32.7782 13.3384 33.5473C13.4289 33.6831 13.5307 33.8075 13.6212 33.9319C13.7116 34.0563 13.7343 34.1694 13.542 34.1807C13.4187 34.1999 13.3046 34.2571 13.2154 34.3443C13.1261 34.4315 13.0664 34.5443 13.0443 34.6671C12.9056 35.1504 12.8184 35.6471 12.7842 36.1488C12.7314 36.6464 12.6975 37.1441 12.6824 37.6418C12.6824 38.5692 12.6824 39.4967 12.6824 40.4242C12.6824 40.8766 12.7502 41.3404 12.7502 41.8041C12.7502 42.2678 12.852 42.6524 12.886 43.0822C12.9272 43.648 13.0028 44.2108 13.1122 44.7675C13.1122 44.9371 13.033 45.005 12.8747 44.9824L12.6711 44.8353C12.5212 44.4461 12.3435 44.0681 12.1395 43.7043C12.015 43.3989 11.8567 43.0935 11.7323 42.7768C11.6079 42.4601 11.3703 41.8154 11.2233 41.3177C11.0763 40.8201 11.0084 40.4016 10.9066 39.9491C10.8141 39.5508 10.7499 39.1463 10.7143 38.7389C10.7143 38.2752 10.6012 37.8227 10.5673 37.3477C10.5334 36.8727 10.5673 36.5107 10.4881 36.0922C10.4542 35.75 10.4542 35.4052 10.4881 35.063C10.4625 34.3082 10.4852 33.5527 10.556 32.8008C10.6125 32.733 10.556 32.6538 10.556 32.5859C10.556 32.5181 10.6465 32.371 10.7256 32.3371C10.8048 32.3032 10.85 32.4389 10.9179 32.5068C10.9858 32.5746 11.1554 32.7782 11.2799 32.9026C11.4043 33.027 11.359 33.0497 11.4495 32.9026C11.54 32.7556 11.4495 32.7895 11.4495 32.7217C11.1468 32.4045 10.8742 32.06 10.6351 31.6924C10.4783 31.4007 10.3422 31.0984 10.228 30.7875C10.0631 30.3432 9.95666 29.8794 9.91127 29.4076C9.87723 29.0314 9.87723 28.6528 9.91127 28.2766C9.93497 27.5394 10.0412 26.8072 10.228 26.0936C10.3636 25.5887 10.5336 25.0936 10.7369 24.6119C11.0071 23.9676 11.3169 23.3405 11.6644 22.7344C11.8567 22.3951 11.9811 22.3951 12.196 22.7344C12.274 22.8635 12.3692 22.9814 12.4788 23.085C12.5062 23.1113 12.5426 23.1259 12.5806 23.1259C12.6185 23.1259 12.655 23.1113 12.6824 23.085C12.7729 23.0171 12.6824 22.9493 12.6824 22.904C12.4198 22.5975 12.1851 22.2682 11.9811 21.92C11.8248 21.6888 11.6922 21.4425 11.5852 21.1848C11.2873 20.5319 11.089 19.838 10.9971 19.1263C10.8602 18.3211 10.9543 17.4936 11.2685 16.7397Z" fill="#95B224"/>
<path d="M2.79688 37.4155C3.57731 37.2685 3.92794 36.6577 4.44823 36.1035C5.07358 35.3079 5.62982 34.4603 6.11089 33.5699C6.28949 33.2457 6.33265 32.8639 6.23095 32.508C6.12925 32.152 5.89093 31.8507 5.56798 31.6697C5.1039 31.455 4.62359 31.2773 4.13153 31.1381C4.30815 31.118 4.4865 31.118 4.66313 31.1381C5.18821 31.0617 5.67957 30.8337 6.07696 30.4821C6.54757 30.0794 6.98623 29.6407 7.38899 29.1701C7.87142 28.6635 8.20417 28.0332 8.35039 27.3491C8.49964 26.5235 8.44923 25.6742 8.20335 24.8721C8.10006 24.4597 7.94819 24.061 7.75093 23.6844C7.66044 23.5374 7.64913 23.4243 7.86403 23.3451C8.63257 23.0393 9.27729 22.4861 9.69635 21.773C10.0336 21.1926 10.2995 20.5735 10.4881 19.9293C10.5673 19.6805 10.4881 19.3977 10.7143 19.1715C10.7572 19.4988 10.8176 19.8235 10.8953 20.1442C10.9952 20.6198 11.1668 21.0775 11.4043 21.5015C11.5965 21.8521 11.4043 22.0896 11.2233 22.3159C10.79 22.8553 10.2655 23.3146 9.67373 23.6731C9.65991 23.6769 9.64705 23.6835 9.63597 23.6926C9.62489 23.7017 9.61586 23.713 9.60945 23.7258C9.60305 23.7386 9.59942 23.7527 9.5988 23.767C9.59818 23.7813 9.60059 23.7955 9.60587 23.8089C9.60587 23.8767 9.66242 23.888 9.73029 23.8654C9.79815 23.8428 9.89995 23.8654 9.89995 24.0238C9.93369 24.4793 9.93369 24.9368 9.89995 25.3924C9.8272 25.9466 9.71379 26.4948 9.56063 27.0324C9.41247 27.6449 9.20016 28.2401 8.92723 28.8082C8.65884 29.4762 8.27609 30.0925 7.79617 30.6292C7.59847 30.8826 7.34234 31.0844 7.04967 31.2173C6.94787 31.2173 6.84608 31.2965 6.91394 31.4096C6.98181 31.5227 7.07229 31.4096 7.12884 31.4096C7.1854 31.4096 7.30981 31.4096 7.2985 31.534C7.1666 32.3558 6.94275 33.1601 6.63118 33.9319C6.22062 34.8355 5.72045 35.6956 5.13817 36.4994C4.70044 37.1372 4.21656 37.742 3.69041 38.3091C3.54338 38.4561 3.45289 38.3883 3.3511 38.3091C3.13666 38.0307 2.95097 37.7313 2.79688 37.4155Z" fill="#7E981F"/>
<path d="M14.5593 11.9553C14.1868 11.1585 13.9133 10.319 13.745 9.45565C13.6307 8.88455 13.5551 8.30639 13.5187 7.72512C13.5021 7.16896 13.5362 6.61244 13.6205 6.06246C13.698 5.53835 13.8268 5.02313 14.0051 4.52422C14.1435 4.04352 14.3451 3.58331 14.6046 3.15563C14.9187 2.65093 15.2991 2.19064 15.7356 1.78705C16.2189 1.34103 16.7589 0.960722 17.3417 0.655983C17.5906 0.520256 17.862 0.486324 18.1109 0.350596C18.1674 0.350596 18.2353 0.282732 18.2918 0.350596C18.3484 0.41846 18.2918 0.475013 18.2918 0.531566C18.0317 1.50428 17.8168 2.47699 17.6471 3.46102C17.534 4.13965 17.4661 4.84091 17.387 5.53086C17.2941 6.05075 17.1694 6.56446 17.0137 7.06911C16.8177 7.86866 16.5489 8.64858 16.2107 9.39909C16.0103 9.83178 15.7758 10.2478 15.5094 10.6433C15.2606 11.0391 14.9778 11.4011 14.7064 11.7743C14.6619 11.8382 14.6128 11.8987 14.5593 11.9553Z" fill="#6FB647"/>
<path d="M21.403 12.8715C20.2034 12.73 19.0257 12.4413 17.8967 12.0119C17.5687 11.8987 17.2294 11.8196 16.9014 11.7065C16.7883 11.7065 16.6412 11.7065 16.6073 11.5255C16.5734 11.3445 16.6978 11.3219 16.777 11.2314C17.3084 10.7297 17.9941 10.4227 18.7224 10.3605C19.2653 10.2813 19.8534 10.27 20.3624 10.2135C21.0913 10.1824 21.8083 10.0175 22.4775 9.72711C22.757 9.57817 23.0094 9.38315 23.224 9.15027C23.599 8.77013 24.03 8.44971 24.5021 8.20017C24.696 8.08725 24.9121 8.01779 25.1355 7.99658C25.2486 7.99658 25.3052 7.99658 25.3052 8.15493C25.3321 8.93643 25.2676 9.7184 25.1129 10.4849C24.9796 11.2255 24.5766 11.8903 23.9818 12.3512C23.5895 12.6256 23.1344 12.7967 22.6585 12.8488C22.2417 12.8969 21.8212 12.9045 21.403 12.8715Z" fill="#6FB647"/>
<path d="M13.3607 11.9101C12.8859 11.5507 12.3048 11.3597 11.7094 11.3672C11.0826 11.3748 10.4568 11.3141 9.84312 11.1862C9.48533 11.0468 9.15577 10.8437 8.87041 10.5867C8.22872 10.0666 7.70121 9.41975 7.32085 8.68654C6.97556 8.06526 6.76007 7.38031 6.68746 6.67325C6.61981 6.33349 6.61981 5.98374 6.68746 5.64398C7.09258 6.27549 7.6484 6.79633 8.30488 7.15961C8.87041 7.49892 9.43594 7.793 10.058 8.09839C11.0355 8.52358 11.9137 9.14759 12.6368 9.93071C12.9929 10.3671 13.2271 10.8901 13.3155 11.4463C13.3268 11.5821 13.4399 11.7178 13.3607 11.9101Z" fill="#6FB647"/>
<path d="M17.546 32.4389C17.1786 32.3629 16.8545 32.1482 16.6412 31.8394C16.3167 31.3799 16.0966 30.8548 15.9965 30.3012C15.8906 29.7537 15.8526 29.1953 15.8834 28.6385C15.8834 28.2087 15.8834 27.7789 15.8834 27.3604C15.9267 27.0195 15.9985 26.6827 16.0983 26.3538C16.2523 25.7842 16.571 25.2727 17.0144 24.8834C17.21 24.7573 17.4378 24.6902 17.6705 24.6902C17.9032 24.6902 18.1309 24.7573 18.3265 24.8834C18.6057 25.0807 18.8434 25.331 19.0258 25.6202C19.2083 25.9094 19.3319 26.2317 19.3897 26.5687C19.5479 27.1704 19.6277 27.7901 19.6272 28.4123C19.6648 29.2785 19.5461 30.1444 19.2766 30.9685C19.1507 31.3448 18.955 31.694 18.6997 31.9978C18.5709 32.1752 18.3932 32.3114 18.1884 32.3897C17.9836 32.468 17.7604 32.4851 17.546 32.4389Z" fill="#AFCB4B"/>
<path d="M18.1454 38.9991C18.0752 39.8424 17.8326 40.6624 17.4329 41.4082C17.3126 41.6808 17.1337 41.9236 16.9089 42.1191C16.684 42.3146 16.4188 42.4581 16.1321 42.5393C15.9255 42.5859 15.7098 42.5734 15.5099 42.5034C15.3099 42.4335 15.1336 42.3087 15.0011 42.1434C14.7091 41.7727 14.5077 41.3389 14.4129 40.8766C14.2852 40.2783 14.2584 39.6628 14.3337 39.0556C14.3864 38.161 14.589 37.2816 14.9332 36.4542C15.1488 35.9146 15.4993 35.4395 15.9512 35.0743C16.1499 34.9193 16.3947 34.8351 16.6468 34.8351C16.8988 34.8351 17.1436 34.9193 17.3424 35.0743C17.7859 35.4408 18.073 35.9626 18.1454 36.5333C18.2642 37.351 18.2642 38.1814 18.1454 38.9991Z" fill="#B1CC4E"/>
<path d="M19.2083 20.4157C19.1709 20.8718 19.0481 21.3169 18.8463 21.7277C18.795 21.8521 18.7114 21.9605 18.6043 22.0419C18.4971 22.1233 18.3702 22.1747 18.2366 22.1909C18.1031 22.207 17.9676 22.1873 17.8441 22.1337C17.7207 22.0801 17.6137 21.9946 17.5343 21.886C17.109 21.3491 16.8112 20.7225 16.6634 20.0537C16.5021 19.4309 16.3961 18.795 16.3467 18.1535C16.2555 17.5727 16.2555 16.9812 16.3467 16.4004C16.384 16.0537 16.4445 15.7098 16.5276 15.3711C16.5844 15.0938 16.7316 14.8432 16.9461 14.6585C17.0667 14.5397 17.2293 14.4731 17.3986 14.4731C17.5679 14.4731 17.7304 14.5397 17.851 14.6585C18.0619 14.8285 18.2352 15.0403 18.36 15.2806C18.678 15.9162 18.9027 16.5943 19.0273 17.2939C19.2147 18.3232 19.2755 19.3716 19.2083 20.4157Z" fill="#B0CB4B"/>
<path d="M3.35113 27.4735C3.46897 26.8716 3.63928 26.2812 3.86011 25.709C4.05001 25.2724 4.28908 24.8587 4.57268 24.4762C4.70251 24.2854 4.86968 24.1228 5.06408 23.9984C5.25848 23.874 5.47608 23.7903 5.70374 23.7523C5.84313 23.7292 5.9862 23.7443 6.11767 23.7961C6.24915 23.8479 6.36409 23.9344 6.45024 24.0464C6.77576 24.4422 6.93402 24.9495 6.89135 25.4602C6.8361 26.8237 6.35777 28.1361 5.52277 29.2153C5.40087 29.3819 5.24713 29.5227 5.07046 29.6295C4.89378 29.7363 4.69768 29.8069 4.4935 29.8374C4.28697 29.8389 4.08397 29.7839 3.90651 29.6782C3.72906 29.5725 3.58392 29.4203 3.48686 29.238C3.32258 28.6651 3.2764 28.0648 3.35113 27.4735Z" fill="#ACC942"/>
<path d="M9.17543 15.0092C9.45819 15.0092 9.70703 15.4164 9.74096 15.7557C9.78195 16.5223 9.67835 17.2896 9.43557 18.0179C9.29984 18.4929 9.09625 18.9453 8.91528 19.4091C8.68603 19.9709 8.36496 20.4908 7.96519 20.9473C7.6598 21.2753 7.17345 21.3997 6.92461 21.1848C6.7705 21.0222 6.66815 20.8175 6.63054 20.5967C6.55876 20.083 6.58951 19.5602 6.72102 19.0584C6.86285 18.3632 7.08686 17.6874 7.38835 17.0451C7.64519 16.2773 8.12573 15.6037 8.76824 15.111C8.89011 15.0356 9.03242 15.0001 9.17543 15.0092Z" fill="#ADCA46"/>
<path d="M2.67194 34.2825C2.69187 33.6957 2.8508 33.122 3.13567 32.6085C3.29402 32.3145 3.47499 31.9752 3.92742 31.9865C4.05442 31.9761 4.18113 32.0098 4.28619 32.0819C4.39126 32.154 4.46827 32.2601 4.50426 32.3823C4.63248 32.7448 4.68259 33.1302 4.6513 33.5134C4.61046 34.0454 4.4884 34.5679 4.28936 35.063C4.22068 35.24 4.11273 35.3992 3.97363 35.5285C3.83453 35.6578 3.6679 35.7539 3.4863 35.8095C3.36222 35.811 3.23984 35.7805 3.1309 35.7211C3.02196 35.6617 2.93013 35.5753 2.86422 35.4701C2.70821 35.0947 2.64235 34.688 2.67194 34.2825Z" fill="#ADCA46"/>
<path d="M16.7204 3.30273L16.1549 4.04923C15.5526 4.83706 15.1037 5.73103 14.8316 6.68461C14.6338 7.39498 14.6338 8.14587 14.8316 8.85625C14.8612 8.89954 14.8771 8.9508 14.8771 9.00328C14.8771 9.05577 14.8612 9.10703 14.8316 9.15032C14.4487 8.03871 14.5136 6.82172 15.0125 5.75714C15.4384 4.84605 16.0031 4.00661 16.6865 3.2688L16.7204 3.30273Z" fill="#090C06"/>
<path d="M24.1063 9.81763C24.0961 9.8772 24.0738 9.93405 24.0407 9.98464C24.0076 10.0352 23.9645 10.0785 23.914 10.1117C23.3887 10.5107 22.8148 10.8413 22.2061 11.0957C21.4628 11.3655 20.6782 11.5033 19.8874 11.5029H19.7178C19.7057 11.5003 19.6943 11.4952 19.6842 11.488C19.6742 11.4808 19.6657 11.4716 19.6594 11.461C19.653 11.4504 19.6489 11.4387 19.6473 11.4264C19.6456 11.4141 19.6465 11.4017 19.6499 11.3898C19.6499 11.3898 19.7178 11.3898 19.7517 11.3898C20.8822 11.4651 22.0083 11.1885 22.9752 10.5981C23.3598 10.3379 23.6991 10.0552 24.1063 9.81763Z" fill="#090D06"/>
<path d="M8.2027 7.91748C8.51057 8.41997 8.8918 8.87363 9.33376 9.26344C9.73991 9.64839 10.2109 9.95854 10.725 10.1796C10.9399 10.2814 11.1661 10.3493 11.381 10.4397C11.5959 10.5302 11.5167 10.4397 11.4828 10.5302C11.4488 10.6207 11.3584 10.632 11.3584 10.6094C10.9044 10.4524 10.4684 10.2477 10.0576 9.99864C9.51482 9.67333 9.02947 9.2606 8.62119 8.77709C8.44179 8.53831 8.28288 8.2848 8.14614 8.01928C8.1009 7.91748 8.1009 7.91748 8.2027 7.91748Z" fill="#0A0E07"/>
</svg>
