<svg width="41" height="39" viewBox="0 0 41 39" fill="none" xmlns="http://www.w3.org/2000/svg">
<path fill-rule="evenodd" clip-rule="evenodd" d="M20.455 0.297852C31.5239 0.297852 40.5105 8.81148 40.5105 19.2979C40.5105 29.7842 31.5239 38.2979 20.455 38.2979C9.38603 38.2979 0.399414 29.7842 0.399414 19.2979C0.399414 8.81148 9.38603 0.297852 20.455 0.297852ZM32.1623 29.3114V28.9373L30.33 27.233C30.1682 27.1163 30.088 26.9242 30.1215 26.7342V14.2121C30.088 14.022 30.1682 13.83 30.33 13.7132L32.2063 12.009V11.6348H25.7108L21.0804 22.5775L15.8137 11.6348H8.99988V12.009L11.1944 14.5134C11.4099 14.6973 11.5198 14.9676 11.4906 15.2409V25.0819C11.5545 25.4369 11.4364 25.7996 11.1725 26.0587L8.70367 28.8957V29.2697H15.704V28.8957L13.2352 26.0587C12.9693 25.8001 12.8439 25.4398 12.895 25.0819V16.5711L19.0396 29.2697H19.7528L25.0305 16.5711V26.6927C25.0305 26.9628 25.0305 27.0148 24.8438 27.1914L22.9457 28.9373V29.3114H32.1623Z" fill="white"/>
</svg>
