<svg width="79" height="71" viewBox="0 0 79 71" fill="none" xmlns="http://www.w3.org/2000/svg">
<path d="M39.9531 70.814C29.7872 70.814 19.6398 70.851 9.4832 70.814C3.63011 70.7832 -0.374627 65.4354 1.30428 59.9612C1.58085 59.1363 1.94651 58.344 2.3948 57.5984C12.3574 40.033 22.3292 22.4778 32.3102 4.93294C34.9226 0.342886 39.6204 -1.22821 43.8993 1.00212C45.4017 1.80741 46.6346 3.03601 47.4451 4.53554C57.5617 22.3577 67.6701 40.1839 77.7702 58.0143C81.1589 64.0337 77.1819 70.7802 70.2721 70.8048C60.1679 70.8572 50.0605 70.814 39.9531 70.814Z" fill="#7EA224"/>
<path d="M36.0253 24.5778C36.0253 23.13 35.9391 21.947 36.0438 20.7795C36.1167 19.6949 36.5788 18.673 37.3452 17.9021C38.1117 17.1312 39.1307 16.663 40.2149 16.5837C42.7533 16.402 43.9979 17.3262 44.7742 19.9169C45.6983 22.9605 45.0822 26.0257 44.8697 29.0724C44.5616 33.2589 44.1272 37.4331 43.7853 41.6165C43.7145 42.6366 43.5073 43.6426 43.1692 44.6077C42.7256 45.8399 41.8507 46.5115 40.5045 46.5115C39.1583 46.5115 38.3481 45.8584 37.8491 44.6077C36.8448 42.0601 37.0296 39.3707 36.8016 36.7276C36.4351 32.5966 36.2595 28.4501 36.0253 24.5778Z" fill="#FDFDFD"/>
<path d="M45.079 55.208C45.0975 57.9805 43.2892 59.8011 40.4828 59.8072C37.8119 59.8072 35.7972 57.9343 35.7695 55.4051C35.7387 52.6973 37.815 50.5255 40.4212 50.5255C41.0363 50.5205 41.6462 50.6384 42.2152 50.8723C42.7842 51.1061 43.3008 51.4513 43.7346 51.8874C44.1684 52.3235 44.5108 52.8419 44.7417 53.4121C44.9725 53.9823 45.0872 54.5928 45.079 55.208Z" fill="#FEFEFD"/>
</svg>
