<svg width="21" height="14" viewBox="0 0 21 14" fill="none" xmlns="http://www.w3.org/2000/svg">
<path d="M4.32285 5.83442H19.3872C20.4509 5.83442 21.0129 6.24917 20.9998 7.02111C20.9856 7.77352 20.4356 8.17198 19.4025 8.17198H4.18728C4.39719 8.39672 4.51526 8.53569 4.64974 8.66706C5.7299 9.74301 6.81881 10.8103 7.89023 11.896C8.35597 12.3694 8.41391 12.9318 8.10232 13.4312C7.96479 13.6581 7.75411 13.8321 7.50446 13.9251C7.25481 14.0182 6.98083 14.0247 6.72697 13.9437C6.48993 13.8562 6.27501 13.7184 6.09724 13.5398C4.22263 11.6941 2.35348 9.84073 0.489801 7.9798C-0.160337 7.32837 -0.163255 6.68128 0.481053 6.03854C2.34401 4.17906 4.2117 2.32429 6.08412 0.474224C6.67996 -0.115322 7.407 -0.154407 7.92303 0.352624C8.43905 0.859655 8.42594 1.57514 7.82573 2.1788C6.64826 3.36441 5.45658 4.5283 4.26928 5.70196L4.32285 5.83442Z" fill="black"/>
</svg>
