<svg width="39" height="39" viewBox="0 0 39 39" fill="none" xmlns="http://www.w3.org/2000/svg">
<path d="M19.517 38.537C23.2983 38.537 26.9947 37.4157 30.1388 35.315C33.2829 33.2144 35.7335 30.2285 37.1808 26.7351C38.628 23.2418 39.0069 19.3977 38.2695 15.689C37.5321 11.9802 35.7116 8.57346 33.0381 5.89937C30.3646 3.22528 26.9582 1.40398 23.2497 0.665762C19.5411 -0.0724562 15.697 0.30556 12.2033 1.75201C8.70955 3.19847 5.72318 5.6484 3.62178 8.79203C1.52038 11.9357 0.398313 15.6318 0.397461 19.4131C0.396896 21.9243 0.891021 24.411 1.85161 26.7312C2.81221 29.0514 4.22046 31.1596 5.99593 32.9355C7.7714 34.7113 9.87931 36.1201 12.1993 37.0812C14.5193 38.0423 17.0058 38.537 19.517 38.537V38.537ZM9.14767 19.0014L27.5843 11.8928C28.4403 11.5836 29.187 12.1012 28.9097 13.3956L25.7722 28.1831C25.5397 29.2313 24.9161 29.4862 24.0446 28.9927L19.2638 25.4694L16.9583 27.6905C16.8448 27.8379 16.6987 27.9571 16.5316 28.0387C16.3644 28.1202 16.1806 28.162 15.9945 28.1607L16.3339 23.2956L25.1935 15.2912C25.5793 14.9519 25.1073 14.7607 24.5992 15.0983L13.6502 21.9882L8.93064 20.5155C7.90576 20.1908 7.88337 19.4906 9.14767 18.9971V19.0014Z" fill="white"/>
</svg>
