<svg width="38" height="38" viewBox="0 0 38 38" fill="none" xmlns="http://www.w3.org/2000/svg">
<path d="M19.1816 0.297852C15.4667 0.297681 11.8352 1.39913 8.74622 3.46291C5.65729 5.52669 3.24972 8.4601 1.82796 11.8922C0.406203 15.3243 0.0341175 19.1009 0.758759 22.7445C1.4834 26.388 3.27222 29.7349 5.89901 32.3618C8.5258 34.9887 11.8726 36.7777 15.5161 37.5025C19.1596 38.2273 22.9363 37.8554 26.3684 36.4338C29.8006 35.0122 32.7341 32.6048 34.798 29.5159C36.862 26.4271 37.9636 22.7956 37.9636 19.0807C37.9631 14.0994 35.9842 9.32236 32.462 5.80002C28.9398 2.27768 24.1628 0.298537 19.1816 0.297852V0.297852ZM27.7579 14.939C27.7659 15.1238 27.7699 15.3096 27.7699 15.4962C27.7814 17.1104 27.4719 18.7108 26.8596 20.2043C26.2472 21.6979 25.3441 23.0549 24.2028 24.1964C23.0615 25.338 21.7047 26.2414 20.2112 26.8541C18.7178 27.4667 17.1175 27.7765 15.5033 27.7654V27.7654C13.1602 27.7676 10.8661 27.0952 8.89496 25.8285C9.23628 25.8684 9.57964 25.8883 9.92329 25.8879C11.8646 25.8909 13.7505 25.2409 15.2776 24.0423C14.3781 24.0253 13.5063 23.7277 12.7842 23.1909C12.0622 22.6541 11.5259 21.9051 11.2505 21.0486C11.8967 21.1734 12.5629 21.148 13.1977 20.9745C12.2219 20.7775 11.3443 20.2489 10.7138 19.4784C10.0834 18.708 9.73897 17.7431 9.73898 16.7476C9.73898 16.7278 9.73898 16.7105 9.73898 16.6924C10.3373 17.0257 11.0068 17.2106 11.6914 17.2316C10.7785 16.622 10.1323 15.6874 9.88425 14.6181C9.63624 13.5487 9.80512 12.4251 10.3565 11.4759C11.4391 12.8078 12.7897 13.8971 14.3206 14.6731C15.8515 15.4491 17.5286 15.8944 19.2428 15.9802C19.0267 15.0556 19.1217 14.0856 19.5131 13.2206C19.9045 12.3556 20.5704 11.6439 21.4076 11.1959C22.2447 10.7479 23.2062 10.5886 24.1431 10.7428C25.08 10.897 25.9398 11.356 26.5892 12.0486C27.5547 11.8582 28.4806 11.5043 29.327 11.0022C29.0053 12.0005 28.332 12.8479 27.4323 13.387C28.287 13.286 29.1216 13.0572 29.9084 12.7083C29.3295 13.5738 28.601 14.3292 27.757 14.939H27.7579Z" fill="white"/>
</svg>
