<svg width="160" height="55" viewBox="0 0 160 55" fill="none" xmlns="http://www.w3.org/2000/svg">
<path d="M12.556 39.9131C12.5498 39.5994 12.6295 39.29 12.7864 39.0183C12.8359 38.9542 12.8627 38.8755 12.8627 38.7946C12.8627 38.7136 12.8359 38.635 12.7864 38.5709C12.4455 38.0204 12.1896 37.4217 12.0272 36.7949C11.9018 36.2727 11.8112 35.7428 11.7561 35.2086C11.698 34.4182 11.7116 33.6241 11.7967 32.8361C11.581 33.675 11.2765 34.4885 10.8884 35.2629C10.6164 35.8076 10.2796 36.3175 9.88515 36.7813C9.69885 37.0353 9.47483 37.2593 9.22083 37.4456C9.16412 37.4815 9.11793 37.5318 9.08697 37.5913C9.05601 37.6508 9.04138 37.7175 9.04459 37.7846C8.99291 38.8804 8.74972 39.9586 8.32604 40.9705C7.94605 41.9086 7.49274 42.8152 6.9703 43.682C6.73983 44.0616 6.41445 44.387 6.18397 44.7531C5.81792 45.3631 5.26207 45.797 4.82823 46.3664C4.39439 46.9358 4.25882 46.8002 3.93344 46.3664C3.60806 45.9326 3.28269 45.4987 2.99798 45.0107C2.71327 44.5226 2.53703 44.1837 2.30655 43.7769C1.88054 43.0103 1.53524 42.2016 1.27619 41.3637C1.04158 40.6271 0.882588 39.8685 0.801678 39.0996C0.706883 38.2209 0.706883 37.3346 0.801678 36.4559C0.801678 36.0356 0.584759 35.7103 0.489857 35.3442C0.345216 34.7607 0.245504 34.167 0.191594 33.5682C0.0774766 32.6621 0.132642 31.7427 0.354283 30.8567C0.600867 29.6847 1.21327 28.6213 2.10319 27.8199C2.3879 27.5623 2.74039 27.4674 2.99798 27.2098C3.25557 26.9522 3.14711 27.0742 3.10644 26.9657C2.91763 26.464 2.79459 25.94 2.74039 25.4066C2.69954 24.933 2.69954 24.4567 2.74039 23.9831C2.73005 23.3151 2.78453 22.6477 2.90308 21.9902C3.05948 21.3786 3.26346 20.7803 3.51316 20.2006C3.86403 19.4149 4.32013 18.6806 4.8689 18.0178C5.29851 17.4968 5.80075 17.0403 6.36022 16.6621C6.90233 16.3038 7.49071 16.021 8.10913 15.8215C8.54904 15.6859 9.00483 15.6084 9.46487 15.5911C10.2056 15.5422 10.9492 15.6248 11.6612 15.8351C12.2834 15.9786 12.8817 16.2115 13.4372 16.5265C13.7909 16.699 14.1309 16.8984 14.454 17.123C14.6031 17.2451 14.7116 17.123 14.8336 17.0553C15.1406 16.6987 15.4761 16.3677 15.8369 16.0656C16.5455 15.529 17.3655 15.1584 18.2365 14.981C18.9015 14.8794 19.578 14.8794 20.243 14.981C20.825 15.0769 21.3938 15.2407 21.9377 15.469C22.9515 15.8732 23.8736 16.4772 24.6492 17.2451C25.0448 17.6112 25.3871 18.0311 25.666 18.4923C26.0431 19.0546 26.3611 19.6543 26.615 20.2819C26.8243 20.8525 26.9742 21.4431 27.0624 22.0444C27.198 22.8704 27.198 23.713 27.0624 24.539C26.9474 25.1814 26.761 25.8089 26.5065 26.4099C26.2891 26.9738 26.007 27.5107 25.666 28.0097C25.5711 28.1317 25.666 28.1995 25.666 28.2808C25.9236 28.7418 26.2489 29.162 26.4794 29.6365C26.7463 30.1872 26.9684 30.7585 27.1437 31.3448C27.3723 32.1052 27.482 32.8963 27.4691 33.6902C27.4738 34.53 27.3551 35.366 27.1166 36.1712C26.9461 36.9086 26.6576 37.6136 26.2625 38.2591C25.8016 38.8827 26.0863 39.4386 26.1947 40.0215C26.2847 40.532 26.3345 41.0488 26.3439 41.5671C26.3535 42.2804 26.2669 42.9918 26.0863 43.682C25.9392 44.3062 25.7443 44.9181 25.5033 45.5123C25.1209 46.4101 24.6675 47.276 24.1476 48.1017C23.8684 48.4568 23.5649 48.7921 23.2392 49.105C22.7869 49.6702 22.2832 50.1921 21.7343 50.6641C21.3547 50.9895 20.9887 51.3013 20.5955 51.5996C19.7956 52.1825 18.9008 52.6435 18.1009 53.2265C17.4536 53.6384 16.8333 54.0913 16.2436 54.5822C16.1011 54.6867 15.9463 54.7733 15.7826 54.8398C15.6877 54.8398 15.5521 54.7449 15.4708 54.6364C15.3895 54.528 15.281 54.2839 15.1997 54.1077C15.1183 53.9314 15.1997 54.0128 15.281 53.9992C15.3409 54.0039 15.3989 54.0222 15.4506 54.0527C15.5023 54.0833 15.5463 54.1253 15.5793 54.1755C15.7013 54.4331 15.8504 54.4602 16.0809 54.2839C16.7723 53.7687 17.4366 53.2807 18.1958 52.7926C18.9551 52.3045 19.4296 52.0334 20.0261 51.6267C20.8334 51.0651 21.5869 50.4297 22.2766 49.7286C22.9593 49.0041 23.5805 48.2242 24.134 47.3968C24.7908 46.383 25.2933 45.2773 25.6253 44.1159C26.028 42.8604 26.1393 41.5298 25.9507 40.2249C25.9507 39.9809 25.8422 39.7368 25.8016 39.4928C25.7609 39.2488 25.6795 39.2894 25.544 39.4928C25.4084 39.6961 25.1915 39.9266 24.9881 40.13C24.9227 40.2089 24.8501 40.2815 24.7712 40.3469C24.6763 40.4147 24.5678 40.5367 24.4458 40.3469C24.3238 40.1571 24.4458 40.1435 24.4458 40.0351C24.4458 39.9266 24.839 39.6419 25.0152 39.4114C26.0289 38.1253 26.7047 36.6059 26.9811 34.9917C27.2153 33.4298 27.0473 31.834 26.493 30.3551C26.2765 29.7549 25.9752 29.1888 25.5982 28.674C25.4762 28.5113 25.3948 28.4977 25.2728 28.674C25.0619 28.9659 24.8356 29.2465 24.5949 29.5145C24.5 29.623 24.3916 29.7721 24.2289 29.6365C24.0662 29.501 24.1475 29.3654 24.2289 29.2434C24.7408 28.5835 25.1945 27.8804 25.5846 27.142C26.1464 26.0943 26.5008 24.9481 26.6286 23.7662C26.7689 22.5901 26.6151 21.3976 26.1812 20.2955C25.517 18.5529 24.246 17.1086 22.602 16.2283C21.8807 15.7938 21.0777 15.5123 20.243 15.4013C19.3315 15.2718 18.4023 15.3601 17.5315 15.6588C16.0732 16.2659 14.9002 17.4049 14.2506 18.8448C14.0208 19.3376 13.8523 19.8566 13.749 20.3904C13.5069 20.9797 13.3826 21.6107 13.383 22.2478C13.3972 23.2324 13.5902 24.2062 13.9524 25.1219C14.316 25.998 14.7997 26.8193 15.3895 27.5623C15.4844 27.6707 15.5657 27.7927 15.3895 27.9283C15.2132 28.0639 15.1183 27.9961 14.9963 27.9283C14.8912 27.8229 14.8 27.7045 14.7251 27.5758C14.5082 27.2776 14.3998 27.2911 14.21 27.5758C13.3009 29.0744 12.6501 30.7151 12.2848 32.4294C12.007 33.7389 12.007 35.0922 12.2848 36.4017C12.4737 37.3143 12.8677 38.172 13.4372 38.9098C13.5863 39.1132 13.8032 39.2488 13.9524 39.4521C14.1015 39.6555 14.1151 39.6826 13.9524 39.8046C13.7897 39.9266 13.7083 39.8046 13.6134 39.7368L13.2881 39.3843C13.044 39.1539 13.0169 39.1539 12.9085 39.4928C12.9139 39.5378 12.9139 39.5833 12.9085 39.6284C12.7593 39.7233 12.7729 39.9402 12.556 39.9131Z" fill="#244B0B"/>
<path d="M17.5446 14.9805C17.0336 14.0954 16.6674 13.1343 16.46 12.1335C15.9912 10.2231 15.9912 8.22771 16.46 6.31734C16.7181 5.36929 17.0963 4.45809 17.5853 3.60586C17.8124 3.24123 18.0758 2.90056 18.3716 2.58906C18.7477 2.17624 19.1657 1.80367 19.6189 1.47735C19.9147 1.26282 20.2329 1.081 20.5679 0.93505C20.9746 0.745246 21.3949 0.596115 21.8016 0.433426C22.0496 0.363377 22.3039 0.317965 22.5608 0.297852C22.71 0.297852 22.7235 0.392753 22.6557 0.501213C22.2748 1.2285 21.9791 1.99732 21.7745 2.79242C21.6609 3.2373 21.5838 3.69072 21.544 4.14816C21.4491 4.75824 21.3542 5.36833 21.2729 5.99197C21.1915 6.61561 21.0424 7.34771 20.9204 8.10692C20.7951 8.92331 20.5954 9.72654 20.3239 10.5066C19.9932 11.4541 19.5614 12.3631 19.0359 13.2181C18.8192 13.5666 18.5695 13.8934 18.2903 14.1942C18.0677 14.4798 17.8179 14.7431 17.5446 14.9805V14.9805Z" fill="#020302"/>
<path d="M30.6012 9.67969C30.6957 10.5835 30.6638 11.4961 30.5063 12.3912C30.4673 12.9334 30.3201 13.4623 30.0733 13.9467C29.8264 14.431 29.485 14.861 29.0692 15.2111C28.4648 15.6364 27.7584 15.8938 27.022 15.9568C26.3531 16.0225 25.6785 15.9997 25.0155 15.889C24.3819 15.7849 23.7567 15.6354 23.1446 15.4416C22.3718 15.2382 21.6126 14.9806 20.8534 14.7637C20.5009 14.6553 20.1755 14.4926 19.8095 14.4112C19.7146 14.4112 19.7146 14.3299 19.8095 14.235C19.9697 13.9168 20.191 13.6332 20.4609 13.4006C20.7307 13.168 21.0438 12.9908 21.3821 12.8792C22.0432 12.6567 22.7324 12.5289 23.4293 12.4996C24.0394 12.4996 24.6495 12.4047 25.246 12.3234C25.9235 12.2768 26.5816 12.0775 27.1711 11.7404C27.5575 11.4586 27.9202 11.1457 28.2557 10.805C28.8711 10.1522 29.7069 9.75119 30.6012 9.67969V9.67969Z" fill="#040503"/>
<path d="M8.15005 6.71094C8.44215 7.18243 8.79801 7.61128 9.20753 7.98533C9.80484 8.45657 10.4396 8.87825 11.1056 9.24617L12.6782 10.0461C13.2528 10.3828 13.8094 10.7494 14.3458 11.1442C14.7947 11.4714 15.1962 11.8593 15.5388 12.2966C15.7275 12.5319 15.8742 12.7979 15.9727 13.0829C16.2106 13.5871 16.3312 14.1387 16.3252 14.6963C16.3252 14.764 16.3252 14.8725 16.2438 14.8861C16.1625 14.8996 16.1218 14.8861 16.0676 14.8183C15.4663 14.3581 14.7228 14.1231 13.9662 14.154C13.251 14.1505 12.5395 14.0502 11.8512 13.8557C11.4374 13.699 11.0525 13.4745 10.7124 13.1914C10.0865 12.69 9.54615 12.0901 9.11263 11.4154C8.7536 10.8553 8.46234 10.2545 8.24496 9.62578C8.01137 8.9089 7.9103 8.15547 7.94669 7.40237C7.93162 7.27934 7.94189 7.15453 7.97686 7.03562C8.01184 6.91671 8.07078 6.80622 8.15005 6.71094V6.71094Z" fill="#030402"/>
<path d="M15.3354 53.9579L15.2405 54.0393C14.9405 53.6153 14.686 53.1609 14.4813 52.6835C14.1171 51.8988 13.8002 51.0929 13.5323 50.2703C13.3697 49.7534 13.2339 49.2285 13.1255 48.6976C13.0035 48.1282 12.8544 47.5724 12.7866 47.003C12.7188 46.4336 12.6239 45.6472 12.6103 45.0507C12.5968 44.4542 12.4883 43.5729 12.4748 42.8273C12.4612 42.0816 12.4748 41.7562 12.4748 41.2139C12.4725 40.7608 12.4997 40.3079 12.5561 39.8582C12.7324 39.8582 12.6646 39.6277 12.7866 39.5464C12.8951 39.682 12.7866 39.8311 12.7866 39.9667C12.7866 41.1733 12.7866 42.3934 12.7866 43.6001C12.7866 44.4948 12.8815 45.3896 12.99 46.3115C13.1679 47.725 13.4951 49.1156 13.9661 50.4601C14.2508 51.3007 14.6033 52.1277 14.9693 52.9411C14.9693 53.0767 15.132 53.1851 15.1998 53.3207C15.2676 53.4563 15.4303 53.7139 15.3354 53.9579Z" fill="#486914"/>
<path fill-rule="evenodd" clip-rule="evenodd" d="M47.6421 17.9229C49.0031 17.0411 50.6255 16.6534 52.2381 16.8247C52.6157 16.8624 52.9883 16.9397 53.3498 17.0552C53.9931 17.247 54.6017 17.5399 55.153 17.9229C55.6742 18.2996 56.1319 18.7573 56.5087 19.2786C56.9712 19.839 57.3211 20.4835 57.5391 21.1767C57.7069 21.6884 57.7893 22.2243 57.7831 22.7629C57.7496 23.3751 57.6403 23.9807 57.4577 24.566C57.3764 24.8643 57.6204 24.9727 57.7967 24.9863C57.8885 24.9934 57.9693 24.9599 58.0506 24.9262C58.1253 24.8953 58.2003 24.8643 58.2847 24.8643C58.9304 24.7177 59.5393 24.4409 60.0743 24.0508C60.1633 23.9829 60.2345 23.8943 60.2818 23.7928C60.329 23.6912 60.3508 23.5797 60.3454 23.4679V22.0172C60.3282 21.4796 60.2416 20.9464 60.0879 20.431C59.8465 19.5299 59.427 18.6863 58.8541 17.95C58.3938 17.4014 57.8653 16.9139 57.2815 16.4993C56.7226 16.1295 56.116 15.8376 55.4783 15.6317C54.9105 15.4079 54.3193 15.2487 53.7159 15.1572C53.0297 15.0531 52.3349 15.0168 51.6416 15.0487C50.9611 15.0619 50.2819 15.1163 49.608 15.2114C48.614 15.3929 47.6479 15.7028 46.7338 16.1333C46.0318 16.4779 45.3683 16.896 44.7544 17.3806C43.9628 18.0228 43.3003 18.8095 42.8021 19.6989C42.3744 20.4104 42.0718 21.1899 41.9074 22.0037C41.6816 23.0267 41.604 24.0768 41.6769 25.1219C41.7594 25.9056 41.9417 26.6755 42.2192 27.4131C42.3018 27.7219 42.4346 28.015 42.6123 28.2807C42.7947 28.5107 42.9678 28.7499 43.1397 28.9875L43.1397 28.9875L43.1398 28.9875C43.2618 29.1562 43.3833 29.3241 43.5071 29.4874C43.8447 29.9061 44.2116 30.3003 44.6053 30.6668C45.2074 31.2533 45.8458 31.8012 46.5169 32.3073C46.6991 32.4414 46.87 32.5677 47.0369 32.6909L47.0371 32.6911L47.0372 32.6912C47.5281 33.0538 47.9842 33.3907 48.5912 33.8257C48.9561 34.0873 49.3265 34.3406 49.6975 34.5944C50.1534 34.9062 50.6101 35.2186 51.0586 35.5475C51.9945 36.215 52.866 36.9684 53.6616 37.798C54.2307 38.3576 54.606 39.0844 54.7327 39.8723C54.7868 40.3589 54.7868 40.85 54.7327 41.3365C54.6893 42.1339 54.4057 42.8995 53.9192 43.5328C53.4542 44.1825 52.7866 44.6594 52.0212 44.8886C51.927 44.9163 51.8305 44.9395 51.7336 44.9627L51.7336 44.9628C51.5934 44.9964 51.4524 45.0303 51.3162 45.0784C50.6598 45.261 49.9661 45.261 49.3097 45.0784C48.6862 44.9312 48.0846 44.7034 47.5201 44.4005C46.5095 43.9011 45.5923 43.2315 44.8086 42.4211C44.768 42.3262 44.7273 42.3262 44.6595 42.3262C44.6442 42.3848 44.649 42.4469 44.6731 42.5025C44.6179 42.8322 44.5269 43.155 44.4019 43.465C44.3453 43.6105 44.3386 43.7705 44.3828 43.9202C44.4269 44.0699 44.5195 44.2006 44.646 44.2921C44.7289 44.3525 44.8061 44.4206 44.8764 44.4954C45.3143 44.9453 45.8226 45.3208 46.3813 45.6071C47.6364 46.257 49.0356 46.5788 50.4485 46.5426C51.4707 46.5199 52.4824 46.3322 53.4447 45.9867C54.3443 45.6442 55.1486 45.091 55.7901 44.3734C56.4641 43.6372 56.9031 42.7167 57.051 41.7297C57.2263 40.5088 57.1337 39.2643 56.7798 38.0828C56.6813 37.7821 56.5542 37.4915 56.4002 37.2151C56.0159 36.5493 55.5614 35.9267 55.0445 35.3577C54.5554 34.8325 54.0249 34.3474 53.4583 33.9071C52.8209 33.3856 52.1507 32.9056 51.4518 32.47C51.3173 32.3837 51.1766 32.2941 51.0332 32.2027L51.0331 32.2027L51.033 32.2026C50.4104 31.806 49.7369 31.377 49.2961 31.0465C49.1111 30.9077 48.9198 30.7737 48.7275 30.639L48.7275 30.639C48.3563 30.3789 47.9815 30.1164 47.6421 29.8127C47.145 29.406 46.6931 28.9857 46.2864 28.5519C45.6821 27.9257 45.2116 27.183 44.9035 26.3691C44.8222 26.098 44.7409 25.8404 44.646 25.5693C44.4706 24.9101 44.4428 24.2203 44.5646 23.5492C44.6571 22.8899 44.8115 22.2408 45.0256 21.6105C45.3016 20.662 45.7623 19.7773 46.3813 19.0075C46.7497 18.5897 47.174 18.2247 47.6421 17.9229ZM79.7326 42.8278C79.5971 43.9938 79.9767 44.8072 80.9528 44.9563C81.1529 45.0058 81.3611 45.0128 81.564 44.977C81.767 44.9413 81.9602 44.8634 82.1313 44.7485C82.3024 44.6336 82.4475 44.4842 82.5575 44.3098C82.6674 44.1355 82.7396 43.9401 82.7695 43.7362C82.9593 42.4753 82.5661 41.8246 81.6035 41.6483C81.4034 41.5657 81.1863 41.5323 80.9705 41.5508C80.7547 41.5693 80.5465 41.6392 80.3633 41.7547C80.1801 41.8702 80.0273 42.0279 79.9175 42.2146C79.8078 42.4013 79.7444 42.6116 79.7326 42.8278ZM112.392 16.2138C112.222 16.2412 112.048 16.2412 111.877 16.2138C111.199 16.2003 110.535 16.1596 109.871 16.1054L109.515 16.1167C108.348 16.154 107.083 16.1943 106.075 16.2681C105.63 16.3006 105.185 16.3245 104.741 16.3483C104.074 16.3841 103.407 16.4199 102.74 16.485C102.37 16.522 102 16.5559 101.63 16.5899C100.644 16.6804 99.6583 16.7709 98.6723 16.9188C98.3007 16.976 97.9243 17.0163 97.544 17.057L97.544 17.057C97.0225 17.1128 96.4939 17.1694 95.9608 17.2713C95.6189 17.3367 95.2676 17.3965 94.9167 17.4562C94.3215 17.5575 93.7274 17.6586 93.1816 17.7865C92.7948 17.8771 92.4216 17.9543 92.0438 18.0324C91.5739 18.1296 91.097 18.2281 90.5785 18.3559C89.6431 18.5864 88.7483 18.8169 87.867 19.088C86.7748 19.4399 85.7062 19.861 84.6675 20.3488C84.621 20.3617 84.578 20.3847 84.5415 20.4162C84.505 20.4478 84.476 20.487 84.4565 20.5311C84.4371 20.5752 84.4277 20.6231 84.429 20.6713C84.4303 20.7195 84.4423 20.7668 84.4641 20.8098C84.5365 21.0682 84.7665 21.2163 84.9559 21.3382C85.0148 21.3762 85.0698 21.4116 85.1149 21.447C85.2316 21.5387 85.3022 21.4714 85.3708 21.4061C85.4137 21.3651 85.4559 21.325 85.5081 21.325C85.7202 21.2615 85.9247 21.1751 86.1181 21.0674C86.9147 20.7701 87.7299 20.5256 88.5585 20.3353C88.9187 20.2717 89.2044 20.2081 89.5774 20.1252L89.5776 20.1251C89.6818 20.1019 89.7928 20.0772 89.9142 20.0506C90.47 19.9286 91.0258 19.8337 91.5817 19.7388L91.5817 19.7388L91.5818 19.7388L93.1002 19.5083L94.6458 19.2914L96.2455 19.1151L98.3876 18.8982L99.8925 18.7897C100.044 18.7784 100.201 18.7649 100.358 18.7514C100.764 18.7165 101.174 18.6813 101.506 18.6813H102.862C103.241 18.6813 103.6 18.6637 103.952 18.6464C104.291 18.6298 104.624 18.6135 104.963 18.6135H106.983C108.013 18.627 109.044 18.6542 110.074 18.7491C110.919 18.7706 111.758 18.9028 112.569 19.1422C112.691 19.1693 112.799 19.1693 112.799 19.0067V16.729C112.786 16.485 112.745 16.2138 112.392 16.2138ZM95.9269 39.2619L95.9269 39.2618C95.9506 39.0144 95.9744 38.7671 95.9744 38.5163C95.9929 38.4043 96.002 38.2909 96.0015 38.1774C96.0122 37.7238 96.0484 37.2711 96.1099 36.8216C96.2184 36.3742 96.2184 35.9268 96.2184 35.4659C96.2425 35.0163 96.2761 34.581 96.3079 34.1684L96.3081 34.1666L96.3082 34.1646C96.33 33.8818 96.351 33.6096 96.3675 33.3509C96.3817 33.1293 96.4024 32.9011 96.4234 32.6698L96.4234 32.6697L96.4234 32.6696C96.4627 32.2359 96.5031 31.7912 96.5031 31.358C96.5167 31.1953 96.5438 31.0733 96.7336 31.0733C97.1315 31.0156 97.5171 30.9555 97.9051 30.895L97.9052 30.895L97.9054 30.8949C98.4295 30.8132 98.9578 30.7309 99.5264 30.653C100.516 30.5174 101.492 30.4225 102.482 30.3412C102.546 30.3407 102.61 30.3245 102.667 30.2937C102.723 30.263 102.772 30.2187 102.807 30.1649C103.265 29.4429 103.586 28.6435 103.756 27.8059C103.797 27.6704 103.743 27.5755 103.485 27.5755C103.159 27.6507 102.823 27.7001 102.489 27.7492C102.281 27.7798 102.075 27.8102 101.872 27.8466L100.069 28.1313C99.7951 28.1683 99.5215 28.2295 99.2479 28.2906C99.0198 28.3416 98.7918 28.3926 98.5638 28.4296C97.9701 28.5073 97.3816 28.6204 96.8014 28.7685C96.4082 28.8634 96.3811 28.7549 96.4082 28.4431C96.4184 28.3263 96.4342 28.2094 96.4501 28.0926L96.4501 28.0923C96.4766 27.8974 96.5031 27.7026 96.5031 27.5077C96.5096 27.1545 96.5446 26.817 96.579 26.4847L96.579 26.4846C96.6159 26.1282 96.6522 25.7776 96.6522 25.4198C96.7607 24.9589 96.7607 24.5115 96.7607 24.0641C96.7852 23.4342 96.8394 22.8092 96.8934 22.1862L96.8934 22.1861L96.8935 22.1854L96.8935 22.1853C96.9289 21.7761 96.9643 21.3678 96.9912 20.9594C97.0167 20.8198 96.9891 20.6756 96.9139 20.5552C96.8387 20.4349 96.7212 20.3469 96.5844 20.3087C95.9851 20.0384 95.3292 19.9175 94.6729 19.9562C94.6165 19.9459 94.5585 19.9485 94.5033 19.9637C94.4481 19.979 94.397 20.0066 94.354 20.0444C94.3109 20.0823 94.277 20.1294 94.2547 20.1822C94.2325 20.235 94.2225 20.2921 94.2255 20.3493V21.7051V23.2642V24.7284V26.0841V27.5212V28.9719C94.239 29.2295 94.0628 29.365 93.8594 29.365C92.9375 29.5413 92.0427 29.7718 91.1479 30.0022C90.5433 30.1669 89.9501 30.3707 89.3719 30.6123C89.1279 30.7072 88.8025 30.8835 88.8838 31.2088C88.9723 31.6861 89.1419 32.1447 89.3855 32.5646H89.5617C89.8549 32.3576 90.195 32.2272 90.5514 32.185C91.206 32.0295 91.8704 31.9037 92.5358 31.7777L92.5359 31.7776L92.536 31.7776L92.536 31.7776L92.5361 31.7776C92.9731 31.6949 93.4105 31.612 93.8458 31.5207C94.117 31.48 94.117 31.5342 94.117 31.7511V32.4155C94.1035 32.7044 94.0854 32.9904 94.0673 33.2764L94.0673 33.2771C94.0311 33.8495 93.995 34.4219 93.995 35.0185C93.995 35.4641 93.9748 35.9131 93.9545 36.3638L93.9545 36.364C93.9341 36.8182 93.9136 37.2741 93.9136 37.73C93.871 38.0571 93.8693 38.388 93.8676 38.7325V38.7325C93.8661 39.0446 93.8645 39.3678 93.8323 39.7093C93.7645 40.4279 93.7645 41.1464 93.7645 41.865V43.2207C93.7717 43.6881 93.7484 44.167 93.7249 44.6492L93.7249 44.6494V44.6495V44.6496C93.7041 45.0764 93.6832 45.5058 93.6832 45.9322C93.6707 46.0824 93.7077 46.2326 93.7884 46.3598C93.8692 46.4871 93.9893 46.5845 94.1306 46.6372C94.2921 46.7076 94.4601 46.7621 94.6322 46.7999C95.1609 46.9219 95.4321 46.7456 95.4321 46.2982C95.4174 45.9242 95.4543 45.5582 95.4913 45.1914L95.4913 45.1913C95.5227 44.8801 95.5541 44.5685 95.5541 44.2511C95.5601 44.1541 95.5648 44.0585 95.5696 43.9628C95.5859 43.63 95.6024 43.2954 95.6761 42.8953C95.771 42.3802 95.771 41.865 95.771 41.3633C95.8363 40.9142 95.8726 40.4614 95.8795 40.0076C95.8795 39.7568 95.9032 39.5094 95.9269 39.2621L95.9269 39.2619ZM104.583 26.6532C104.606 26.3318 104.694 26.0182 104.841 25.7313C104.905 25.5265 105.018 25.3399 105.168 25.1869C105.319 25.0339 105.504 24.9189 105.708 24.8514C105.912 24.7838 106.129 24.7657 106.341 24.7985C106.553 24.8313 106.755 24.914 106.929 25.0399C107.2 25.2291 107.404 25.4998 107.512 25.8127C107.71 26.2358 107.784 26.7069 107.724 27.1704C107.664 27.6339 107.473 28.0707 107.173 28.4293C107.046 28.5647 106.893 28.6727 106.722 28.7465C106.552 28.8203 106.369 28.8584 106.183 28.8584C105.998 28.8584 105.814 28.8203 105.644 28.7465C105.473 28.6727 105.32 28.5647 105.193 28.4293C104.979 28.1882 104.815 27.9071 104.711 27.6023C104.606 27.2975 104.563 26.9749 104.583 26.6532ZM159.557 37.649C159.606 37.6557 159.653 37.6622 159.694 37.6622C159.83 37.6486 159.938 37.8113 159.816 37.9875C159.726 38.5061 159.585 39.0146 159.396 39.506C159.127 40.2666 158.81 41.0093 158.447 41.7294C158.142 42.2896 157.774 42.8127 157.349 43.2885C156.863 43.8997 156.222 44.3682 155.491 44.6442C155.018 44.8316 154.504 44.8923 154 44.8205C153.577 44.7625 153.173 44.6107 152.816 44.3761C152.46 44.1415 152.16 43.8301 151.939 43.4647C151.54 42.8374 151.256 42.1443 151.099 41.4176C151.023 41.1478 150.978 40.8704 150.963 40.5906C150.73 40.8612 150.55 41.1742 150.435 41.5125C149.934 42.5818 149.18 43.5127 148.238 44.2239C147.568 44.7111 146.747 44.9463 145.92 44.8883C145.353 44.8497 144.819 44.6092 144.415 44.2104C143.632 43.4011 143.12 42.3682 142.951 41.2549C142.776 41.4553 142.646 41.6911 142.571 41.9463C142.187 42.8469 141.592 43.642 140.836 44.2646C140.515 44.5698 140.12 44.7865 139.689 44.8934C139.259 45.0004 138.809 44.9939 138.382 44.8747C138.177 44.8103 137.99 44.6981 137.837 44.5472C137.683 44.3963 137.568 44.2112 137.501 44.007C137.252 43.3239 137.115 42.6052 137.094 41.8785C137.062 40.6753 137.099 39.4713 137.202 38.2722C137.297 37.3232 137.297 36.3742 137.297 35.4252C137.323 34.7842 137.245 34.1434 137.067 33.5271L137.064 33.5191C136.916 33.0467 136.751 32.5232 136.104 32.4019C135.845 32.3591 135.579 32.3927 135.338 32.4986C135.097 32.6046 134.892 32.7782 134.749 32.9984C134.181 33.9836 133.795 35.0628 133.61 36.1844C133.554 36.3949 133.501 36.6235 133.447 36.8608L133.447 36.8612L133.447 36.8614L133.446 36.8619L133.446 36.8621C133.396 37.083 133.343 37.3116 133.284 37.5401C133.23 37.9587 133.23 38.3825 133.284 38.801V40.333V42.3937V43.8579C133.265 43.9791 133.265 44.1027 133.284 44.2239C133.31 44.2702 133.323 44.3222 133.323 44.375C133.322 44.4277 133.309 44.4795 133.283 44.5256C133.257 44.5717 133.22 44.6104 133.175 44.6383C133.131 44.6661 133.08 44.6822 133.027 44.6849C132.452 44.8243 131.847 44.7719 131.305 44.5358C131.165 44.4584 131.051 44.3408 130.979 44.1982C130.906 44.0556 130.878 43.8946 130.898 43.7359C130.904 43.4515 130.924 43.1563 130.944 42.8575L130.944 42.857C130.968 42.4865 130.993 42.1106 130.993 41.7429V41.2549L130.935 41.3807L130.842 41.5802C130.708 41.8721 130.576 42.1569 130.437 42.4344C130.03 43.3746 129.332 44.1589 128.444 44.6713C128.21 44.7589 127.953 44.7721 127.711 44.709C127.468 44.646 127.251 44.5097 127.089 44.3188C126.849 44.0808 126.692 43.7718 126.641 43.4376C126.641 43.3563 126.506 43.2478 126.506 43.2478C126.273 43.6633 125.943 44.016 125.544 44.2758C125.145 44.5355 124.689 44.6945 124.214 44.7391C123.807 44.7756 123.397 44.7243 123.011 44.5887C122.625 44.453 122.272 44.2362 121.978 43.9528C121.395 43.3617 120.979 42.6275 120.771 41.8243C120.779 41.7477 120.779 41.6704 120.771 41.5938L120.649 41.3769C120.554 41.5564 120.458 41.7313 120.364 41.9044L120.363 41.905C120.23 42.15 120.098 42.3915 119.971 42.6377C119.649 43.2141 119.216 43.7209 118.697 44.129C118.36 44.455 117.94 44.681 117.483 44.7815C117.025 44.8821 116.549 44.8533 116.107 44.6985C115.808 44.5871 115.565 44.3633 115.429 44.0748C115.135 43.3938 114.978 42.6611 114.968 41.9192C114.9 40.804 114.9 39.6857 114.968 38.5705L115.09 36.6047C115.181 35.5622 115.122 34.512 114.914 33.4865C114.885 33.2367 114.792 32.9985 114.645 32.7944C114.498 32.5904 114.301 32.4273 114.074 32.3205C113.774 32.2132 113.445 32.2219 113.151 32.3448C112.858 32.4677 112.621 32.6961 112.487 32.9848C112.018 33.8343 111.675 34.7478 111.471 35.6963C111.36 36.1097 111.275 36.5294 111.189 36.951L111.189 36.9512C111.148 37.1517 111.107 37.3527 111.064 37.5537C111.023 37.982 111.023 38.4133 111.064 38.8417V40.3059V42.4886C111.145 43.0038 111.145 43.5054 111.145 44.0205V44.0206C111.145 44.0681 111.166 44.1214 111.187 44.1762C111.239 44.3087 111.294 44.4494 111.064 44.5358C110.888 44.6111 110.699 44.6525 110.508 44.6578C110.077 44.7124 109.639 44.6418 109.247 44.4544C109.111 44.3874 108.996 44.2856 108.913 44.1593C108.829 44.0331 108.781 43.8869 108.773 43.7359C108.838 43.3746 108.841 43.0094 108.844 42.6465V42.6463C108.847 42.3284 108.85 42.0124 108.895 41.7023C108.909 41.6079 108.909 41.5119 108.895 41.4176C108.507 42.3628 107.967 43.2377 107.295 44.007C107.099 44.2083 106.857 44.3592 106.591 44.4465C106.324 44.5339 106.04 44.5552 105.763 44.5087C105.554 44.4701 105.359 44.3789 105.195 44.2437C105.031 44.1084 104.905 43.9337 104.827 43.7359C104.498 43.0729 104.367 42.3295 104.448 41.5938V40.333V38.8688C104.448 37.974 104.488 37.025 104.529 36.1573C104.56 35.4928 104.615 34.8282 104.67 34.1698C104.686 33.9685 104.703 33.7678 104.719 33.5678L104.841 31.5206C104.887 31.3243 104.919 31.125 104.936 30.9241C104.922 30.7208 105.099 30.7208 105.234 30.7208C105.773 30.7538 106.293 30.9318 106.739 31.2359C106.85 31.3401 106.933 31.4704 106.98 31.6149C107.027 31.7593 107.038 31.9134 107.01 32.0629C106.992 32.2736 106.974 32.4838 106.955 32.6936L106.955 32.6955L106.955 32.6976L106.955 32.6978C106.874 33.6072 106.793 34.5094 106.793 35.4116L106.671 37.4452C106.59 38.5027 106.59 39.5601 106.59 40.6176V40.6177V42.5835C106.59 42.9631 106.658 43.0038 106.969 42.8004C107.339 42.493 107.623 42.0964 107.796 41.648C108.033 41.1743 108.201 40.6759 108.369 40.1796C108.479 39.8522 108.589 39.5257 108.718 39.2077C108.901 38.6247 108.983 38.0151 108.962 37.4046V36.0488V33.8525C108.962 33.6907 108.964 33.5244 108.965 33.3581V33.358L108.965 33.3554C108.968 33.021 108.971 32.6866 108.962 32.3883C108.956 32.1795 108.926 31.9708 108.896 31.7606C108.862 31.5204 108.827 31.2784 108.827 31.0326C108.813 30.9106 108.813 30.7885 108.976 30.7885C109.297 30.6949 109.634 30.6695 109.966 30.7139C110.297 30.7582 110.616 30.8714 110.901 31.0461C111 31.1061 111.08 31.1924 111.133 31.2953C111.186 31.3983 111.209 31.5138 111.199 31.6291V33.8254C111.434 33.2449 111.744 32.6978 112.121 32.1985C112.422 31.7894 112.783 31.4282 113.192 31.1275C113.808 30.6973 114.566 30.5223 115.307 30.6394C115.692 30.6764 116.05 30.8552 116.311 31.141C116.735 31.6314 117.046 32.2103 117.219 32.8357C117.467 33.9658 117.562 35.1239 117.504 36.2793C117.504 37.4046 117.409 38.6383 117.314 39.628L117.297 39.8057L117.281 39.9615C117.196 40.8398 117.11 41.717 117.11 42.5835C117.09 42.8708 117.117 43.1595 117.192 43.4376C117.273 43.7359 117.476 43.9257 117.748 43.8308C118.087 43.7463 118.391 43.5564 118.615 43.2885C119.007 42.7938 119.335 42.2517 119.591 41.6752C119.802 41.1909 119.98 40.6902 120.157 40.1923C120.208 40.049 120.258 39.9059 120.31 39.7636C120.46 39.2074 120.511 38.6291 120.459 38.0553C120.471 37.6749 120.512 37.3141 120.557 36.9145V36.9144C120.565 36.8441 120.573 36.7726 120.581 36.6996C120.635 36.2115 120.69 35.7777 120.784 35.3438C120.875 34.8841 120.998 34.4311 121.151 33.9881C121.372 33.3502 121.708 32.7577 122.14 32.2392C122.725 31.4958 123.576 31.0094 124.513 30.8834C124.872 30.7813 125.252 30.7813 125.611 30.8834C125.907 31.0097 126.173 31.1951 126.395 31.4282C126.616 31.6614 126.788 31.9374 126.899 32.2392C127.077 31.9419 127.154 31.5942 127.116 31.2495C127.102 30.9919 127.197 30.9919 127.387 30.9919C127.68 30.9704 127.974 31.0112 128.249 31.1117C128.525 31.2122 128.776 31.3701 128.987 31.5749C129.23 31.8592 129.2 32.1587 129.17 32.462V32.4621V32.4622C129.16 32.5638 129.149 32.6659 129.149 32.7679L128.987 35.5472C128.987 35.9375 128.922 36.36 128.856 36.7928C128.787 37.247 128.716 37.7125 128.716 38.1638C128.716 38.6044 128.699 39.0416 128.682 39.4789L128.682 39.48C128.665 39.9169 128.648 40.3537 128.648 40.7939V42.7869C128.651 42.8172 128.649 42.8501 128.648 42.8834C128.643 42.984 128.637 43.0884 128.77 43.1394C128.939 43.2045 129.046 43.0819 129.138 42.9761L129.149 42.9631C129.558 42.4626 129.883 41.8995 130.112 41.2955C130.288 40.8791 130.442 40.4537 130.573 40.0211C130.789 39.4823 130.952 38.9238 131.061 38.3536V36.9978V35.4794V32.7679C131.049 32.5525 131.023 32.3395 130.996 32.1269V32.1269L130.996 32.1265C130.961 31.8442 130.925 31.5626 130.925 31.2766C130.925 31.1275 130.925 30.9648 131.115 30.9648C131.733 30.8458 132.373 30.9216 132.945 31.1817C133.312 31.3851 133.312 31.7376 133.312 32.0494V34.0559C133.506 33.6131 133.728 33.1829 133.976 32.7679C134.357 32.1813 134.844 31.671 135.413 31.2631C135.724 31.0606 136.073 30.9216 136.438 30.8541C136.803 30.7866 137.178 30.792 137.541 30.8699C137.949 30.955 138.314 31.1805 138.572 31.5071C139.053 32.1111 139.366 32.8312 139.48 33.5949C139.623 34.6006 139.677 35.6167 139.643 36.6318C139.629 37.4859 139.561 38.5569 139.494 39.1941C139.477 39.3504 139.458 39.5099 139.439 39.6715C139.379 40.1688 139.317 40.6857 139.317 41.1871C139.229 41.8939 139.229 42.6088 139.317 43.3156C139.326 43.3972 139.354 43.4755 139.4 43.5436C139.445 43.6118 139.507 43.6677 139.579 43.7065C139.651 43.7453 139.732 43.7658 139.814 43.7662C139.896 43.7666 139.977 43.7469 140.05 43.7088C140.512 43.5033 140.893 43.1505 141.134 42.7055C141.579 41.9537 141.947 41.1588 142.232 40.333C142.432 39.8197 142.6 39.2945 142.734 38.7603C142.829 38.34 142.829 37.9062 142.829 37.4724C142.853 36.9942 142.912 36.5185 143.005 36.0488C143.109 35.4165 143.254 34.7916 143.439 34.1779C143.616 33.582 143.871 33.0122 144.198 32.4832C144.446 32.0592 144.767 31.6828 145.147 31.3715C145.543 31.037 146.045 30.8535 146.564 30.8535C147.082 30.8535 147.584 31.037 147.981 31.3715C148.349 31.6831 148.637 32.0782 148.821 32.5239C149.232 33.4385 149.423 34.437 149.377 35.4387C149.379 36.1412 149.226 36.8355 148.93 37.4724C148.717 37.777 148.42 38.0127 148.076 38.1502C148.007 38.1821 147.93 38.1901 147.856 38.1729C147.782 38.1557 147.716 38.1143 147.669 38.0553C147.62 37.9683 147.595 37.8703 147.595 37.7706C147.595 37.6709 147.62 37.5729 147.669 37.4859C147.932 36.6075 148.037 35.6896 147.981 34.7744C147.967 34.2354 147.875 33.7013 147.709 33.1882C147.619 32.7542 147.379 32.3657 147.032 32.0901C146.965 32.0377 146.887 32.0017 146.804 31.985C146.721 31.9682 146.635 31.9712 146.553 31.9936C146.472 32.016 146.396 32.0572 146.333 32.114C146.27 32.1708 146.222 32.2415 146.191 32.3205C145.827 33.2232 145.567 34.1649 145.418 35.1269C145.269 35.9675 145.161 36.808 145.079 37.6486C144.93 38.8234 144.93 40.0123 145.079 41.1871C145.134 42.028 145.463 42.8278 146.015 43.4647C146.571 44.0477 147.113 44.0206 147.926 43.5596C148.917 42.9136 149.669 41.9614 150.068 40.8482C150.349 40.2751 150.584 39.6814 150.773 39.0721C150.924 38.4725 151.015 37.8594 151.045 37.2419C151.099 36.6615 151.198 36.1166 151.299 35.5641L151.3 35.5558L151.301 35.5511C151.324 35.4239 151.347 35.2962 151.37 35.1676C151.524 34.3587 151.799 33.5773 152.183 32.8493C152.357 32.4221 152.62 32.0368 152.955 31.7189C153.289 31.401 153.687 31.1578 154.122 31.0055C154.533 30.8478 154.983 30.8233 155.409 30.9351C155.835 31.047 156.214 31.2898 156.495 31.6291C156.835 32.038 157.114 32.4948 157.322 32.9848C157.691 33.9957 157.861 35.0683 157.823 36.1437C157.855 37.3337 157.633 38.5167 157.173 39.6144C156.971 40.1417 156.667 40.6239 156.279 41.0334C155.89 41.4429 155.424 41.7716 154.908 42.0005C154.589 42.1429 154.242 42.2124 153.892 42.2039C153.512 42.2039 153.471 42.2717 153.607 42.5971C153.786 43.0861 154.145 43.4885 154.61 43.7223C154.844 43.7971 155.095 43.7971 155.329 43.7223C155.902 43.6005 156.421 43.296 156.807 42.8546C157.564 41.9934 158.148 40.9946 158.528 39.9127C158.781 39.2424 158.98 38.5534 159.125 37.852C159.178 37.5974 159.38 37.625 159.557 37.649ZM125.53 43.1665C125.874 42.8378 126.131 42.4275 126.275 41.9734C126.449 41.6367 126.551 41.2672 126.573 40.8888C126.533 40.379 126.533 39.8667 126.573 39.3568C126.623 39.0385 126.625 38.7459 126.626 38.4195V38.4194V38.4193V38.4193C126.628 38.1203 126.629 37.7928 126.668 37.391C126.713 36.9325 126.733 36.474 126.753 36.0155C126.77 35.6335 126.787 35.2514 126.818 34.8693C126.915 34.1959 126.855 33.5089 126.641 32.8628C126.477 32.5184 126.252 32.2061 125.977 31.9409C125.842 31.7881 125.661 31.6833 125.462 31.6427C125.235 31.6325 125.01 31.6794 124.806 31.7788C124.603 31.8783 124.427 32.0273 124.296 32.2121C123.843 32.792 123.532 33.4699 123.387 34.1915C123.126 35.1744 122.94 36.1761 122.832 37.1876C122.73 38.1793 122.73 39.1787 122.832 40.1703C122.886 41.1117 123.126 42.0331 123.537 42.8818C123.616 43.0673 123.749 43.2253 123.917 43.3361C124.086 43.447 124.284 43.5059 124.486 43.5054C124.674 43.5355 124.867 43.5204 125.048 43.4615C125.23 43.4026 125.395 43.3015 125.53 43.1665ZM153.16 38.7332C153.099 39.5183 153.099 40.307 153.16 41.0922H153.173C153.227 41.5531 153.254 41.6345 153.743 41.5396C154.024 41.5206 154.298 41.4371 154.542 41.2955C155.265 40.6996 155.747 39.8613 155.898 38.9366L155.925 38.8178C156.024 38.3756 156.115 37.9668 156.115 37.5808C156.182 37.1319 156.218 36.6789 156.224 36.2251C156.278 35.5302 156.278 34.8321 156.224 34.1372C156.189 33.4051 155.975 32.6926 155.6 32.0629C155.543 31.9645 155.461 31.8827 155.362 31.8259C155.263 31.7691 155.151 31.7392 155.037 31.7392C154.923 31.7392 154.811 31.7691 154.713 31.8259C154.614 31.8827 154.532 31.9645 154.475 32.0629C154.193 32.5362 153.996 33.0545 153.892 33.5949C153.659 34.4152 153.501 35.2546 153.417 36.1031C153.276 36.9735 153.19 37.852 153.16 38.7332ZM76.4382 44.549C76.3704 45.1184 76.289 45.837 76.289 46.4741C76.2836 46.5471 76.2783 46.6201 76.2731 46.6929C76.2396 47.1609 76.2066 47.6208 76.1128 48.0197C76.0152 49.1376 75.7501 50.2344 75.3264 51.2735C74.9459 52.1056 74.2899 52.7808 73.4691 53.1851C72.6205 53.5703 71.6749 53.6885 70.7576 53.524C70.3866 53.458 70.0335 53.3154 69.7207 53.1053C69.4079 52.8953 69.1423 52.6223 68.9409 52.3038C68.5584 51.7075 68.3045 51.038 68.1952 50.338C68.1055 49.8907 68.0466 49.4377 68.019 48.9823C68.0046 48.5603 68.0319 48.138 68.1003 47.7214C68.1484 47.4451 68.484 47.3284 68.7674 47.23C68.8037 47.2173 68.8392 47.205 68.8731 47.1927C69.2455 47.0635 69.6327 46.9815 70.0255 46.9487C70.3644 46.9215 70.3644 47.03 70.3644 47.3147C70.3362 47.5784 70.2965 47.8422 70.2567 48.1065C70.1819 48.603 70.1068 49.1016 70.1068 49.6059C70.0404 50.2289 70.091 50.8588 70.256 51.4633C70.3089 51.7821 70.4519 52.0791 70.6681 52.3193C70.8843 52.5595 71.1647 52.7329 71.4761 52.819C71.7594 52.8934 72.0596 52.8679 72.3262 52.7469C72.5929 52.6259 72.8098 52.4168 72.9403 52.1547C73.2986 51.2546 73.5577 50.3181 73.7131 49.3619C73.8975 48.3435 74.0287 47.3163 74.1063 46.2843C74.2147 45.4528 74.269 44.5851 74.269 43.6813C74.2786 43.46 74.2933 43.2302 74.3083 42.9961C74.3357 42.5704 74.3639 42.1305 74.3639 41.7019C74.2916 41.833 74.2223 41.9656 74.153 42.0981C74.0144 42.3632 73.8758 42.6284 73.7131 42.8814C73.4238 43.4218 72.9995 43.8781 72.4816 44.2059C71.9637 44.5338 71.3698 44.722 70.7576 44.7524C70.3451 44.771 69.9366 44.6644 69.5858 44.4466C69.2349 44.2289 68.9582 43.9101 68.7918 43.5322C68.3143 42.5291 68.0731 41.4299 68.0868 40.3191C68.1215 39.9862 68.0892 39.6496 67.9919 39.3294C67.6322 39.6945 67.2212 40.0051 66.7717 40.2513C66.7175 40.2784 66.609 40.3597 66.609 40.3597C66.3379 40.414 66.1887 40.6038 66.1887 40.8343C66.0494 41.4606 65.8308 42.0665 65.538 42.6374C65.2269 43.2943 64.7618 43.8663 64.1822 44.305C63.6102 44.6763 62.9325 44.8508 62.2523 44.8019C61.572 44.7529 60.9263 44.4832 60.4133 44.0338C59.7252 43.502 59.2147 42.774 58.9491 41.946C58.5741 40.9153 58.3725 39.8295 58.3526 38.7329C58.3136 37.5155 58.4045 36.2975 58.6237 35.0995C58.6774 34.4473 58.9019 33.8207 59.2745 33.2828C59.5184 32.9133 59.71 32.5118 59.8439 32.0897C59.9738 31.6522 60.2046 31.2512 60.5178 30.9192C60.831 30.5872 61.2178 30.3333 61.647 30.1781C62.0855 30.0364 62.5421 29.9588 63.0028 29.9477C63.3369 29.9496 63.6667 30.0247 63.9688 30.1675C64.2709 30.3104 64.5381 30.5176 64.7517 30.7747C65.4207 31.5526 65.8865 32.4842 66.1074 33.4861C66.2997 34.2335 66.4312 34.9952 66.5006 35.7638V38.4753C66.4803 38.6917 66.4803 38.9096 66.5006 39.126C67.052 38.8076 67.543 38.3946 67.9512 37.9059C68.0718 37.7468 68.1297 37.549 68.1139 37.35C68.1296 36.6813 68.1956 36.0217 68.2614 35.3632C68.309 34.8871 68.3566 34.4115 68.385 33.9335C68.4346 33.0635 68.3892 32.1907 68.2495 31.3305C68.2088 31.0594 68.2495 30.856 68.5884 30.7882C68.9041 30.7076 69.233 30.6924 69.5547 30.7437C69.8765 30.795 70.1844 30.9117 70.4593 31.0865C70.7123 31.2475 70.702 31.5353 70.693 31.7844C70.6914 31.829 70.6898 31.8723 70.6898 31.9135C70.7615 33.0601 70.766 34.2099 70.7034 35.3571C70.6805 35.7968 70.6312 36.2366 70.5818 36.6774C70.5139 37.2829 70.4458 37.8904 70.4458 38.5024C70.3914 39.324 70.3914 40.1482 70.4458 40.9698C70.5165 41.4932 70.6722 42.0015 70.9067 42.4747C71.0027 42.6541 71.1425 42.8064 71.3131 42.9173C71.4837 43.0282 71.6796 43.0942 71.8825 43.1091C72.0854 43.1239 72.2888 43.0872 72.4738 43.0024C72.6587 42.9176 72.8192 42.7874 72.9403 42.6238C73.4724 41.8294 73.8495 40.9417 74.052 40.0073C74.2213 39.4051 74.357 38.7941 74.4588 38.177C74.4928 37.6986 74.4928 37.2183 74.4588 36.7399V35.3028C74.4588 35.0593 74.4498 34.8293 74.4408 34.5988C74.4227 34.1363 74.4045 33.672 74.4588 33.093C74.4957 32.6986 74.4907 32.3014 74.4857 31.904C74.4796 31.427 74.4736 30.9497 74.5401 30.4764C74.5943 30.0697 74.6892 29.9748 75.1366 30.0697C75.5421 30.1424 75.9319 30.2846 76.289 30.49C76.4233 30.5614 76.5321 30.6729 76.6001 30.8089C76.6681 30.945 76.6921 31.0989 76.6686 31.2492V34.7605V37.472C76.6686 37.7617 76.6822 38.05 76.6958 38.3377C76.7229 38.9116 76.7499 39.4835 76.6686 40.0615C76.6008 40.5435 76.5958 41.0297 76.5908 41.5154C76.5868 41.904 76.5828 42.2924 76.5466 42.6781C76.4855 43.0295 76.4803 43.3982 76.4754 43.755C76.4715 44.0313 76.4677 44.3005 76.4382 44.549ZM63.4501 43.5051C63.8126 43.1238 64.0737 42.6576 64.2094 42.1493C64.3612 41.7854 64.4616 41.4021 64.5076 41.0105C64.5483 40.8207 64.4805 40.7394 64.2907 40.7394C63.8894 40.7395 63.4924 40.6564 63.1248 40.4953C62.4527 40.2954 61.848 39.9156 61.3759 39.3972L60.6709 38.638C60.6388 39.5966 60.7115 40.5558 60.8878 41.4986C60.9804 42.1441 61.2268 42.7579 61.6063 43.2882C61.7029 43.4368 61.8309 43.5624 61.9815 43.6559C62.132 43.7494 62.3013 43.8087 62.4773 43.8294C62.6534 43.8501 62.8318 43.8318 62.9999 43.7757C63.168 43.7197 63.3218 43.6273 63.4501 43.5051ZM62.7897 38.9649C63.2909 39.3084 63.8651 39.5307 64.467 39.6141C64.6568 39.6819 64.7652 39.6548 64.7652 39.3565V38.4617C64.7992 37.8024 64.7992 37.1417 64.7652 36.4823C64.7084 35.5693 64.5769 34.6624 64.3721 33.7708C64.2039 32.9595 63.8667 32.1926 63.3824 31.5203C63.2269 31.2853 62.9924 31.1137 62.7213 31.0366C62.4502 30.9595 62.1605 30.982 61.9046 31.1C61.6432 31.2412 61.4134 31.4343 61.2292 31.6674C61.0451 31.9005 60.9104 32.1688 60.8336 32.4558C60.6248 33.0299 60.7551 33.1017 61.2246 33.3602C61.2429 33.3702 61.2617 33.3806 61.281 33.3912C61.7961 33.6759 61.891 33.8386 61.6606 34.1911C61.3618 34.7485 61.147 35.347 61.0234 35.9671C60.9808 36.0822 60.9648 36.2053 60.9765 36.3274C60.9883 36.4495 61.0274 36.5673 61.0912 36.6721C61.1861 36.828 61.2606 36.9907 61.3352 37.1534C61.4098 37.3161 61.4843 37.4788 61.5792 37.6347C61.8741 38.166 62.2885 38.6213 62.7897 38.9649Z" fill="white"/>
<path d="M13.6403 20.3628C13.5589 20.1052 13.7487 19.8882 13.8165 19.6713C14.1665 18.6209 14.7401 17.6588 15.4976 16.8514C15.8584 16.4649 16.2797 16.1398 16.7449 15.8888C17.4133 15.504 18.1589 15.2724 18.9277 15.2109C19.6144 15.1634 20.3043 15.2182 20.9748 15.3736C21.9582 15.6451 22.8792 16.1056 23.6863 16.7294C24.2975 17.1597 24.8257 17.6971 25.2454 18.3156C25.4488 18.6545 25.6928 18.9663 25.8826 19.3053C26.3239 20.0868 26.6223 20.9407 26.7639 21.827C26.8433 22.329 26.8751 22.8374 26.8588 23.3454C26.8201 23.9728 26.7202 24.5948 26.5605 25.2028C26.3434 25.9803 26.0194 26.724 25.5979 27.4126C25.2106 28.0535 24.7897 28.6735 24.3371 29.27C24.3371 29.3649 24.1744 29.4462 24.3371 29.5547C24.4998 29.6631 24.5269 29.5547 24.5676 29.4462C24.8654 29.1117 25.1417 28.7585 25.3946 28.3887C25.4624 28.2803 25.5166 28.2261 25.6115 28.3887C25.9302 28.8703 26.2156 29.3731 26.4656 29.8936C26.7914 30.6195 27.0193 31.3854 27.1435 32.1713C27.2972 33.0686 27.2972 33.9855 27.1435 34.8827C27.0565 35.4861 26.9159 36.0805 26.7232 36.6588C26.5077 37.2773 26.2211 37.8688 25.8691 38.4212C25.4883 39.0395 25.0329 39.6087 24.5133 40.1159C24.5133 40.1159 24.3778 40.2244 24.4455 40.3193C24.5133 40.4142 24.6218 40.3193 24.676 40.3193C24.9743 39.9803 25.2861 39.6414 25.5844 39.2889C25.6928 39.1533 25.7064 39.1127 25.8013 39.2889C25.9506 39.7602 26.0462 40.2468 26.086 40.7396C26.1541 41.5103 26.1084 42.2869 25.9504 43.0443C25.7589 43.9835 25.4491 44.8945 25.0285 45.7558C24.698 46.5134 24.2842 47.2318 23.7948 47.8979C23.3806 48.4748 22.9276 49.0229 22.439 49.5383C21.9859 50.0217 21.5013 50.4746 20.9884 50.8941C20.3927 51.3894 19.763 51.8424 19.1039 52.2498C18.4396 52.6294 17.8295 53.1175 17.1923 53.6055C16.5551 54.0936 16.3518 54.2156 15.8366 54.4732C15.3214 54.7308 15.5519 54.3241 15.4705 54.175C15.5407 54.1173 15.5923 54.0403 15.6188 53.9534C15.6453 53.8666 15.6456 53.7739 15.6197 53.6869C15.3828 52.2239 15.2334 50.748 15.1723 49.2672C15.0925 47.9126 15.0925 46.5545 15.1723 45.1999C15.1765 44.1359 15.3039 43.0759 15.5519 42.0411C15.5835 41.8604 15.6578 41.6898 15.7687 41.5436C15.8795 41.3974 16.0236 41.2798 16.1891 41.2005C16.3653 41.1327 16.2975 41.0107 16.1891 40.9022C15.8501 40.4413 15.5519 39.9397 15.2401 39.4516C14.5536 38.409 13.9289 37.3271 13.3691 36.2114C13.1285 35.5667 13.0313 34.8774 13.0844 34.1913C13.0464 33.0909 13.2452 31.9951 13.6674 30.9782C13.9071 30.2327 14.383 29.5855 15.0231 29.1344C15.3561 28.9321 15.7536 28.8642 16.1348 28.9446C16.5468 29.0132 16.9509 29.1222 17.3415 29.27C17.417 29.2901 17.4964 29.2901 17.5719 29.27C17.7889 29.27 17.8702 29.27 17.8024 28.9853C17.7581 28.8088 17.664 28.6488 17.5313 28.5243C16.7173 27.6545 15.9866 26.7104 15.3485 25.7044C14.8689 24.9622 14.469 24.1715 14.1555 23.3454C13.8767 22.577 13.7034 21.7743 13.6403 20.9593C13.6267 20.7288 13.6403 20.539 13.6403 20.3628Z" fill="#A1C327"/>
<path d="M3.48643 45.1462C3.20318 44.7591 2.9494 44.3512 2.72721 43.9261C2.24856 43.1282 1.85331 42.2832 1.54772 41.4044C1.28621 40.638 1.10005 39.8479 0.991863 39.0454C0.910519 38.3811 0.991863 37.6896 0.924076 37.0389C0.92503 36.907 0.967748 36.7789 1.04609 36.6728C1.04099 36.7134 1.04099 36.7543 1.04609 36.7949C1.04609 36.8762 1.04609 37.0389 1.2359 36.9575C1.4257 36.8762 1.2359 36.7813 1.2359 36.7C0.554064 35.3026 0.254679 33.7496 0.368222 32.1989C0.404997 31.3237 0.607415 30.4634 0.964748 29.6637C1.23026 29.1096 1.58269 28.6015 2.00867 28.1588C2.36245 27.8256 2.78298 27.5715 3.24239 27.4131C3.45931 27.3182 3.47287 27.2098 3.40508 27.02C3.22861 26.4313 3.10609 25.8277 3.03903 25.2168C2.96437 24.5501 2.96437 23.8771 3.03903 23.2103C3.08936 22.7513 3.1801 22.2976 3.31018 21.8546C3.48521 21.2462 3.70732 20.6524 3.97449 20.0786C4.32045 19.3193 4.77736 18.6156 5.33024 17.9907C5.67523 17.5929 6.06667 17.2379 6.49617 16.9332C7.00529 16.5669 7.5741 16.2917 8.17729 16.1198C8.90548 15.8978 9.66898 15.815 10.4278 15.8758C11.196 15.9462 11.9473 16.1431 12.6512 16.4587C13.1257 16.6621 13.5867 16.8926 14.007 17.123C14.4273 17.3535 14.5086 17.5162 14.2375 17.9229C13.5464 19.0358 13.0854 20.2758 12.8817 21.5699C12.8072 22.1142 12.8072 22.666 12.8817 23.2103C12.6763 24.6663 12.0709 26.0368 11.1328 27.1691C10.8089 27.5638 10.3951 27.8753 9.9262 28.0774C9.84261 28.1234 9.76118 28.1731 9.68217 28.2266C9.49236 28.3079 9.47881 28.4299 9.56015 28.6062C10.1211 29.709 10.3962 30.935 10.36 32.1718C10.3158 33.3248 9.83049 34.4167 9.0043 35.2222C8.61113 35.6289 8.24508 36.0628 7.8248 36.4424C7.31644 36.9493 6.69322 37.326 6.00811 37.5405C5.7652 37.5736 5.51892 37.5736 5.27601 37.5405C5.9997 37.6212 6.68351 37.9136 7.24183 38.3811C7.46532 38.5948 7.62444 38.8668 7.70112 39.1664C7.77781 39.4659 7.76899 39.781 7.67567 40.0758C7.53166 40.5617 7.3071 41.0199 7.01136 41.4315C6.4963 42.3397 5.89714 43.1976 5.22178 43.9938C4.87245 44.4743 4.40564 44.8571 3.86604 45.1056C3.74981 45.1686 3.61338 45.1832 3.48643 45.1462Z" fill="#A1C327"/>
<path d="M13.6409 20.3628C13.7396 20.809 13.8031 21.2623 13.8307 21.7185C14.0085 22.6613 14.3189 23.5742 14.7526 24.43C14.9424 24.8232 15.1864 25.1892 15.3762 25.596C15.5456 25.9392 15.7599 26.2583 16.0134 26.545C16.5237 27.259 17.0808 27.9384 17.681 28.5786C17.8327 28.7467 17.9358 28.9529 17.9793 29.1751C17.9793 29.392 17.8572 29.4463 17.6674 29.4463C17.3465 29.3911 17.0327 29.3001 16.732 29.1751C16.3288 29.0501 15.9053 29.0041 15.4847 29.0395C15.2601 29.1158 15.0528 29.2356 14.8746 29.392C14.3596 29.7949 13.9695 30.3355 13.7493 30.9511C13.4512 31.593 13.2633 32.2805 13.1935 32.9847C13.0901 33.8416 13.1453 34.7102 13.3562 35.5471C13.6405 36.3393 14.0182 37.0948 14.4814 37.7976C14.9966 38.6924 15.5389 39.5872 16.1219 40.5091C16.2304 40.6718 16.3524 40.8209 16.4608 40.9701C16.5693 41.1192 16.5964 41.2548 16.3659 41.2683C16.2182 41.2914 16.0813 41.3599 15.9744 41.4644C15.8675 41.5689 15.7958 41.7041 15.7694 41.8513C15.6031 42.4306 15.4986 43.026 15.4576 43.6273C15.3943 44.2238 15.3536 44.8204 15.3356 45.4169C15.3356 46.5286 15.3356 47.6403 15.3356 48.752C15.3356 49.2943 15.4169 49.8502 15.4169 50.406C15.4169 50.9619 15.5389 51.4228 15.5796 51.938C15.629 52.6162 15.7196 53.2908 15.8507 53.9581C15.8507 54.1614 15.7558 54.2428 15.566 54.2157L15.322 54.0394C15.1423 53.5728 14.9294 53.1197 14.6848 52.6837C14.5357 52.3176 14.3459 51.9516 14.1967 51.572C14.0476 51.1924 13.7629 50.4196 13.5867 49.8231C13.4104 49.2265 13.3291 48.7249 13.207 48.1826C13.0962 47.7051 13.0192 47.2203 12.9766 46.732C12.9766 46.1761 12.841 45.6338 12.8003 45.0644C12.7597 44.495 12.8003 44.0612 12.7054 43.5595C12.6648 43.1493 12.6648 42.736 12.7054 42.3258C12.6747 41.4212 12.7019 40.5155 12.7868 39.6143C12.8546 39.533 12.7868 39.4381 12.7868 39.3567C12.7868 39.2754 12.8952 39.0991 12.9901 39.0585C13.085 39.0178 13.1393 39.1805 13.2206 39.2618C13.3019 39.3432 13.5053 39.5872 13.6544 39.7363C13.8036 39.8855 13.7493 39.9126 13.8578 39.7363C13.9663 39.5601 13.8578 39.6008 13.8578 39.5194C13.4949 39.1393 13.1681 38.7263 12.8817 38.2857C12.6937 37.9361 12.5306 37.5737 12.3936 37.2011C12.196 36.6685 12.0684 36.1125 12.014 35.5471C11.9732 35.0961 11.9732 34.6424 12.014 34.1914C12.0424 33.3077 12.1697 32.4301 12.3936 31.5748C12.5562 30.9695 12.76 30.3761 13.0037 29.7988C13.3276 29.0264 13.6988 28.2748 14.1154 27.5482C14.1154 27.5482 14.1154 27.5482 14.1154 27.5482C14.3459 27.1415 14.495 27.1415 14.7526 27.5482C14.8461 27.7029 14.9601 27.8443 15.0915 27.9685C15.1243 28 15.1681 28.0176 15.2135 28.0176C15.259 28.0176 15.3027 28 15.3356 27.9685C15.444 27.8872 15.3356 27.8058 15.3356 27.7516C15.0209 27.3842 14.7396 26.9895 14.495 26.5721C14.3077 26.295 14.1487 25.9998 14.0205 25.6909C13.6634 24.9083 13.4257 24.0765 13.3155 23.2234C13.1514 22.2583 13.2642 21.2664 13.6409 20.3628V20.3628Z" fill="#95B224"/>
<path d="M3.48633 45.1455C4.42179 44.9692 4.84207 44.2371 5.46571 43.5728C6.21529 42.6191 6.88203 41.6031 7.45865 40.5359C7.67274 40.1473 7.72447 39.6897 7.60256 39.263C7.48066 38.8364 7.19501 38.4752 6.8079 38.2583C6.25163 38.0009 5.67591 37.7879 5.0861 37.6211C5.29781 37.5969 5.51159 37.5969 5.7233 37.6211C6.35269 37.5295 6.94166 37.2562 7.41798 36.8348C7.98207 36.352 8.50787 35.8262 8.99064 35.2621C9.5689 34.6549 9.96776 33.8994 10.143 33.0794C10.3219 32.0898 10.2615 31.0717 9.96677 30.1103C9.84296 29.616 9.66093 29.1381 9.42448 28.6868C9.31602 28.5105 9.30246 28.3749 9.56005 28.28C10.4812 27.9134 11.254 27.2503 11.7564 26.3955C12.1606 25.6999 12.4793 24.9579 12.7054 24.1857C12.8003 23.8874 12.7054 23.5485 12.9765 23.2773C13.0279 23.6696 13.1003 24.0588 13.1934 24.4433C13.3132 25.0134 13.5189 25.5619 13.8035 26.0702C14.034 26.4905 13.8035 26.7752 13.5866 27.0463C13.0672 27.6929 12.4386 28.2435 11.7292 28.6732C11.7127 28.6777 11.6973 28.6857 11.684 28.6966C11.6707 28.7074 11.6599 28.721 11.6522 28.7364C11.6445 28.7517 11.6402 28.7685 11.6394 28.7857C11.6387 28.8028 11.6416 28.8199 11.6479 28.8359C11.6479 28.9172 11.7157 28.9308 11.797 28.9037C11.8784 28.8766 12.0004 28.9037 12.0004 29.0935C12.0408 29.6395 12.0408 30.1879 12.0004 30.7339C11.9132 31.3983 11.7772 32.0553 11.5937 32.6997C11.4161 33.434 11.1616 34.1474 10.8344 34.8283C10.5127 35.6291 10.054 36.3677 9.47871 37.011C9.24173 37.3148 8.93472 37.5567 8.58392 37.716C8.4619 37.716 8.33988 37.8109 8.42123 37.9465C8.50257 38.082 8.61103 37.9465 8.67882 37.9465C8.74661 37.9465 8.89574 37.9465 8.88218 38.0956C8.72408 39.0806 8.45576 40.0447 8.08229 40.9698C7.59018 42.0529 6.99066 43.0839 6.29271 44.0473C5.76802 44.8118 5.18802 45.5368 4.55736 46.2165C4.38112 46.3927 4.27266 46.3114 4.15064 46.2165C3.8936 45.8828 3.67103 45.524 3.48633 45.1455V45.1455Z" fill="#7E981F"/>
<path d="M17.5862 14.6277C17.1396 13.6726 16.8118 12.6664 16.61 11.6315C16.4731 10.947 16.3825 10.254 16.3389 9.55723C16.319 8.89059 16.3598 8.22352 16.4609 7.56429C16.5538 6.93607 16.7082 6.3185 16.9219 5.72048C17.0878 5.14429 17.3294 4.59266 17.6404 4.08003C18.017 3.47508 18.4729 2.92335 18.9961 2.43959C19.5754 1.90497 20.2227 1.44912 20.9213 1.08384C21.2196 0.921155 21.5449 0.880483 21.8432 0.717794C21.911 0.717794 21.9923 0.636449 22.0601 0.717794C22.1279 0.799138 22.0601 0.866925 22.0601 0.934712C21.7483 2.10065 21.4907 3.26659 21.2873 4.44608C21.1518 5.25953 21.0704 6.10009 20.9755 6.92709C20.8642 7.55026 20.7148 8.16601 20.5281 8.7709C20.2932 9.72928 19.971 10.6641 19.5656 11.5637C19.3254 12.0824 19.0443 12.581 18.725 13.055C18.4267 13.5296 18.0878 13.9634 17.7624 14.4108C17.7092 14.4874 17.6502 14.5599 17.5862 14.6277V14.6277Z" fill="#6FB647"/>
<path d="M25.7884 15.7261C24.3505 15.5565 22.9389 15.2105 21.5856 14.6957C21.1925 14.5601 20.7857 14.4652 20.3926 14.3296C20.257 14.3296 20.0807 14.3296 20.0401 14.1127C19.9994 13.8958 20.1485 13.8687 20.2434 13.7602C20.8805 13.1588 21.7024 12.7909 22.5753 12.7163C23.2261 12.6214 23.9311 12.6079 24.5411 12.5401C25.4148 12.5028 26.2742 12.3052 27.0764 11.9571C27.4114 11.7786 27.7139 11.5448 27.9712 11.2657C28.4206 10.81 28.9373 10.426 29.5032 10.1268C29.7356 9.99149 29.9946 9.90823 30.2624 9.88281C30.3979 9.88281 30.4657 9.88281 30.4657 10.0726C30.498 11.0094 30.4207 11.9467 30.2353 12.8654C30.0755 13.7531 29.5925 14.5501 28.8795 15.1024C28.4093 15.4313 27.8637 15.6365 27.2933 15.6989C26.7937 15.7566 26.2897 15.7657 25.7884 15.7261V15.7261Z" fill="#6FB647"/>
<path d="M16.1486 14.5738C15.5794 14.143 14.8829 13.9141 14.1692 13.923C13.4179 13.9322 12.6678 13.8595 11.9322 13.7061C11.5033 13.539 11.1083 13.2956 10.7663 12.9876C9.99711 12.3642 9.36481 11.5888 8.9089 10.7099C8.49502 9.96524 8.23673 9.14423 8.14968 8.29671C8.0686 7.88947 8.0686 7.47023 8.14968 7.06299C8.63529 7.81994 9.30152 8.44424 10.0884 8.87968C10.7663 9.2864 11.4441 9.6389 12.1898 10.0049C13.3614 10.5146 14.4141 11.2626 15.2809 12.2012C15.7077 12.7244 15.9883 13.3512 16.0943 14.0179C16.1079 14.1806 16.2435 14.3433 16.1486 14.5738Z" fill="#6FB647"/>
<path d="M21.1645 39.1801C20.724 39.0889 20.3356 38.8316 20.0799 38.4615C19.6909 37.9106 19.4272 37.2813 19.3071 36.6177C19.1802 35.9615 19.1347 35.2921 19.1716 34.6248C19.1716 34.1096 19.1716 33.5944 19.1716 33.0928C19.2234 32.6841 19.3096 32.2804 19.4291 31.8862C19.6137 31.2034 19.9957 30.5903 20.5273 30.1237C20.7617 29.9725 21.0347 29.8921 21.3136 29.8921C21.5926 29.8921 21.8656 29.9725 22.1 30.1237C22.4347 30.3601 22.7196 30.6603 22.9382 31.0069C23.1569 31.3535 23.3051 31.7398 23.3744 32.1438C23.564 32.865 23.6597 33.6078 23.6591 34.3536C23.7042 35.3919 23.5618 36.4298 23.2388 37.4176C23.0879 37.8686 22.8533 38.2872 22.5474 38.6513C22.3929 38.864 22.18 39.0272 21.9345 39.1211C21.689 39.215 21.4214 39.2355 21.1645 39.1801Z" fill="#AFCB4B"/>
<path d="M21.8835 47.0439C21.7993 48.0547 21.5086 49.0376 21.0294 49.9316C20.8853 50.2584 20.6709 50.5493 20.4014 50.7837C20.1319 51.018 19.814 51.19 19.4703 51.2873C19.2226 51.3432 18.9641 51.3283 18.7245 51.2444C18.4848 51.1605 18.2734 51.011 18.1146 50.8128C17.7646 50.3685 17.5232 49.8485 17.4096 49.2944C17.2565 48.5772 17.2244 47.8394 17.3147 47.1116C17.3778 46.0393 17.6207 44.9852 18.0332 43.9934C18.2916 43.3467 18.7118 42.7772 19.2534 42.3394C19.4916 42.1536 19.7851 42.0527 20.0872 42.0527C20.3893 42.0527 20.6827 42.1536 20.921 42.3394C21.4526 42.7788 21.7968 43.4042 21.8835 44.0883C22.026 45.0684 22.026 46.0638 21.8835 47.0439V47.0439Z" fill="#B1CC4E"/>
<path d="M23.1575 24.769C23.1126 25.3157 22.9655 25.8492 22.7236 26.3416C22.6621 26.4907 22.5619 26.6207 22.4335 26.7183C22.3051 26.8159 22.153 26.8775 21.9928 26.8968C21.8327 26.9161 21.6703 26.8925 21.5224 26.8283C21.3744 26.764 21.2462 26.6616 21.151 26.5314C20.6412 25.8878 20.2843 25.1368 20.107 24.3351C19.9137 23.5886 19.7867 22.8264 19.7274 22.0575C19.6182 21.3613 19.6182 20.6523 19.7274 19.9561C19.7722 19.5405 19.8447 19.1283 19.9444 18.7223C20.0124 18.39 20.1888 18.0895 20.446 17.8682C20.5905 17.7258 20.7853 17.646 20.9883 17.646C21.1912 17.646 21.386 17.7258 21.5306 17.8682C21.7833 18.0719 21.9911 18.3258 22.1407 18.6139C22.5218 19.3757 22.7912 20.1885 22.9405 21.0271C23.1652 22.2609 23.238 23.5175 23.1575 24.769Z" fill="#B0CB4B"/>
<path d="M4.15002 33.2289C4.29127 32.5075 4.49541 31.7998 4.7601 31.1139C4.98773 30.5905 5.27429 30.0947 5.61422 29.6362C5.76985 29.4074 5.97022 29.2126 6.20323 29.0635C6.43625 28.9144 6.69708 28.814 6.96996 28.7685C7.13705 28.7407 7.30853 28.7589 7.46612 28.821C7.62371 28.883 7.76149 28.9867 7.86475 29.121C8.25494 29.5955 8.44463 30.2035 8.39349 30.8157C8.32726 32.45 7.75392 34.0231 6.75304 35.3167C6.60693 35.5164 6.42265 35.6852 6.21088 35.8132C5.99911 35.9412 5.76405 36.0259 5.51932 36.0624C5.27176 36.0642 5.02843 35.9982 4.81572 35.8715C4.60302 35.7449 4.42906 35.5624 4.31271 35.3439C4.1158 34.6572 4.06045 33.9376 4.15002 33.2289V33.2289Z" fill="#ACC942"/>
<path d="M11.1328 18.2888C11.4717 18.2888 11.77 18.7769 11.8107 19.1836C11.8598 20.1024 11.7356 21.0222 11.4446 21.8951C11.2819 22.4645 11.0379 23.0068 10.821 23.5626C10.5462 24.2361 10.1613 24.8592 9.68215 25.4065C9.3161 25.7996 8.73313 25.9487 8.43487 25.6912C8.25014 25.4963 8.12746 25.2509 8.08237 24.9862C7.99634 24.3704 8.0332 23.7438 8.19083 23.1424C8.36083 22.3091 8.62935 21.499 8.99072 20.7291C9.29858 19.8087 9.87458 19.0014 10.6447 18.4108C10.7908 18.3205 10.9614 18.2778 11.1328 18.2888Z" fill="#ADCA46"/>
<path d="M3.33737 41.3901C3.36126 40.6867 3.55176 39.999 3.89322 39.3836C4.08303 39.0311 4.29995 38.6244 4.84224 38.638C4.99448 38.6255 5.14635 38.6659 5.27229 38.7523C5.39823 38.8387 5.49054 38.9659 5.53367 39.1125C5.68737 39.5469 5.74743 40.0089 5.70992 40.4682C5.66097 41.1058 5.51466 41.7322 5.27608 42.3256C5.19376 42.5378 5.06436 42.7286 4.89763 42.8836C4.7309 43.0386 4.53118 43.1537 4.3135 43.2204C4.16478 43.2222 4.01808 43.1857 3.8875 43.1145C3.75693 43.0433 3.64685 42.9397 3.56785 42.8136C3.38085 42.3637 3.30191 41.8761 3.33737 41.3901V41.3901Z" fill="#ADCA46"/>
<path d="M20.1749 4.25649L19.497 5.15128C18.7751 6.09561 18.2371 7.16716 17.9108 8.31016C17.6738 9.16165 17.6738 10.0617 17.9108 10.9132C17.9464 10.9651 17.9654 11.0265 17.9654 11.0894C17.9654 11.1523 17.9464 11.2138 17.9108 11.2657C17.4519 9.93325 17.5297 8.47451 18.1277 7.19845C18.6382 6.10639 19.3151 5.10019 20.1342 4.21582L20.1749 4.25649Z" fill="#090C06"/>
<path d="M29.0284 12.0654C29.0161 12.1368 28.9894 12.205 28.9497 12.2656C28.9101 12.3263 28.8584 12.3781 28.7979 12.4179C28.1682 12.8961 27.4803 13.2925 26.7507 13.5974C25.8598 13.9208 24.9192 14.086 23.9714 14.0855H23.7681C23.7536 14.0823 23.7399 14.0763 23.7279 14.0676C23.7158 14.059 23.7057 14.048 23.6981 14.0353C23.6905 14.0226 23.6855 14.0085 23.6836 13.9938C23.6816 13.9791 23.6827 13.9642 23.6867 13.9499C23.6867 13.9499 23.7681 13.9499 23.8087 13.9499C25.1638 14.0402 26.5136 13.7087 27.6726 13.0009C28.1336 12.6891 28.5403 12.3501 29.0284 12.0654Z" fill="#090D06"/>
<path d="M9.96675 9.78809C10.3358 10.3904 10.7927 10.9342 11.3225 11.4014C11.8093 11.8628 12.3739 12.2346 12.9901 12.4996C13.2476 12.6216 13.5188 12.7029 13.7764 12.8114C14.034 12.9198 13.9391 12.8114 13.8984 12.9199C13.8577 13.0283 13.7493 13.0419 13.7493 13.0148C13.2051 12.8266 12.6825 12.5812 12.1902 12.2827C11.5395 11.8927 10.9578 11.398 10.4684 10.8185C10.2533 10.5322 10.0629 10.2284 9.89896 9.9101C9.84474 9.78809 9.84474 9.78809 9.96675 9.78809Z" fill="#0A0E07"/>
</svg>
