<svg width="17" height="26" viewBox="0 0 17 26" fill="none" xmlns="http://www.w3.org/2000/svg">
<path d="M16.6116 14.7943C16.5114 14.2934 16.3068 13.8257 16.0142 13.4287C15.6827 13.0007 15.7598 12.701 16.0142 12.273C16.5419 11.4464 16.8365 10.4642 16.8605 9.45126C16.8845 8.43832 16.6369 7.4403 16.1491 6.584C15.5038 5.43541 14.4945 4.59697 13.3201 4.23394C13.163 4.20948 13.0209 4.11701 12.9249 3.97668C12.8288 3.83635 12.7867 3.65955 12.8075 3.48483V3.46342C12.8345 2.74 12.8075 2.01229 12.8075 1.28886C12.8075 0.860801 12.6649 0.655331 12.2679 0.663892C11.6166 0.663892 10.9652 0.663892 10.31 0.663892C9.92461 0.663892 9.77045 0.865081 9.7743 1.28886C9.7743 3.14666 9.7743 5.00017 9.80128 6.85368C9.73961 7.28175 9.96316 7.41444 10.3062 7.41444C10.9383 7.41444 11.5742 7.39304 12.2024 7.44869C12.6299 7.47278 13.0327 7.67793 13.3281 8.02192C13.6235 8.36592 13.7889 8.82257 13.7903 9.29792C13.7804 9.76229 13.6183 10.2067 13.3345 10.5479C13.0507 10.8891 12.6647 11.1037 12.2487 11.1514C12.0018 11.1822 11.7532 11.1936 11.5048 11.1857C9.89378 11.1857 8.28274 11.1857 6.6717 11.1857C6.23232 11.1857 6.03961 11.3612 6.05118 11.8577C6.05118 12.4741 6.0743 13.0948 6.05118 13.7113C6.02805 14.3277 6.21691 14.5674 6.82201 14.5674C8.45232 14.5331 10.0826 14.5674 11.7129 14.5674C12.2125 14.5437 12.7084 14.6725 13.1467 14.9398C13.7094 15.5862 13.9985 16.3182 13.6362 17.2C13.2739 18.0818 12.611 18.3386 11.79 18.2915C11.3314 18.2658 10.8689 18.2915 10.4102 18.2915C9.95159 18.2915 9.77816 18.4413 9.78201 18.9507C9.78201 20.7871 9.78201 22.6192 9.78201 24.4556C9.78201 24.8837 9.91691 25.0849 10.3177 25.0763C10.9729 25.0763 11.6243 25.0763 12.2757 25.0763C12.6611 25.0763 12.8229 24.8837 12.8152 24.4556C12.8152 23.8392 12.8499 23.2185 12.8152 22.6021C12.7806 21.9857 12.9733 21.6433 13.5861 21.4463C14.1687 21.2506 14.7108 20.9291 15.1814 20.5002C15.6519 20.0712 16.0416 19.5434 16.328 18.9469C16.6145 18.3503 16.7921 17.6969 16.8507 17.0239C16.9092 16.351 16.8476 15.6718 16.6694 15.0254L16.6116 14.7943Z" fill="#AB0C30"/>
<path d="M6.48656 18.2694C5.83136 18.2694 5.18 18.2694 4.52865 18.2694C3.11031 18.2694 3.11031 18.2694 3.01781 16.7112V7.7476C3.12573 7.35806 3.42636 7.42227 3.68459 7.41799C4.625 7.41799 5.56413 7.41799 6.50198 7.41799C6.8874 7.41799 7.07625 7.28529 7.0724 6.83154C7.0724 4.97946 7.0724 3.12452 7.0724 1.26672C7.0724 0.838661 6.89125 0.658875 6.51354 0.667436C5.88146 0.667436 5.24938 0.667436 4.61729 0.667436C4.16636 0.667436 4.00448 0.890028 4.01219 1.36518C4.01219 2.0244 4.01219 2.68789 4.01219 3.34711C4.01219 3.85651 3.86188 4.07054 3.37625 4.05341C2.43969 4.02345 1.49927 4.05341 0.558856 4.05341C0.173439 4.05341 -0.00385334 4.19039 0.00385499 4.63986C0.00385499 5.68433 0.00385699 6.72881 0.026982 7.77328V16.7112C0.026982 18.1624 0.0269792 19.6135 0 21.0604C0 21.574 0.200419 21.7196 0.628231 21.711C1.54938 21.6896 2.47052 21.711 3.39167 21.711C3.80792 21.711 3.98521 21.8865 3.98136 22.3488C3.98136 23.0508 3.98136 23.7572 3.98136 24.4592C3.98136 24.8872 4.14709 25.0799 4.54021 25.067C5.19157 25.067 5.84292 25.067 6.49813 25.067C6.92208 25.067 7.0724 24.8701 7.06854 24.4121C7.06854 22.58 7.06854 20.7464 7.06854 18.9115C7.08011 18.4235 6.89125 18.2608 6.48656 18.2694Z" fill="#AB0C30"/>
</svg>
