<svg width="39" height="39" viewBox="0 0 39 39" fill="none" xmlns="http://www.w3.org/2000/svg">
<path d="M19.1668 38.3333C8.58139 38.3333 0.000183105 29.7521 0.000183105 19.1667C0.000183105 8.5812 8.58139 0 19.1668 0C29.7523 0 38.3335 8.5812 38.3335 19.1667C38.3335 29.7521 29.7523 38.3333 19.1668 38.3333Z" fill="#F0B90B"/>
<path d="M26.3148 19.1665L29.2473 22.1194L32.2002 19.1665L29.2473 16.2136L26.3148 19.1665ZM19.1669 12.0185L14.1165 17.069L11.1636 14.1161L16.214 9.08604L19.1669 6.13318L22.1197 9.08604L27.1498 14.1161L24.1969 17.069L19.1669 12.0185ZM9.0864 16.2136L12.0189 19.1665L9.06604 22.1194L6.13354 19.1665L9.0864 16.2136ZM19.1669 26.3145L24.2173 21.2641L27.1498 24.2169L22.0994 29.2673L19.1669 32.1998L16.214 29.247L11.1636 24.1966L14.1165 21.2641L19.1669 26.3145ZM19.1669 22.1194L16.214 19.1665L19.1669 16.2136L22.1197 19.1665L19.1669 22.1194Z" fill="white"/>
</svg>
