<svg width="36" height="41" viewBox="0 0 36 41" fill="none" xmlns="http://www.w3.org/2000/svg">
<path d="M0.00987148 2.38751V17.8873C0.00799992 18.0121 0.0309629 18.136 0.0774138 18.2518C0.123865 18.3676 0.192876 18.473 0.280443 18.5618C0.36801 18.6507 0.472388 18.7213 0.587485 18.7695C0.702582 18.8177 0.826099 18.8424 0.95087 18.8424L7.88288 18.8111C8.049 18.8078 8.2114 18.7612 8.35401 18.676C8.49663 18.5907 8.61455 18.4698 8.69611 18.325C8.77767 18.1802 8.82006 18.0167 8.81909 17.8506C8.81813 17.6844 8.77382 17.5214 8.69058 17.3776L7.7935 15.7936C7.70294 15.6314 7.58094 15.489 7.43463 15.3745C7.28831 15.2601 7.12062 15.1761 6.94141 15.1273C6.76219 15.0785 6.57504 15.066 6.39092 15.0904C6.2068 15.1149 6.02941 15.1759 5.86915 15.2698L5.77349 15.3262C5.61509 15.4189 5.43979 15.4791 5.25784 15.5032C5.0759 15.5272 4.89097 15.5147 4.71392 15.4663C4.53688 15.418 4.37127 15.3348 4.22681 15.2216C4.08235 15.1084 3.96195 14.9675 3.87267 14.8071C3.77436 14.633 3.7134 14.4402 3.69369 14.2412C3.67397 14.0422 3.69595 13.8413 3.75818 13.6513L5.19947 9.25993C5.30583 8.93098 5.52922 8.65252 5.82726 8.47733C6.12531 8.30215 6.47729 8.24244 6.81643 8.30953L11.2783 9.23326C11.4723 9.27428 11.6554 9.35621 11.8152 9.47358C11.975 9.59096 12.108 9.74109 12.2052 9.91393C12.3906 10.239 12.4411 10.6238 12.3458 10.9857C12.2505 11.3476 12.017 11.6577 11.6955 11.8492L11.5998 11.9057C11.2748 12.0995 11.0387 12.4131 10.9423 12.779C10.8458 13.1449 10.8966 13.5341 11.0838 13.863L11.9684 15.4313C12.0494 15.5756 12.1673 15.6957 12.3101 15.7793C12.4529 15.8629 12.6153 15.907 12.7808 15.907C12.9462 15.907 13.1087 15.8629 13.2515 15.7793C13.3943 15.6957 13.5122 15.5756 13.5932 15.4313L17.0576 9.3854C17.1839 9.16618 17.2188 8.90607 17.1548 8.66131C17.0908 8.41656 16.9331 8.20681 16.7157 8.0774L3.52764 0.326726C1.97186 -0.600157 0.00987148 0.557263 0.00987148 2.38751Z" fill="#393939"/>
<path d="M34.0632 18.2703L20.8735 10.5196C20.7662 10.4571 20.6476 10.4167 20.5245 10.4007C20.4014 10.3847 20.2763 10.3934 20.1567 10.4265C20.037 10.4595 19.9251 10.5161 19.8277 10.5929C19.7302 10.6698 19.649 10.7654 19.589 10.874L16.1497 16.9905C16.0673 17.1348 16.024 17.298 16.0239 17.4641C16.0239 17.6302 16.0672 17.7935 16.1495 17.9377C16.2319 18.082 16.3504 18.2023 16.4935 18.2867C16.6365 18.3712 16.7991 18.4169 16.9652 18.4193H19.2315C19.3562 18.4193 19.4797 18.3945 19.5948 18.3463C19.7099 18.2981 19.8143 18.2276 19.9019 18.1387C19.9895 18.0498 20.0585 17.9444 20.1049 17.8286C20.1514 17.7128 20.1743 17.5889 20.1725 17.4642V16.4134C20.1706 16.2886 20.1935 16.1647 20.24 16.0489C20.2864 15.9331 20.3555 15.8277 20.443 15.7388C20.5306 15.65 20.635 15.5794 20.7501 15.5312C20.8651 15.483 20.9887 15.4582 21.1135 15.4583H21.7706C21.9032 15.4581 22.0343 15.4859 22.1554 15.54C22.2765 15.594 22.3848 15.6731 22.4732 15.7719L25.9 19.71C26.0521 19.8861 26.1358 20.111 26.1358 20.3436C26.1358 20.5763 26.0521 20.8011 25.9 20.9772L22.4732 24.92C22.385 25.0195 22.2765 25.099 22.1551 25.1531C22.0336 25.2072 21.902 25.2347 21.769 25.2337H21.1056C20.9808 25.2337 20.8573 25.2089 20.7422 25.1607C20.6271 25.1125 20.5227 25.0419 20.4352 24.9531C20.3476 24.8642 20.2786 24.7588 20.2322 24.643C20.1857 24.5272 20.1627 24.4033 20.1646 24.2785V23.2278C20.1665 23.103 20.1435 22.9791 20.0971 22.8633C20.0506 22.7475 19.9816 22.6421 19.894 22.5532C19.8065 22.4643 19.7021 22.3938 19.587 22.3456C19.4719 22.2974 19.3484 22.2726 19.2236 22.2726H16.984C16.8179 22.275 16.6553 22.3207 16.5123 22.4052C16.3692 22.4896 16.2507 22.6099 16.1684 22.7542C16.086 22.8985 16.0427 23.0617 16.0427 23.2278C16.0428 23.3939 16.0861 23.5572 16.1685 23.7014L19.5812 29.7787C19.6412 29.8873 19.7224 29.9829 19.8198 30.0598C19.9173 30.1366 20.0292 30.1932 20.1488 30.2262C20.2685 30.2593 20.3935 30.268 20.5166 30.252C20.6397 30.2361 20.7584 30.1956 20.8656 30.1331L34.0553 22.3824C34.4081 22.168 34.6998 21.8665 34.9026 21.5068C35.1053 21.1471 35.2122 20.7414 35.213 20.3286C35.2137 19.9157 35.1084 19.5096 34.9071 19.1491C34.7057 18.7887 34.4151 18.4861 34.0632 18.2703Z" fill="#393939"/>
<path d="M3.52257 40.327L16.7122 32.5779C16.9294 32.4479 17.0869 32.2379 17.1508 31.993C17.2148 31.7481 17.18 31.4879 17.0541 31.2684L13.5615 25.1801C13.4807 25.0358 13.3629 24.9156 13.2203 24.832C13.0776 24.7483 12.9152 24.7042 12.7498 24.7042C12.5845 24.7042 12.4221 24.7483 12.2794 24.832C12.1368 24.9156 12.019 25.0358 11.9382 25.1801L10.8043 27.1782C10.6796 27.3974 10.6457 27.6567 10.7099 27.9006C10.7741 28.1446 10.9313 28.3536 11.1478 28.483L12.0433 29.0084C12.2598 29.1378 12.417 29.3469 12.4812 29.5908C12.5454 29.8347 12.5115 30.094 12.3868 30.3133L12.0574 30.892C11.9915 31.0086 11.9014 31.1097 11.7932 31.1887C11.685 31.2677 11.5612 31.3226 11.4301 31.3499L6.36281 32.3944C6.13761 32.4393 5.90375 32.4004 5.70529 32.2848C5.50683 32.1693 5.35748 31.9851 5.28537 31.7671L3.64333 26.7751C3.60072 26.6463 3.58553 26.5099 3.59877 26.3749C3.612 26.2398 3.65336 26.1091 3.72018 25.9909L4.04953 25.4122C4.1098 25.3042 4.19102 25.2093 4.28841 25.1331C4.38581 25.0569 4.49743 25.0008 4.61674 24.9683C4.73606 24.9357 4.86067 24.9272 4.98329 24.9434C5.10591 24.9596 5.22407 25.0001 5.33086 25.0625L6.2248 25.5879C6.33165 25.6505 6.44993 25.6912 6.57272 25.7075C6.6955 25.7238 6.82031 25.7154 6.93981 25.6829C7.05932 25.6503 7.17111 25.5942 7.26862 25.5178C7.36614 25.4414 7.44743 25.3464 7.5077 25.2381L8.62747 23.2652C8.71078 23.1213 8.75508 22.9581 8.75597 22.7918C8.75687 22.6256 8.71435 22.4619 8.6326 22.3171C8.55086 22.1723 8.43273 22.0514 8.2899 21.9663C8.14706 21.8811 7.98448 21.8348 7.81823 21.8317L0.941104 21.8004C0.816334 21.8003 0.692797 21.8251 0.5777 21.8733C0.462603 21.9215 0.358244 21.9921 0.270677 22.0809C0.183111 22.1698 0.11408 22.2752 0.0676291 22.391C0.0211782 22.5068 -0.00176562 22.6307 0.000105934 22.7555V38.2553C0.00324259 40.0965 1.95894 41.2461 3.52257 40.327Z" fill="#F1B90C"/>
</svg>
