<svg width="22" height="24" viewBox="0 0 22 24" fill="none" xmlns="http://www.w3.org/2000/svg">
<path d="M20.2176 6.29637L19.0614 10.7011C19.044 10.8536 18.9731 10.9923 18.8641 11.0869C18.7551 11.1815 18.6168 11.2244 18.4794 11.2063C18.4246 11.2012 18.3711 11.1853 18.3214 11.1592L14.8372 10.0676C14.7696 10.0612 14.7038 10.0398 14.6437 10.0048C14.5836 9.9697 14.5305 9.92162 14.4874 9.86338C14.4443 9.80514 14.4121 9.73792 14.3927 9.66566C14.3734 9.5934 14.3673 9.51757 14.3747 9.44263C14.3797 9.35697 14.4025 9.27375 14.4413 9.19949C14.4801 9.12523 14.5338 9.06194 14.5982 9.01457L15.2033 8.38104C15.3372 8.21098 15.5261 8.10655 15.729 8.09052C15.9318 8.07448 16.1322 8.14813 16.2864 8.29543C16.3101 8.3175 16.332 8.34185 16.3519 8.3682C16.452 8.48751 16.5798 8.57382 16.7213 8.61763C16.8627 8.66144 17.0123 8.66104 17.1536 8.61647C17.3186 8.57399 17.4652 8.46929 17.5685 8.32022C17.6718 8.17114 17.7254 7.9869 17.7201 7.79887C17.697 6.84429 17.6623 5.88543 17.6161 4.93085C17.605 4.74277 17.5343 4.56513 17.4165 4.42953C17.2986 4.29393 17.1413 4.20916 16.9724 4.1903C16.0962 4.10469 15.2213 4.03335 14.3477 3.97627C14.192 3.95806 14.0352 3.99667 13.901 4.08626C13.7667 4.17585 13.6625 4.31155 13.6039 4.47282C13.5343 4.63233 13.5111 4.81188 13.5373 4.98669C13.5635 5.16151 13.638 5.32297 13.7503 5.44881C13.8956 5.60036 13.9824 5.80852 13.9924 6.0296C14.0025 6.25068 13.9351 6.46749 13.8043 6.63454L13.7041 6.733C13.4921 6.95987 13.284 7.18674 13.0681 7.40505C12.9806 7.52 12.8556 7.59174 12.7205 7.60458C12.5854 7.61741 12.4513 7.5703 12.3474 7.47354C12.2487 7.38179 12.1853 7.25164 12.1701 7.10969C11.8656 5.8255 11.565 4.50279 11.2644 3.20148C11.2122 3.05493 11.2141 2.89146 11.2696 2.74644C11.3252 2.60143 11.4299 2.48655 11.5612 2.42668C11.6052 2.40536 11.6521 2.39234 11.6999 2.38816C14.4312 1.6205 17.1587 0.867106 19.8823 0.127984C20.2083 0.0370605 20.5535 0.0931855 20.8424 0.284091C21.1313 0.474996 21.3404 0.785155 21.424 1.14677C21.4818 1.38799 21.4818 1.64183 21.424 1.88304C21.0386 3.35986 20.6531 4.83668 20.2677 6.31349L20.2176 6.29637Z" fill="#284B6B"/>
<path d="M17.0108 18.2783L15.8546 22.683C15.8017 22.94 15.6853 23.1756 15.5184 23.3631C15.3516 23.5506 15.141 23.6828 14.9103 23.7446C14.6824 23.8153 14.4411 23.8125 14.2146 23.7367C13.9881 23.6609 13.7856 23.5152 13.6307 23.3166C11.7576 21.122 9.88188 18.9289 8.00361 16.7373C7.94611 16.6921 7.89719 16.6347 7.85967 16.5685C7.82214 16.5023 7.79674 16.4285 7.78493 16.3513C7.77312 16.2742 7.77512 16.1952 7.79082 16.119C7.80652 16.0427 7.83561 15.9706 7.87643 15.9068C7.91579 15.8496 7.96254 15.7991 8.01518 15.757C8.87594 14.8238 9.73927 13.8935 10.6052 12.966C10.9906 12.538 11.4068 12.6921 11.5379 13.2871C11.6073 13.591 11.6766 13.8992 11.7383 14.2074C11.7903 14.4207 11.7659 14.6481 11.6704 14.842C11.5749 15.0359 11.4155 15.1812 11.2257 15.2476H11.1872C11.0156 15.279 10.8587 15.3739 10.7418 15.5169C10.625 15.6599 10.5551 15.8426 10.5435 16.0352C10.5232 16.2259 10.5612 16.4186 10.6513 16.5824C10.7415 16.7462 10.8786 16.8716 11.0407 16.9384C11.7537 17.3665 12.4629 17.7689 13.1759 18.1841C13.3385 18.2703 13.5231 18.2905 13.6977 18.2413C13.8723 18.192 14.0259 18.0764 14.1317 17.9144C14.6302 17.1239 15.1171 16.3249 15.5925 15.5173C15.6799 15.3782 15.7249 15.2117 15.7207 15.0422C15.7165 14.8726 15.6635 14.7091 15.5693 14.5755C15.4868 14.439 15.3691 14.3332 15.2315 14.2721C15.094 14.211 14.9431 14.1974 14.7985 14.2331C14.686 14.2786 14.5655 14.2943 14.4466 14.2791C14.3277 14.2639 14.2136 14.2181 14.1134 14.1454C14.0131 14.0728 13.9295 13.9751 13.8692 13.8603C13.8088 13.7455 13.7733 13.6167 13.7656 13.484C13.7039 13.1843 13.6307 12.889 13.5729 12.585C13.5313 12.4425 13.542 12.2876 13.6026 12.1538C13.6632 12.02 13.7689 11.9181 13.8966 11.8702C14.0091 11.8275 14.1311 11.8275 14.2435 11.8702L17.7662 12.9703C17.8374 12.9797 17.9062 13.005 17.9684 13.0446C18.0306 13.0843 18.085 13.1375 18.1282 13.2011C18.1714 13.2646 18.2025 13.3373 18.2198 13.4146C18.2371 13.4919 18.2401 13.5723 18.2287 13.6509C18.2205 13.7068 18.2062 13.7614 18.1863 13.8136L17.0301 18.2954L17.0108 18.2783Z" fill="#687CFB"/>
<path d="M9.36418 8.08617C9.19074 8.03053 9.0173 7.97916 8.84772 7.91923C8.70693 7.89193 8.58135 7.80455 8.4978 7.67577C8.41426 7.54698 8.37939 7.38701 8.40064 7.23005C8.40739 7.19324 8.41773 7.15736 8.43147 7.12303C8.47387 6.9304 8.53168 6.74206 8.57408 6.54943C8.6084 6.41322 8.59435 6.26757 8.53483 6.14253C8.47531 6.01748 8.37485 5.92257 8.25418 5.87737C8.08315 5.78501 7.89236 5.7473 7.70314 5.76847C7.51392 5.78964 7.33373 5.86884 7.18272 5.99723C6.5198 6.53231 5.81064 6.99889 5.1246 7.49973C4.99325 7.56848 4.89164 7.69203 4.84185 7.84352C4.79205 7.995 4.79809 8.1622 4.85866 8.30877L4.8972 8.38154C5.28262 9.28903 5.66803 10.2008 6.05345 11.104C6.16146 11.281 6.31293 11.4198 6.48987 11.5041C6.66681 11.5883 6.8618 11.6144 7.05168 11.5792C7.13084 11.5543 7.20276 11.5069 7.26025 11.4415C7.31773 11.3762 7.35878 11.2952 7.37928 11.2068C7.42939 11.0098 7.47564 10.8044 7.5373 10.6075C7.57108 10.4583 7.65626 10.3299 7.77449 10.2498C7.89272 10.1697 8.03454 10.1444 8.16939 10.1794C8.19492 10.1834 8.21967 10.1921 8.24262 10.2051C8.62803 10.3164 8.98262 10.432 9.34491 10.5561C9.41066 10.5723 9.47287 10.6028 9.52793 10.6458C9.58299 10.6889 9.6298 10.7437 9.66565 10.807C9.7015 10.8703 9.72568 10.9409 9.73678 11.0146C9.74788 11.0884 9.74569 11.1639 9.73033 11.2367C9.70739 11.3457 9.65493 11.4443 9.58001 11.5192C8.66529 12.5181 7.75571 13.514 6.85126 14.5071C6.60074 14.7768 6.3271 14.7426 6.08043 14.4343L1.92564 9.59296L0.430221 7.84646C0.250173 7.6661 0.119016 7.43352 0.0515101 7.17488C-0.0159959 6.91624 -0.0171724 6.6418 0.0481131 6.38246C0.113399 6.12312 0.242555 5.88916 0.421049 5.7069C0.599542 5.52465 0.82029 5.40134 1.05845 5.35085C3.71012 4.58034 6.36307 3.82124 9.0173 3.07356C9.13952 3.01813 9.27649 3.01851 9.39846 3.07461C9.52043 3.13072 9.61753 3.23802 9.66866 3.3732C9.68383 3.4191 9.69544 3.46636 9.70335 3.51446C9.99626 4.86714 10.284 6.22125 10.5667 7.57678C10.6035 7.72265 10.587 7.8788 10.5205 8.01114C10.4541 8.14347 10.3432 8.24123 10.2121 8.28308C10.1163 8.31308 10.0149 8.31308 9.91918 8.28308C9.7496 8.23172 9.54533 8.15895 9.36418 8.08617Z" fill="#687CFB"/>
</svg>
