<svg width="18" height="35" viewBox="0 0 18 35" fill="none" xmlns="http://www.w3.org/2000/svg">
<path d="M6.95606 24.7924C6.95263 24.5973 6.99725 24.4049 7.08512 24.2359C7.11282 24.196 7.12785 24.1471 7.12785 24.0968C7.12785 24.0464 7.11282 23.9975 7.08512 23.9576C6.89422 23.6153 6.75089 23.2429 6.65998 22.8531C6.58973 22.5283 6.539 22.1988 6.50815 21.8665C6.47565 21.3749 6.48327 20.8811 6.53092 20.391C6.41009 20.9127 6.23958 21.4187 6.02227 21.9003C5.86997 22.2391 5.68134 22.5561 5.46048 22.8446C5.35616 23.0026 5.23071 23.1419 5.08849 23.2578C5.05673 23.2801 5.03086 23.3114 5.01353 23.3484C4.99619 23.3854 4.988 23.4269 4.98979 23.4686C4.96086 24.1501 4.82468 24.8207 4.58743 25.4501C4.37465 26.0334 4.1208 26.5973 3.82825 27.1364C3.69919 27.3725 3.51699 27.5749 3.38793 27.8025C3.18295 28.182 2.87169 28.4518 2.62875 28.8059C2.38582 29.16 2.3099 29.0757 2.1277 28.8059C1.94549 28.5361 1.76329 28.2663 1.60387 27.9627C1.44444 27.6592 1.34574 27.4484 1.21668 27.1954C0.978131 26.7187 0.784771 26.2157 0.63971 25.6946C0.508336 25.2364 0.419306 24.7646 0.373999 24.2865C0.320916 23.74 0.320916 23.1887 0.373999 22.6423C0.373999 22.3809 0.25253 22.1785 0.199388 21.9509C0.118393 21.5879 0.0625569 21.2187 0.032369 20.8463C-0.0315334 20.2828 -0.000642489 19.7109 0.12347 19.1599C0.261551 18.431 0.604478 17.7697 1.10281 17.2712C1.26224 17.111 1.45962 17.052 1.60387 16.8918C1.74811 16.7316 1.68737 16.8075 1.6646 16.74C1.55887 16.428 1.48997 16.102 1.45962 15.7704C1.43675 15.4758 1.43675 15.1796 1.45962 14.885C1.45383 14.4696 1.48434 14.0545 1.55072 13.6455C1.6383 13.2652 1.75253 12.8931 1.89235 12.5325C2.08883 12.0439 2.34423 11.5872 2.65153 11.175C2.8921 10.851 3.17334 10.567 3.48662 10.3318C3.79019 10.109 4.11967 9.93315 4.46596 9.80907C4.7123 9.7247 4.96753 9.67651 5.22514 9.66573C5.63995 9.63533 6.05632 9.68671 6.45501 9.8175C6.80346 9.90678 7.13844 10.0516 7.44953 10.2475C7.64761 10.3548 7.83796 10.4788 8.01891 10.6185C8.10242 10.6944 8.16315 10.6185 8.23148 10.5764C8.40338 10.3546 8.59127 10.1487 8.79327 9.96084C9.19008 9.62713 9.64929 9.39662 10.137 9.2863C10.5094 9.22312 10.8882 9.22312 11.2606 9.2863C11.5865 9.34597 11.905 9.44785 12.2096 9.58985C12.7773 9.84118 13.2936 10.2168 13.7279 10.6944C13.9495 10.9221 14.1411 11.1833 14.2973 11.4701C14.5085 11.8198 14.6866 12.1928 14.8287 12.5831C14.9459 12.938 15.0299 13.3053 15.0793 13.6793C15.1552 14.193 15.1552 14.717 15.0793 15.2307C15.0149 15.6302 14.9105 16.0205 14.768 16.3943C14.6462 16.745 14.4883 17.0789 14.2973 17.3893C14.2442 17.4651 14.2973 17.5073 14.2973 17.5579C14.4415 17.8446 14.6237 18.106 14.7528 18.4011C14.9022 18.7436 15.0266 19.0988 15.1248 19.4635C15.2528 19.9364 15.3142 20.4284 15.307 20.9222C15.3097 21.4445 15.2431 21.9644 15.1096 22.4652C15.0141 22.9238 14.8526 23.3622 14.6313 23.7637C14.3732 24.1516 14.5326 24.4973 14.5934 24.8598C14.6437 25.1773 14.6717 25.4987 14.6769 25.8211C14.6823 26.2647 14.6338 26.7072 14.5326 27.1364C14.4503 27.5246 14.3412 27.9051 14.2062 28.2747C13.9921 28.8331 13.7382 29.3716 13.447 29.8852C13.2907 30.106 13.1208 30.3145 12.9384 30.5091C12.6851 30.8606 12.403 31.1853 12.0957 31.4788C11.8831 31.6812 11.6781 31.8751 11.458 32.0606C11.0101 32.4232 10.509 32.7098 10.0611 33.0724C9.69863 33.3286 9.35123 33.6103 9.02102 33.9156C8.94126 33.9806 8.85456 34.0344 8.7629 34.0758C8.70976 34.0758 8.63384 34.0168 8.58829 33.9493C8.54274 33.8819 8.48201 33.7301 8.43646 33.6205C8.39091 33.5109 8.43646 33.5614 8.48201 33.553C8.51554 33.5559 8.54802 33.5673 8.57697 33.5863C8.60593 33.6053 8.63057 33.6314 8.64903 33.6626C8.71735 33.8228 8.80086 33.8397 8.92992 33.7301C9.3171 33.4097 9.6891 33.1061 10.1142 32.8026C10.5394 32.499 10.8051 32.3304 11.1391 32.0774C11.5912 31.7282 12.0131 31.333 12.3994 30.897C12.7816 30.4464 13.1295 29.9613 13.4394 29.4467C13.8072 28.8162 14.0886 28.1286 14.2745 27.4062C14.5 26.6254 14.5623 25.7978 14.4567 24.9863C14.4567 24.8345 14.396 24.6828 14.3732 24.531C14.3504 24.3792 14.3049 24.4045 14.229 24.531C14.1531 24.6575 14.0316 24.8008 13.9177 24.9273C13.8811 24.9764 13.8404 25.0215 13.7962 25.0622C13.7431 25.1044 13.6824 25.1802 13.614 25.0622C13.5457 24.9441 13.614 24.9357 13.614 24.8683C13.614 24.8008 13.8342 24.6237 13.9329 24.4804C14.5005 23.6805 14.879 22.7355 15.0337 21.7316C15.1649 20.7602 15.0708 19.7677 14.7604 18.848C14.6392 18.4747 14.4704 18.1226 14.2593 17.8024C14.191 17.7012 14.1455 17.6928 14.0771 17.8024C13.959 17.984 13.8323 18.1585 13.6976 18.3252C13.6444 18.3926 13.5837 18.4854 13.4926 18.4011C13.4015 18.3168 13.447 18.2324 13.4926 18.1566C13.7793 17.7462 14.0333 17.3089 14.2518 16.8496C14.5663 16.198 14.7648 15.4852 14.8363 14.7501C14.9149 14.0187 14.8288 13.277 14.5858 12.5916C14.2139 11.5078 13.5022 10.6096 12.5816 10.062C12.1776 9.79181 11.728 9.61674 11.2606 9.54769C10.7502 9.46718 10.2299 9.52208 9.74224 9.70789C8.92559 10.0854 8.26879 10.7938 7.90503 11.6894C7.77634 11.9958 7.682 12.3186 7.62414 12.6506C7.48859 13.0171 7.41895 13.4095 7.41916 13.8057C7.42715 14.4181 7.53519 15.0238 7.73801 15.5933C7.94164 16.1382 8.21248 16.649 8.54274 17.111C8.59588 17.1785 8.64143 17.2543 8.54274 17.3387C8.44405 17.423 8.39091 17.3808 8.32258 17.3387C8.26371 17.2731 8.21268 17.1994 8.17074 17.1194C8.04928 16.9339 7.98854 16.9424 7.88226 17.1194C7.37321 18.0515 7.00879 19.0719 6.80423 20.138C6.64867 20.9525 6.64867 21.7941 6.80423 22.6085C6.90997 23.1761 7.13065 23.7096 7.44953 24.1684C7.53304 24.2949 7.6545 24.3792 7.73801 24.5057C7.82152 24.6322 7.82911 24.649 7.73801 24.7249C7.64691 24.8008 7.60136 24.7249 7.54822 24.6828L7.36602 24.4635C7.22937 24.3202 7.21418 24.3202 7.15345 24.531C7.15647 24.559 7.15647 24.5873 7.15345 24.6153C7.06994 24.6743 7.07753 24.8092 6.95606 24.7924Z" fill="#244B0B"/>
<path d="M9.75003 9.28586C9.46388 8.73537 9.25885 8.13759 9.14269 7.51518C8.88017 6.32706 8.88017 5.08606 9.14269 3.89794C9.28722 3.30831 9.49897 2.74161 9.77281 2.21158C9.89997 1.98481 10.0475 1.77293 10.2131 1.57919C10.4237 1.32245 10.6578 1.09074 10.9116 0.887787C11.0772 0.754368 11.2554 0.641284 11.443 0.550515C11.6708 0.43247 11.9061 0.33972 12.1338 0.238539C12.2727 0.194973 12.4151 0.16673 12.559 0.154221C12.6425 0.154221 12.6501 0.213243 12.6121 0.280698C12.3988 0.733021 12.2332 1.21118 12.1187 1.70567C12.055 1.98236 12.0119 2.26436 11.9896 2.54885C11.9365 2.92828 11.8833 3.30771 11.8378 3.69557C11.7922 4.08344 11.7087 4.53875 11.6404 5.01094C11.5702 5.51867 11.4584 6.01823 11.3063 6.50336C11.1212 7.09263 10.8794 7.65802 10.5851 8.18972C10.4638 8.40646 10.3239 8.60975 10.1676 8.79681C10.0429 8.9744 9.90309 9.13818 9.75003 9.28586Z" fill="#020302"/>
<path d="M17.0604 5.98911C17.1134 6.55124 17.0955 7.11882 17.0073 7.67546C16.9855 8.01269 16.9031 8.34164 16.7648 8.64288C16.6266 8.94411 16.4354 9.21151 16.2026 9.42928C15.8641 9.69381 15.4686 9.85384 15.0562 9.89303C14.6816 9.93388 14.3039 9.91971 13.9326 9.85087C13.5779 9.78615 13.2277 9.69316 12.885 9.57262C12.4522 9.44614 12.0271 9.28594 11.602 9.15103C11.4046 9.08357 11.2224 8.98239 11.0174 8.9318C10.9643 8.9318 10.9643 8.88121 11.0174 8.82219C11.1071 8.62428 11.2311 8.44794 11.3822 8.30327C11.5333 8.15859 11.7086 8.0484 11.898 7.97901C12.2682 7.84061 12.6542 7.76113 13.0444 7.74292C13.386 7.74292 13.7277 7.6839 14.0617 7.63331C14.4411 7.60432 14.8096 7.48037 15.1397 7.27074C15.3561 7.09546 15.5592 6.90088 15.7471 6.68894C16.0917 6.28297 16.5597 6.03357 17.0604 5.98911Z" fill="#040503"/>
<path d="M4.48902 4.14318C4.65259 4.43641 4.85186 4.70313 5.08118 4.93577C5.41566 5.22885 5.77112 5.4911 6.14403 5.71993L7.02467 6.2174C7.34644 6.42684 7.65812 6.65481 7.95846 6.90038C8.20986 7.10389 8.43469 7.34508 8.62654 7.61708C8.73216 7.76342 8.81434 7.92885 8.86947 8.10613C9.00272 8.41971 9.07021 8.76278 9.06686 9.10951C9.06686 9.15167 9.06686 9.21912 9.02131 9.22755C8.97576 9.23599 8.95298 9.22755 8.92262 9.1854C8.58589 8.8992 8.16955 8.75302 7.74589 8.77224C7.34539 8.7701 6.94699 8.7077 6.56158 8.58674C6.32983 8.48929 6.11431 8.34966 5.92387 8.17358C5.57335 7.86172 5.2708 7.48867 5.02804 7.06901C4.827 6.72068 4.6639 6.34706 4.54217 5.95602C4.41136 5.51016 4.35477 5.04158 4.37515 4.5732C4.36671 4.49669 4.37246 4.41907 4.39204 4.34511C4.41163 4.27116 4.44463 4.20244 4.48902 4.14318Z" fill="#030402"/>
<path d="M8.51246 33.5273L8.45932 33.5779C8.29132 33.3142 8.14882 33.0315 8.03418 32.7347C7.83025 32.2466 7.65279 31.7454 7.50276 31.2338C7.41173 30.9124 7.33571 30.5859 7.27501 30.2557C7.20668 29.9016 7.12317 29.5559 7.08521 29.2018C7.04725 28.8476 6.99411 28.3586 6.98652 27.9876C6.97893 27.6166 6.91819 27.0685 6.9106 26.6048C6.90301 26.141 6.9106 25.9386 6.9106 25.6014C6.90935 25.3195 6.92457 25.0379 6.95615 24.7582C7.05484 24.7582 7.01689 24.6149 7.08521 24.5643C7.14595 24.6486 7.08521 24.7413 7.08521 24.8257C7.08521 25.5761 7.08521 26.3349 7.08521 27.0854C7.08521 27.6419 7.13835 28.1984 7.19909 28.7717C7.29875 29.6508 7.48198 30.5157 7.74569 31.3519C7.90512 31.8746 8.10251 32.389 8.30749 32.8949C8.30749 32.9792 8.39859 33.0467 8.43655 33.131C8.4745 33.2153 8.56561 33.3755 8.51246 33.5273Z" fill="#486914"/>
<path d="M7.56331 12.6339C7.51776 12.4737 7.62404 12.3388 7.662 12.2039C7.85798 11.5506 8.17915 10.9522 8.60338 10.4501C8.80538 10.2097 9.04128 10.0075 9.30182 9.85141C9.6761 9.61206 10.0936 9.46806 10.5241 9.42982C10.9086 9.40023 11.295 9.43433 11.6705 9.531C12.2211 9.69981 12.7368 9.98621 13.1888 10.3742C13.531 10.6418 13.8268 10.9761 14.0619 11.3607C14.1757 11.5715 14.3124 11.7654 14.4187 11.9762C14.6658 12.4623 14.8329 12.9933 14.9121 13.5445C14.9566 13.8568 14.9744 14.173 14.9653 14.4889C14.9437 14.8791 14.8877 15.266 14.7983 15.6441C14.6767 16.1277 14.4953 16.5902 14.2592 17.0184C14.0423 17.417 13.8067 17.8026 13.5532 18.1736C13.5532 18.2326 13.4621 18.2832 13.5532 18.3507C13.6443 18.4181 13.6595 18.3507 13.6823 18.2832C13.8491 18.0751 14.0038 17.8555 14.1454 17.6255C14.1833 17.5581 14.2137 17.5243 14.2668 17.6255C14.4453 17.925 14.6051 18.2377 14.7451 18.5615C14.9275 19.0129 15.0552 19.4892 15.1247 19.978C15.2108 20.536 15.2108 21.1063 15.1247 21.6644C15.076 22.0396 14.9973 22.4092 14.8894 22.7689C14.7687 23.1536 14.6082 23.5215 14.4111 23.8651C14.1978 24.2496 13.9429 24.6036 13.6519 24.919C13.6519 24.919 13.576 24.9865 13.6139 25.0455C13.6519 25.1045 13.7126 25.0455 13.743 25.0455C13.91 24.8347 14.0846 24.6239 14.2517 24.4047C14.3124 24.3204 14.32 24.2951 14.3731 24.4047C14.4568 24.6978 14.5102 25.0004 14.5326 25.3069C14.5707 25.7862 14.5451 26.2692 14.4566 26.7403C14.3494 27.3244 14.1759 27.891 13.9404 28.4267C13.7553 28.8978 13.5236 29.3446 13.2495 29.7589C13.0176 30.1177 12.7639 30.4585 12.4904 30.7791C12.2366 31.0797 11.9652 31.3614 11.678 31.6223C11.3444 31.9304 10.9918 32.2121 10.6228 32.4655C10.2508 32.7016 9.90916 33.0051 9.55235 33.3087C9.19554 33.6122 9.08166 33.6881 8.79317 33.8483C8.50469 34.0085 8.63375 33.7556 8.5882 33.6628C8.62749 33.627 8.65637 33.579 8.67123 33.525C8.68608 33.471 8.68625 33.4134 8.67171 33.3593C8.53904 32.4494 8.45539 31.5315 8.42118 30.6105C8.37653 29.768 8.37653 28.9234 8.42118 28.081C8.42354 27.4192 8.49487 26.7599 8.63375 26.1163C8.65146 26.004 8.69308 25.8979 8.75514 25.807C8.8172 25.716 8.89791 25.6429 8.99056 25.5936C9.08925 25.5514 9.05129 25.4755 8.99056 25.4081C8.80077 25.1214 8.63375 24.8094 8.45914 24.5059C8.07473 23.8575 7.72491 23.1846 7.41147 22.4907C7.27671 22.0897 7.2223 21.661 7.25205 21.2343C7.23074 20.5499 7.34207 19.8685 7.57849 19.236C7.71274 18.7723 7.97922 18.3698 8.33767 18.0893C8.52411 17.9634 8.74672 17.9212 8.96019 17.9712C9.19085 18.0139 9.41717 18.0817 9.63586 18.1736C9.67814 18.1861 9.72264 18.1861 9.76492 18.1736C9.88639 18.1736 9.93194 18.1736 9.89398 17.9965C9.86916 17.8868 9.81645 17.7873 9.74215 17.7098C9.28637 17.1688 8.87717 16.5817 8.51987 15.956C8.25131 15.4945 8.02738 15.0027 7.8518 14.4889C7.69568 14.011 7.59864 13.5118 7.56331 13.0049C7.55572 12.8616 7.56331 12.7435 7.56331 12.6339Z" fill="#A1C327"/>
<path d="M1.87743 28.0473C1.71882 27.8065 1.5767 27.5528 1.45229 27.2884C1.18426 26.7922 0.962929 26.2666 0.791805 25.7201C0.645369 25.2434 0.541122 24.7521 0.480542 24.2529C0.434992 23.8398 0.480542 23.4098 0.442583 23.005C0.443118 22.923 0.467038 22.8433 0.510909 22.7774C0.508051 22.8026 0.508051 22.8281 0.510909 22.8533C0.510909 22.9039 0.510909 23.005 0.617194 22.9545C0.723479 22.9039 0.617194 22.8448 0.617194 22.7942C0.235387 21.9252 0.0677401 20.9593 0.131321 19.9949C0.151914 19.4506 0.265262 18.9155 0.465359 18.4181C0.614039 18.0735 0.811387 17.7576 1.04992 17.4822C1.24803 17.275 1.48351 17.117 1.74078 17.0185C1.86224 16.9594 1.86984 16.892 1.83188 16.7739C1.73306 16.4078 1.66445 16.0325 1.6269 15.6525C1.58509 15.2378 1.58509 14.8193 1.6269 14.4046C1.65508 14.1191 1.70589 13.837 1.77873 13.5614C1.87675 13.1831 2.00112 12.8138 2.15073 12.4569C2.34446 11.9846 2.60031 11.547 2.90991 11.1584C3.10309 10.911 3.32229 10.6902 3.5628 10.5007C3.84789 10.2729 4.16641 10.1017 4.50418 9.99478C4.91195 9.85672 5.33948 9.80524 5.76441 9.84301C6.19459 9.88679 6.61528 10.0093 7.00946 10.2056C7.27517 10.3321 7.53329 10.4754 7.76864 10.6187C8.00398 10.7621 8.04953 10.8633 7.8977 11.1162C7.51072 11.8083 7.25258 12.5796 7.13852 13.3844C7.09679 13.7229 7.09679 14.0661 7.13852 14.4046C7.02351 15.3101 6.68449 16.1625 6.15918 16.8667C5.97778 17.1122 5.7461 17.3059 5.48352 17.4316C5.43671 17.4602 5.39111 17.4911 5.34687 17.5244C5.24058 17.575 5.23299 17.6509 5.27854 17.7605C5.59266 18.4463 5.74668 19.2088 5.72645 19.978C5.70169 20.6951 5.42992 21.3742 4.96728 21.8752C4.74712 22.1281 4.54214 22.398 4.30679 22.634C4.02212 22.9493 3.67314 23.1836 3.2895 23.317C3.15347 23.3376 3.01556 23.3376 2.87954 23.317C3.28479 23.3672 3.6677 23.5491 3.98035 23.8398C4.1055 23.9727 4.1946 24.1419 4.23754 24.3282C4.28048 24.5145 4.27554 24.7104 4.22328 24.8938C4.14264 25.196 4.0169 25.481 3.85129 25.7369C3.56287 26.3018 3.22736 26.8353 2.84917 27.3306C2.65356 27.6294 2.39216 27.8674 2.09 28.022C2.02491 28.0612 1.94852 28.0703 1.87743 28.0473Z" fill="#A1C327"/>
<path d="M7.56389 12.6337C7.61916 12.9112 7.6547 13.1932 7.67017 13.4769C7.76976 14.0632 7.94356 14.631 8.18641 15.1632C8.2927 15.4078 8.42935 15.6354 8.53563 15.8884C8.63046 16.1018 8.75045 16.3003 8.89245 16.4786C9.17817 16.9227 9.49012 17.3452 9.82623 17.7434C9.9112 17.8479 9.96893 17.9762 9.99325 18.1144C9.99325 18.2493 9.92493 18.283 9.81864 18.283C9.63892 18.2487 9.46321 18.1921 9.29481 18.1144C9.06905 18.0366 8.8319 18.008 8.59637 18.03C8.47062 18.0775 8.35453 18.152 8.25474 18.2493C7.96637 18.4998 7.74788 18.836 7.62462 19.2189C7.45768 19.6181 7.35246 20.0457 7.31336 20.4837C7.25547 21.0166 7.28635 21.5568 7.40446 22.0773C7.56366 22.57 7.77519 23.0399 8.03458 23.477C8.32306 24.0335 8.62674 24.59 8.95318 25.1633C9.01392 25.2645 9.08224 25.3573 9.14298 25.45C9.20371 25.5428 9.21889 25.6271 9.08983 25.6355C9.00711 25.6499 8.93048 25.6925 8.8706 25.7575C8.81072 25.8225 8.77059 25.9066 8.7558 25.9981C8.66266 26.3584 8.60413 26.7287 8.58118 27.1027C8.54576 27.4737 8.52298 27.8447 8.51286 28.2157C8.51286 28.9071 8.51286 29.5985 8.51286 30.2899C8.51286 30.6272 8.55841 30.9729 8.55841 31.3186C8.55841 31.6643 8.62674 31.9509 8.64951 32.2714C8.6772 32.6932 8.7279 33.1127 8.80135 33.5277C8.80135 33.6542 8.7482 33.7048 8.64192 33.6879L8.50527 33.5783C8.40466 33.2881 8.28542 33.0063 8.14845 32.7351C8.06494 32.5074 7.95866 32.2798 7.87515 32.0437C7.79164 31.8076 7.63221 31.327 7.53352 30.956C7.43483 30.585 7.38928 30.273 7.32095 29.9357C7.25889 29.6388 7.21576 29.3373 7.19189 29.0335C7.19189 28.6878 7.11597 28.3506 7.0932 27.9964C7.07042 27.6423 7.0932 27.3725 7.04006 27.0605C7.01732 26.8054 7.01732 26.5484 7.04006 26.2932C7.02286 25.7306 7.03807 25.1673 7.08561 24.6068C7.12357 24.5563 7.08561 24.4972 7.08561 24.4466C7.08561 24.3961 7.14634 24.2864 7.19948 24.2611C7.25262 24.2359 7.28299 24.337 7.32854 24.3876C7.37409 24.4382 7.48797 24.59 7.57148 24.6827C7.65499 24.7755 7.62462 24.7923 7.68536 24.6827C7.74609 24.5731 7.68536 24.5984 7.68536 24.5478C7.48216 24.3114 7.29917 24.0545 7.13875 23.7805C7.03347 23.5631 6.94214 23.3377 6.86544 23.106C6.7548 22.7748 6.68334 22.429 6.65288 22.0773C6.63003 21.7968 6.63003 21.5146 6.65288 21.2341C6.66879 20.6846 6.74009 20.1387 6.86544 19.6068C6.95647 19.2304 7.07062 18.8613 7.20707 18.5022C7.38843 18.0219 7.59634 17.5544 7.8296 17.1026C7.95866 16.8496 8.04217 16.8496 8.18641 17.1026C8.23879 17.1988 8.30263 17.2867 8.37621 17.3639C8.39458 17.3835 8.41907 17.3945 8.44453 17.3945C8.47 17.3945 8.49448 17.3835 8.51286 17.3639C8.57359 17.3133 8.51286 17.2628 8.51286 17.229C8.33664 17.0005 8.17911 16.755 8.04217 16.4955C7.93728 16.3231 7.84826 16.1395 7.77646 15.9474C7.57647 15.4607 7.4434 14.9434 7.38169 14.4128C7.2898 13.8126 7.35297 13.1957 7.56389 12.6337Z" fill="#95B224"/>
<path d="M1.87695 28.047C2.40079 27.9374 2.63613 27.4821 2.98535 27.069C3.40509 26.4758 3.77845 25.844 4.10134 25.1802C4.22122 24.9385 4.25019 24.6539 4.18193 24.3886C4.11366 24.1232 3.95371 23.8986 3.73694 23.7637C3.42544 23.6036 3.10306 23.4711 2.77278 23.3674C2.89133 23.3524 3.01104 23.3524 3.12959 23.3674C3.48203 23.3104 3.81184 23.1405 4.07857 22.8784C4.39444 22.5781 4.68887 22.2511 4.95921 21.9003C5.28302 21.5226 5.50637 21.0527 5.60451 20.5427C5.70469 19.9273 5.67085 19.2941 5.50582 18.6962C5.43649 18.3888 5.33455 18.0916 5.20215 17.8108C5.14141 17.7012 5.13382 17.6169 5.27807 17.5579C5.79391 17.3299 6.22665 16.9175 6.50793 16.3859C6.73432 15.9532 6.91275 15.4917 7.03936 15.0115C7.0925 14.826 7.03936 14.6152 7.19119 14.4466C7.21996 14.6905 7.26051 14.9326 7.31266 15.1717C7.37972 15.5262 7.49491 15.8674 7.65429 16.1835C7.78335 16.4449 7.65429 16.622 7.53282 16.7906C7.24197 17.1927 6.88996 17.5352 6.49275 17.8024C6.48347 17.8052 6.47484 17.8102 6.4674 17.8169C6.45997 17.8237 6.4539 17.8321 6.4496 17.8417C6.4453 17.8512 6.44287 17.8617 6.44245 17.8724C6.44204 17.883 6.44366 17.8937 6.4472 17.9036C6.4472 17.9542 6.48516 17.9626 6.53071 17.9458C6.57626 17.9289 6.64458 17.9458 6.64458 18.0638C6.66723 18.4034 6.66723 18.7444 6.64458 19.084C6.59576 19.4972 6.51963 19.9059 6.41683 20.3067C6.31738 20.7633 6.17488 21.207 5.99169 21.6304C5.81154 22.1285 5.55464 22.5879 5.23252 22.988C5.09982 23.1769 4.9279 23.3273 4.73146 23.4264C4.66313 23.4264 4.59481 23.4854 4.64036 23.5698C4.68591 23.6541 4.74664 23.5698 4.7846 23.5698C4.82256 23.5698 4.90607 23.5698 4.89848 23.6625C4.80994 24.2751 4.6597 24.8747 4.45056 25.45C4.175 26.1237 3.83928 26.7649 3.44845 27.3641C3.15464 27.8395 2.82985 28.2904 2.4767 28.7132C2.37801 28.8228 2.31728 28.7722 2.24895 28.7132C2.10502 28.5056 1.98038 28.2825 1.87695 28.047Z" fill="#7E981F"/>
<path d="M9.77248 9.06636C9.52243 8.47235 9.33886 7.84654 9.22587 7.20293C9.1492 6.77719 9.09847 6.34619 9.07404 5.91287C9.06287 5.49826 9.08574 5.08339 9.14236 4.67339C9.19437 4.28269 9.28083 3.8986 9.40048 3.52667C9.49339 3.16832 9.62869 2.82524 9.80285 2.50642C10.0137 2.13018 10.269 1.78704 10.562 1.48618C10.8864 1.15368 11.2489 0.870172 11.6401 0.642996C11.8071 0.541815 11.9893 0.516519 12.1563 0.415338C12.1943 0.415338 12.2398 0.364747 12.2778 0.415338C12.3157 0.465928 12.2778 0.508087 12.2778 0.550246C12.1032 1.27538 11.9589 2.00052 11.845 2.73408C11.7691 3.23999 11.7236 3.76276 11.6704 4.2771C11.6081 4.66467 11.5244 5.04763 11.4199 5.42382C11.2883 6.01987 11.1079 6.60128 10.8809 7.16077C10.7464 7.48333 10.589 7.79347 10.4102 8.08827C10.2432 8.38338 10.0534 8.6532 9.87117 8.93145C9.84135 8.97909 9.80836 9.02419 9.77248 9.06636Z" fill="#6FB647"/>
<path d="M14.3653 9.74986C13.5601 9.64444 12.7697 9.42921 12.0119 9.10905C11.7917 9.02473 11.564 8.96571 11.3438 8.88139C11.2679 8.88139 11.1692 8.88139 11.1464 8.74648C11.1237 8.61157 11.2072 8.59471 11.2603 8.52725C11.617 8.15321 12.0773 7.92437 12.5661 7.87801C12.9305 7.81898 13.3253 7.81055 13.6669 7.76839C14.1561 7.74523 14.6374 7.62233 15.0866 7.40583C15.2742 7.29479 15.4435 7.14941 15.5876 6.9758C15.8393 6.69242 16.1286 6.45356 16.4455 6.26753C16.5756 6.18335 16.7207 6.13157 16.8706 6.11576C16.9465 6.11576 16.9845 6.11576 16.9845 6.23381C17.0026 6.8164 16.9593 7.39934 16.8554 7.97076C16.766 8.52281 16.4955 9.01847 16.0963 9.362C15.8329 9.56656 15.5275 9.69415 15.208 9.733C14.9283 9.76885 14.6461 9.7745 14.3653 9.74986Z" fill="#6FB647"/>
<path d="M8.96779 9.03363C8.64906 8.76573 8.25908 8.62333 7.85939 8.62891C7.43867 8.6346 7.01864 8.58936 6.60675 8.494C6.3666 8.39007 6.14539 8.23866 5.95386 8.04711C5.52315 7.65939 5.16908 7.17716 4.91378 6.63057C4.68202 6.16742 4.53739 5.65681 4.48864 5.12971C4.44324 4.87643 4.44324 4.6157 4.48864 4.36242C4.76057 4.83319 5.13364 5.22146 5.57427 5.49228C5.95386 5.74523 6.33345 5.96446 6.75099 6.19212C7.40706 6.50909 7.99654 6.97427 8.48192 7.55807C8.72091 7.88341 8.87807 8.27325 8.93742 8.68793C8.94501 8.78911 9.02093 8.89029 8.96779 9.03363Z" fill="#6FB647"/>
<path d="M11.7772 24.3366C11.5306 24.2799 11.313 24.1198 11.1699 23.8897C10.9521 23.5471 10.8044 23.1557 10.7371 22.7429C10.6661 22.3348 10.6406 21.9185 10.6612 21.5035C10.6612 21.1831 10.6612 20.8627 10.6612 20.5507C10.6903 20.2965 10.7385 20.0455 10.8055 19.8003C10.9088 19.3756 11.1227 18.9943 11.4204 18.7041C11.5517 18.6101 11.7045 18.5601 11.8607 18.5601C12.0169 18.5601 12.1698 18.6101 12.301 18.7041C12.4885 18.8512 12.648 19.0378 12.7705 19.2534C12.8929 19.469 12.9759 19.7092 13.0147 19.9605C13.1209 20.4091 13.1744 20.871 13.1741 21.3348C13.1994 21.9806 13.1196 22.6261 12.9388 23.2404C12.8543 23.5209 12.7229 23.7813 12.5516 24.0077C12.4651 24.14 12.3459 24.2415 12.2084 24.2999C12.0709 24.3583 11.9211 24.371 11.7772 24.3366Z" fill="#AFCB4B"/>
<path d="M12.1792 29.2274C12.1321 29.8561 11.9693 30.4674 11.7009 31.0234C11.6202 31.2267 11.5002 31.4076 11.3492 31.5534C11.1983 31.6991 11.0203 31.8061 10.8279 31.8666C10.6892 31.9013 10.5444 31.8921 10.4102 31.8399C10.276 31.7877 10.1577 31.6947 10.0687 31.5715C9.87273 31.2951 9.73755 30.9717 9.67394 30.6271C9.58819 30.1811 9.57023 29.7222 9.6208 29.2696C9.65613 28.6027 9.79215 27.9471 10.0232 27.3303C10.1679 26.9281 10.4031 26.5739 10.7064 26.3016C10.8398 26.1861 11.0041 26.1233 11.1733 26.1233C11.3425 26.1233 11.5068 26.1861 11.6402 26.3016C11.9379 26.5749 12.1306 26.9638 12.1792 27.3893C12.259 27.9988 12.259 28.6179 12.1792 29.2274Z" fill="#B1CC4E"/>
<path d="M12.8929 15.3739C12.8678 15.714 12.7854 16.0458 12.6499 16.352C12.6155 16.4447 12.5594 16.5256 12.4875 16.5863C12.4156 16.647 12.3304 16.6853 12.2407 16.6973C12.151 16.7093 12.0601 16.6946 11.9773 16.6547C11.8944 16.6147 11.8226 16.551 11.7693 16.4701C11.4838 16.0698 11.284 15.6027 11.1847 15.1041C11.0764 14.6398 11.0053 14.1658 10.9721 13.6876C10.911 13.2546 10.911 12.8136 10.9721 12.3807C10.9972 12.1222 11.0378 11.8658 11.0936 11.6134C11.1317 11.4066 11.2305 11.2198 11.3745 11.0822C11.4555 10.9936 11.5645 10.9439 11.6782 10.9439C11.7918 10.9439 11.9009 10.9936 11.9819 11.0822C12.1234 11.2088 12.2397 11.3667 12.3235 11.5459C12.5369 12.0197 12.6878 12.5252 12.7714 13.0468C12.8972 13.8141 12.938 14.5956 12.8929 15.3739Z" fill="#B0CB4B"/>
<path d="M2.24938 20.636C2.32848 20.1873 2.44279 19.7472 2.59101 19.3206C2.71848 18.9951 2.87894 18.6867 3.06929 18.4015C3.15644 18.2593 3.26864 18.1381 3.39912 18.0454C3.52961 17.9526 3.67566 17.8902 3.82847 17.8619C3.92203 17.8447 4.01806 17.8559 4.1063 17.8945C4.19455 17.9331 4.2717 17.9976 4.32952 18.0811C4.54802 18.3762 4.65424 18.7544 4.6256 19.1351C4.58852 20.1515 4.26746 21.1299 3.707 21.9345C3.62518 22.0587 3.52199 22.1636 3.4034 22.2432C3.28482 22.3228 3.15319 22.3755 3.01615 22.3982C2.87752 22.3993 2.74127 22.3583 2.62216 22.2795C2.50305 22.2007 2.40563 22.0872 2.34048 21.9513C2.23022 21.5243 2.19922 21.0768 2.24938 20.636Z" fill="#ACC942"/>
<path d="M6.15879 11.3433C6.34858 11.3433 6.5156 11.6468 6.53838 11.8998C6.56589 12.4712 6.49636 13.0433 6.3334 13.5861C6.2423 13.9403 6.10564 14.2775 5.98418 14.6232C5.8303 15.0421 5.61479 15.4296 5.34647 15.77C5.14149 16.0145 4.81504 16.1072 4.64803 15.947C4.54459 15.8258 4.47589 15.6732 4.45064 15.5086C4.40246 15.1256 4.4231 14.7359 4.51137 14.3619C4.60657 13.8436 4.75693 13.3398 4.95929 12.861C5.13168 12.2886 5.45422 11.7865 5.88548 11.4192C5.96728 11.363 6.0628 11.3364 6.15879 11.3433Z" fill="#ADCA46"/>
<path d="M1.79369 25.7112C1.80707 25.2737 1.91375 24.846 2.10495 24.4633C2.21124 24.244 2.33271 23.9911 2.63638 23.9995C2.72163 23.9918 2.80667 24.0169 2.87719 24.0706C2.94772 24.1244 2.99941 24.2035 3.02356 24.2946C3.10962 24.5648 3.14326 24.8522 3.12225 25.1378C3.09484 25.5344 3.01292 25.9239 2.87931 26.293C2.83322 26.425 2.76076 26.5436 2.66739 26.64C2.57403 26.7364 2.46219 26.808 2.3403 26.8495C2.25702 26.8506 2.17487 26.8279 2.10175 26.7836C2.02863 26.7393 1.96699 26.6749 1.92275 26.5965C1.81804 26.3166 1.77384 26.0134 1.79369 25.7112Z" fill="#ADCA46"/>
<path d="M11.2224 2.61657L10.8428 3.17306C10.4386 3.76037 10.1373 4.4268 9.95458 5.13767C9.82186 5.66724 9.82186 6.22701 9.95458 6.75658C9.9745 6.78885 9.98515 6.82707 9.98515 6.86619C9.98515 6.90532 9.9745 6.94353 9.95458 6.9758C9.69761 6.14712 9.74117 5.23989 10.0761 4.44627C10.3619 3.76707 10.7409 3.14129 11.1996 2.59127L11.2224 2.61657Z" fill="#090C06"/>
<path d="M16.18 7.47337C16.1731 7.51778 16.1582 7.56015 16.136 7.59787C16.1138 7.63558 16.0848 7.66782 16.0509 7.69259C15.6983 7.99002 15.3131 8.23651 14.9046 8.42616C14.4057 8.62727 13.879 8.72999 13.3483 8.7297H13.2344C13.2263 8.72775 13.2186 8.72397 13.2119 8.7186C13.2051 8.71323 13.1994 8.70639 13.1952 8.69849C13.1909 8.69059 13.1881 8.6818 13.1871 8.67267C13.186 8.66353 13.1866 8.65425 13.1888 8.64539C13.1888 8.64539 13.2344 8.64539 13.2572 8.64539C14.0159 8.70153 14.7718 8.49534 15.4208 8.05516C15.6789 7.86123 15.9067 7.65043 16.18 7.47337Z" fill="#090D06"/>
<path d="M5.50612 6.05676C5.71277 6.43135 5.96866 6.76954 6.2653 7.06014C6.53792 7.3471 6.85404 7.57832 7.19909 7.74311C7.34333 7.819 7.49517 7.86959 7.63941 7.93705C7.78366 8.0045 7.73051 7.93705 7.70774 8.0045C7.68496 8.07195 7.62423 8.08039 7.62423 8.06352C7.31952 7.94649 7.02686 7.79387 6.75117 7.60821C6.38683 7.3657 6.06106 7.05802 5.78702 6.69757C5.66661 6.51957 5.55994 6.33058 5.46817 6.13264C5.4378 6.05676 5.4378 6.05676 5.50612 6.05676Z" fill="#0A0E07"/>
</svg>
